# MagicaVoxel @ ephtracy

# material
mtllib untitled.mtl
usemtl palette

# normals
vn -1 0 0
vn 1 0 0
vn 0 0 1
vn 0 0 -1
vn 0 -1 0
vn 0 1 0

# texcoords
vt 0.0527344 0.5
vt 0.306641 0.5
vt 0.958984 0.5
vt 0.970703 0.5
vt 0.974609 0.5
vt 0.994141 0.5

# verts
v -4.5 5 9.5
v -4.5 5 -2.5
v -4.5 8 9.5
v -4.5 8 7.5
v -4.5 8 -2.5
v -4.5 12 7.5
v -4.5 12 -2.5
v -3.5 0 6.5
v -3.5 0 1.5
v -3.5 0 -0.5
v -3.5 0 -4.5
v -3.5 1 1.5
v -3.5 1 -0.5
v -3.5 2 6.5
v -3.5 2 5.5
v -3.5 2 -4.5
v -3.5 5 5.5
v -3.5 5 -2.5
v -3.5 5 -4.5
v -2.5 8 8.5
v -2.5 8 7.5
v -2.5 11 8.5
v -2.5 11 7.5
v -2.5 12 2.5
v -2.5 12 0.5
v -2.5 20 2.5
v -2.5 20 0.5
v 1.5 0 6.5
v 1.5 0 1.5
v 1.5 0 -0.5
v 1.5 0 -4.5
v 1.5 1 5.5
v 1.5 1 1.5
v 1.5 1 -0.5
v 1.5 1 -4.5
v 1.5 2 6.5
v 1.5 2 5.5
v 1.5 8 8.5
v 1.5 8 7.5
v 1.5 11 8.5
v 1.5 11 7.5
v 1.5 12 2.5
v 1.5 12 0.5
v 1.5 20 2.5
v 1.5 20 0.5
v 0.5 0 6.5
v 0.5 0 1.5
v 0.5 0 -0.5
v 0.5 0 -4.5
v 0.5 1 5.5
v 0.5 1 1.5
v 0.5 1 -0.5
v 0.5 1 -4.5
v 0.5 2 6.5
v 0.5 2 5.5
v 0.5 8 8.5
v 0.5 8 7.5
v 0.5 11 8.5
v 0.5 11 7.5
v 0.5 12 2.5
v 0.5 12 0.5
v 0.5 20 2.5
v 0.5 20 0.5
v 4.5 8 8.5
v 4.5 8 7.5
v 4.5 11 8.5
v 4.5 11 7.5
v 4.5 12 2.5
v 4.5 12 0.5
v 4.5 20 2.5
v 4.5 20 0.5
v 5.5 0 6.5
v 5.5 0 1.5
v 5.5 0 -0.5
v 5.5 0 -4.5
v 5.5 1 1.5
v 5.5 1 -0.5
v 5.5 2 6.5
v 5.5 2 5.5
v 5.5 2 -4.5
v 5.5 5 5.5
v 5.5 5 -2.5
v 5.5 5 -4.5
v 6.5 5 9.5
v 6.5 5 -2.5
v 6.5 8 9.5
v 6.5 8 7.5
v 6.5 8 -2.5
v 6.5 12 7.5
v 6.5 12 -2.5
v -4.5 5 9.5
v -4.5 8 9.5
v 0.5 5 9.5
v 0.5 8 9.5
v 1.5 5 9.5
v 1.5 8 9.5
v 6.5 5 9.5
v 6.5 8 9.5
v -2.5 8 8.5
v -2.5 11 8.5
v -1.5 8 8.5
v -1.5 10 8.5
v -0.5 8 8.5
v -0.5 10 8.5
v 0.5 8 8.5
v 0.5 11 8.5
v 1.5 8 8.5
v 1.5 11 8.5
v 2.5 8 8.5
v 2.5 10 8.5
v 3.5 8 8.5
v 3.5 10 8.5
v 4.5 8 8.5
v 4.5 11 8.5
v -4.5 8 7.5
v -4.5 12 7.5
v -2.5 8 7.5
v -2.5 11 7.5
v 0.5 8 7.5
v 0.5 11 7.5
v 1.5 8 7.5
v 1.5 11 7.5
v 4.5 8 7.5
v 4.5 11 7.5
v 6.5 8 7.5
v 6.5 12 7.5
v -3.5 0 6.5
v -3.5 2 6.5
v 0.5 0 6.5
v 0.5 2 6.5
v 1.5 0 6.5
v 1.5 2 6.5
v 5.5 0 6.5
v 5.5 2 6.5
v -3.5 2 5.5
v -3.5 5 5.5
v 0.5 1 5.5
v 0.5 2 5.5
v 0.5 5 5.5
v 1.5 1 5.5
v 1.5 2 5.5
v 1.5 5 5.5
v 5.5 2 5.5
v 5.5 5 5.5
v -2.5 12 2.5
v -2.5 20 2.5
v -1.5 12 2.5
v -1.5 19 2.5
v -0.5 12 2.5
v -0.5 19 2.5
v 0.5 12 2.5
v 0.5 20 2.5
v 1.5 12 2.5
v 1.5 20 2.5
v 2.5 12 2.5
v 2.5 19 2.5
v 3.5 12 2.5
v 3.5 19 2.5
v 4.5 12 2.5
v 4.5 20 2.5
v -3.5 0 -0.5
v -3.5 1 -0.5
v 0.5 0 -0.5
v 0.5 1 -0.5
v 1.5 0 -0.5
v 1.5 1 -0.5
v 5.5 0 -0.5
v 5.5 1 -0.5
v -3.5 0 1.5
v -3.5 1 1.5
v 0.5 0 1.5
v 0.5 1 1.5
v 1.5 0 1.5
v 1.5 1 1.5
v 5.5 0 1.5
v 5.5 1 1.5
v -2.5 12 0.5
v -2.5 20 0.5
v 0.5 12 0.5
v 0.5 20 0.5
v 1.5 12 0.5
v 1.5 20 0.5
v 4.5 12 0.5
v 4.5 20 0.5
v -4.5 5 -2.5
v -4.5 8 -2.5
v -4.5 12 -2.5
v -3.5 5 -2.5
v 5.5 5 -2.5
v 6.5 5 -2.5
v 6.5 8 -2.5
v 6.5 12 -2.5
v -3.5 0 -4.5
v -3.5 2 -4.5
v -3.5 5 -4.5
v 0.5 0 -4.5
v 0.5 1 -4.5
v 1.5 0 -4.5
v 1.5 1 -4.5
v 5.5 0 -4.5
v 5.5 2 -4.5
v 5.5 5 -4.5
v -3.5 0 6.5
v 0.5 0 6.5
v 1.5 0 6.5
v 5.5 0 6.5
v -3.5 0 1.5
v 0.5 0 1.5
v 1.5 0 1.5
v 5.5 0 1.5
v -3.5 0 -0.5
v 0.5 0 -0.5
v 1.5 0 -0.5
v 5.5 0 -0.5
v -3.5 0 -4.5
v 0.5 0 -4.5
v 1.5 0 -4.5
v 5.5 0 -4.5
v 0.5 1 5.5
v 1.5 1 5.5
v -3.5 1 1.5
v 0.5 1 1.5
v 1.5 1 1.5
v 5.5 1 1.5
v -3.5 1 -0.5
v 0.5 1 -0.5
v 1.5 1 -0.5
v 5.5 1 -0.5
v 0.5 1 -4.5
v 1.5 1 -4.5
v -4.5 5 9.5
v 0.5 5 9.5
v 1.5 5 9.5
v 6.5 5 9.5
v -3.5 5 5.5
v 0.5 5 5.5
v 1.5 5 5.5
v 5.5 5 5.5
v -4.5 5 -2.5
v -3.5 5 -2.5
v 5.5 5 -2.5
v 6.5 5 -2.5
v -3.5 2 6.5
v 0.5 2 6.5
v 1.5 2 6.5
v 5.5 2 6.5
v -3.5 2 5.5
v 0.5 2 5.5
v 1.5 2 5.5
v 5.5 2 5.5
v -3.5 5 -2.5
v 5.5 5 -2.5
v -3.5 5 -4.5
v 5.5 5 -4.5
v -4.5 8 9.5
v 0.5 8 9.5
v 1.5 8 9.5
v 6.5 8 9.5
v -2.5 8 8.5
v -1.5 8 8.5
v -0.5 8 8.5
v 0.5 8 8.5
v 1.5 8 8.5
v 2.5 8 8.5
v 3.5 8 8.5
v 4.5 8 8.5
v -4.5 8 7.5
v -2.5 8 7.5
v 0.5 8 7.5
v 1.5 8 7.5
v 4.5 8 7.5
v 6.5 8 7.5
v -2.5 11 8.5
v 0.5 11 8.5
v 1.5 11 8.5
v 4.5 11 8.5
v -2.5 11 7.5
v 0.5 11 7.5
v 1.5 11 7.5
v 4.5 11 7.5
v -4.5 12 7.5
v 6.5 12 7.5
v -2.5 12 2.5
v -1.5 12 2.5
v -0.5 12 2.5
v 0.5 12 2.5
v 1.5 12 2.5
v 2.5 12 2.5
v 3.5 12 2.5
v 4.5 12 2.5
v -2.5 12 0.5
v 0.5 12 0.5
v 1.5 12 0.5
v 4.5 12 0.5
v -4.5 12 -2.5
v 6.5 12 -2.5
v -2.5 20 2.5
v 0.5 20 2.5
v 1.5 20 2.5
v 4.5 20 2.5
v -2.5 20 0.5
v 0.5 20 0.5
v 1.5 20 0.5
v 4.5 20 0.5

# faces
f 3/5/1 2/5/1 1/5/1
f 4/5/1 2/5/1 3/5/1
f 5/5/1 2/5/1 4/5/1
f 6/4/1 5/4/1 4/4/1
f 7/4/1 5/4/1 6/4/1
f 12/4/1 9/4/1 8/4/1
f 13/4/1 11/4/1 10/4/1
f 14/4/1 12/4/1 8/4/1
f 14/4/1 13/4/1 12/4/1
f 15/4/1 13/4/1 14/4/1
f 16/4/1 11/4/1 13/4/1
f 16/4/1 13/4/1 15/4/1
f 17/5/1 16/5/1 15/5/1
f 18/5/1 16/5/1 17/5/1
f 19/5/1 16/5/1 18/5/1
f 22/3/1 21/3/1 20/3/1
f 23/3/1 21/3/1 22/3/1
f 26/5/1 25/5/1 24/5/1
f 27/5/1 25/5/1 26/5/1
f 32/4/1 29/4/1 28/4/1
f 33/4/1 29/4/1 32/4/1
f 34/4/1 31/4/1 30/4/1
f 35/4/1 31/4/1 34/4/1
f 36/4/1 32/4/1 28/4/1
f 37/4/1 32/4/1 36/4/1
f 40/3/1 39/3/1 38/3/1
f 41/3/1 39/3/1 40/3/1
f 44/5/1 43/5/1 42/5/1
f 45/5/1 43/5/1 44/5/1
f 46/4/2 47/4/2 50/4/2
f 50/4/2 47/4/2 51/4/2
f 48/4/2 49/4/2 52/4/2
f 52/4/2 49/4/2 53/4/2
f 46/4/2 50/4/2 54/4/2
f 54/4/2 50/4/2 55/4/2
f 56/3/2 57/3/2 58/3/2
f 58/3/2 57/3/2 59/3/2
f 60/5/2 61/5/2 62/5/2
f 62/5/2 61/5/2 63/5/2
f 64/3/2 65/3/2 66/3/2
f 66/3/2 65/3/2 67/3/2
f 68/5/2 69/5/2 70/5/2
f 70/5/2 69/5/2 71/5/2
f 72/4/2 73/4/2 76/4/2
f 74/4/2 75/4/2 77/4/2
f 72/4/2 76/4/2 78/4/2
f 76/4/2 77/4/2 78/4/2
f 78/4/2 77/4/2 79/4/2
f 77/4/2 75/4/2 80/4/2
f 79/4/2 77/4/2 80/4/2
f 79/5/2 80/5/2 81/5/2
f 81/5/2 80/5/2 82/5/2
f 82/5/2 80/5/2 83/5/2
f 84/5/2 85/5/2 86/5/2
f 86/5/2 85/5/2 87/5/2
f 87/5/2 85/5/2 88/5/2
f 87/4/2 88/4/2 89/4/2
f 89/4/2 88/4/2 90/4/2
f 93/5/3 92/5/3 91/5/3
f 94/5/3 92/5/3 93/5/3
f 95/6/3 94/6/3 93/6/3
f 96/6/3 94/6/3 95/6/3
f 97/5/3 96/5/3 95/5/3
f 98/5/3 96/5/3 97/5/3
f 101/3/3 100/3/3 99/3/3
f 102/3/3 100/3/3 101/3/3
f 103/6/3 102/6/3 101/6/3
f 104/3/3 100/3/3 102/3/3
f 104/6/3 102/6/3 103/6/3
f 105/3/3 104/3/3 103/3/3
f 106/3/3 100/3/3 104/3/3
f 106/3/3 104/3/3 105/3/3
f 109/3/3 108/3/3 107/3/3
f 110/3/3 108/3/3 109/3/3
f 111/6/3 110/6/3 109/6/3
f 112/3/3 108/3/3 110/3/3
f 112/6/3 110/6/3 111/6/3
f 113/3/3 112/3/3 111/3/3
f 114/3/3 108/3/3 112/3/3
f 114/3/3 112/3/3 113/3/3
f 117/4/3 116/4/3 115/4/3
f 118/4/3 116/4/3 117/4/3
f 120/4/3 116/4/3 118/4/3
f 121/4/3 120/4/3 119/4/3
f 122/4/3 116/4/3 120/4/3
f 122/4/3 120/4/3 121/4/3
f 124/4/3 116/4/3 122/4/3
f 125/4/3 124/4/3 123/4/3
f 126/4/3 116/4/3 124/4/3
f 126/4/3 124/4/3 125/4/3
f 129/4/3 128/4/3 127/4/3
f 130/4/3 128/4/3 129/4/3
f 133/4/3 132/4/3 131/4/3
f 134/4/3 132/4/3 133/4/3
f 138/5/3 136/5/3 135/5/3
f 139/5/3 136/5/3 138/5/3
f 140/4/3 138/4/3 137/4/3
f 141/5/3 139/5/3 138/5/3
f 141/4/3 138/4/3 140/4/3
f 142/5/3 139/5/3 141/5/3
f 143/5/3 142/5/3 141/5/3
f 144/5/3 142/5/3 143/5/3
f 147/5/3 146/5/3 145/5/3
f 148/5/3 146/5/3 147/5/3
f 149/1/3 148/1/3 147/1/3
f 150/5/3 146/5/3 148/5/3
f 150/1/3 148/1/3 149/1/3
f 151/5/3 150/5/3 149/5/3
f 152/5/3 146/5/3 150/5/3
f 152/5/3 150/5/3 151/5/3
f 155/5/3 154/5/3 153/5/3
f 156/5/3 154/5/3 155/5/3
f 157/1/3 156/1/3 155/1/3
f 158/5/3 154/5/3 156/5/3
f 158/1/3 156/1/3 157/1/3
f 159/5/3 158/5/3 157/5/3
f 160/5/3 154/5/3 158/5/3
f 160/5/3 158/5/3 159/5/3
f 163/4/3 162/4/3 161/4/3
f 164/4/3 162/4/3 163/4/3
f 167/4/3 166/4/3 165/4/3
f 168/4/3 166/4/3 167/4/3
f 169/4/4 170/4/4 171/4/4
f 171/4/4 170/4/4 172/4/4
f 173/4/4 174/4/4 175/4/4
f 175/4/4 174/4/4 176/4/4
f 177/5/4 178/5/4 179/5/4
f 179/5/4 178/5/4 180/5/4
f 181/5/4 182/5/4 183/5/4
f 183/5/4 182/5/4 184/5/4
f 185/5/4 186/5/4 188/5/4
f 188/5/4 186/5/4 189/5/4
f 189/5/4 186/5/4 190/5/4
f 186/4/4 187/4/4 191/4/4
f 190/5/4 186/5/4 191/5/4
f 191/4/4 187/4/4 192/4/4
f 193/4/4 194/4/4 196/4/4
f 196/4/4 194/4/4 197/4/4
f 197/4/4 194/4/4 199/4/4
f 198/4/4 199/4/4 200/4/4
f 194/5/4 195/5/4 201/5/4
f 200/4/4 199/4/4 201/4/4
f 199/4/4 194/4/4 201/4/4
f 201/5/4 195/5/4 202/5/4
f 207/4/5 204/4/5 203/4/5
f 208/4/5 204/4/5 207/4/5
f 209/4/5 206/4/5 205/4/5
f 210/4/5 206/4/5 209/4/5
f 215/4/5 212/4/5 211/4/5
f 216/4/5 212/4/5 215/4/5
f 217/4/5 214/4/5 213/4/5
f 218/4/5 214/4/5 217/4/5
f 222/4/5 220/4/5 219/4/5
f 223/4/5 220/4/5 222/4/5
f 225/4/5 222/4/5 221/4/5
f 225/4/5 224/4/5 223/4/5
f 225/4/5 223/4/5 222/4/5
f 226/4/5 224/4/5 225/4/5
f 227/4/5 224/4/5 226/4/5
f 228/4/5 224/4/5 227/4/5
f 229/4/5 227/4/5 226/4/5
f 230/4/5 227/4/5 229/4/5
f 235/5/5 232/5/5 231/5/5
f 236/6/5 233/6/5 232/6/5
f 236/5/5 232/5/5 235/5/5
f 237/5/5 234/5/5 233/5/5
f 237/6/5 233/6/5 236/6/5
f 238/5/5 234/5/5 237/5/5
f 239/5/5 235/5/5 231/5/5
f 240/5/5 235/5/5 239/5/5
f 241/5/5 234/5/5 238/5/5
f 242/5/5 234/5/5 241/5/5
f 243/4/6 244/4/6 247/4/6
f 247/4/6 244/4/6 248/4/6
f 245/4/6 246/4/6 249/4/6
f 249/4/6 246/4/6 250/4/6
f 251/5/6 252/5/6 253/5/6
f 253/5/6 252/5/6 254/5/6
f 255/5/6 256/5/6 259/5/6
f 259/5/6 256/5/6 260/5/6
f 260/5/6 256/5/6 261/5/6
f 256/6/6 257/6/6 262/6/6
f 261/5/6 256/5/6 262/5/6
f 257/5/6 258/5/6 263/5/6
f 262/6/6 257/6/6 263/6/6
f 263/5/6 258/5/6 264/5/6
f 264/5/6 258/5/6 265/5/6
f 265/5/6 258/5/6 266/5/6
f 255/5/6 259/5/6 267/5/6
f 267/5/6 259/5/6 268/5/6
f 262/6/6 263/6/6 269/6/6
f 269/6/6 263/6/6 270/6/6
f 266/5/6 258/5/6 271/5/6
f 271/5/6 258/5/6 272/5/6
f 273/3/6 274/3/6 277/3/6
f 277/3/6 274/3/6 278/3/6
f 275/3/6 276/3/6 279/3/6
f 279/3/6 276/3/6 280/3/6
f 281/4/6 282/4/6 283/4/6
f 283/4/6 282/4/6 284/4/6
f 284/4/6 282/4/6 285/4/6
f 285/4/6 282/4/6 286/4/6
f 286/4/6 282/4/6 287/4/6
f 287/4/6 282/4/6 288/4/6
f 288/4/6 282/4/6 289/4/6
f 289/4/6 282/4/6 290/4/6
f 281/4/6 283/4/6 291/4/6
f 286/4/6 287/4/6 292/4/6
f 292/4/6 287/4/6 293/4/6
f 290/4/6 282/4/6 294/4/6
f 292/4/6 293/4/6 295/4/6
f 293/4/6 294/4/6 295/4/6
f 281/4/6 291/4/6 295/4/6
f 291/4/6 292/4/6 295/4/6
f 294/4/6 282/4/6 296/4/6
f 295/4/6 294/4/6 296/4/6
f 297/5/6 298/5/6 301/5/6
f 301/5/6 298/5/6 302/5/6
f 299/5/6 300/5/6 303/5/6
f 303/5/6 300/5/6 304/5/6
