# MagicaVoxel @ ephtracy

# material
mtllib dinos.mtl
usemtl palette

# normals
vn -1 0 0
vn 1 0 0
vn 0 0 1
vn 0 0 -1
vn 0 -1 0
vn 0 1 0

# texcoords
vt 0.939453 0.5
vt 0.943359 0.5
vt 0.970703 0.5
vt 0.994141 0.5

# verts
v -20 16 2
v -20 16 -4
v -20 18 2
v -20 18 -4
v -18 14 2
v -18 14 -4
v -18 16 2
v -18 16 -4
v -14 12 2
v -14 12 -4
v -14 14 2
v -14 14 -4
v -12 10 2
v -12 10 -4
v -12 12 2
v -12 12 -4
v -10 8 6
v -10 8 -8
v -10 10 2
v -10 10 -4
v -10 14 2
v -10 14 -4
v -10 20 6
v -10 20 -8
v -8 20 4
v -8 20 -6
v -8 27 4
v -8 27 -6
v -7 27 4
v -7 27 -6
v -7 29 4
v -7 29 -6
v -6 7 6
v -6 7 5
v -6 7 -7
v -6 7 -8
v -6 8 6
v -6 8 5
v -6 8 -7
v -6 8 -8
v -6 29 4
v -6 29 -6
v -6 30 4
v -6 30 -6
v -4 6 6
v -4 6 5
v -4 6 -7
v -4 6 -8
v -4 7 6
v -4 7 5
v -4 7 -7
v -4 7 -8
v -4 32 5
v -4 32 -7
v -4 46 5
v -4 46 -7
v -3 30 4
v -3 30 -6
v -3 32 4
v -3 32 -6
v -2 46 5
v -2 46 -7
v -2 48 5
v -2 48 -7
v -1 4 6
v -1 4 3
v -1 4 -5
v -1 4 -8
v -1 5 6
v -1 5 5
v -1 5 4
v -1 5 3
v -1 5 -5
v -1 5 -6
v -1 5 -7
v -1 5 -8
v -1 6 5
v -1 6 -7
v -1 10 5
v -1 10 4
v -1 10 -6
v -1 10 -7
v 2 22 5
v 2 22 4
v 2 22 -6
v 2 22 -7
v 2 28 5
v 2 28 4
v 2 28 -6
v 2 28 -7
v 10 20 5
v 10 20 3
v 10 20 -5
v 10 20 -7
v 10 22 5
v 10 22 3
v 10 22 -5
v 10 22 -7
v -18 16 2
v -18 16 -4
v -18 18 2
v -18 18 -4
v -12 14 2
v -12 14 -4
v -12 16 2
v -12 16 -4
v -2 8 5
v -2 8 2
v -2 8 -4
v -2 8 -7
v -2 10 5
v -2 10 2
v -2 10 -4
v -2 10 -7
v 0 4 6
v 0 4 5
v 0 4 4
v 0 4 3
v 0 4 -5
v 0 4 -6
v 0 4 -7
v 0 4 -8
v 0 5 6
v 0 5 5
v 0 5 4
v 0 5 3
v 0 5 -5
v 0 5 -6
v 0 5 -7
v 0 5 -8
v 0 6 6
v 0 6 5
v 0 6 -7
v 0 6 -8
v 0 10 6
v 0 10 4
v 0 10 -6
v 0 10 -8
v 0 16 6
v 0 16 4
v 0 16 -6
v 0 16 -8
v 0 20 6
v 0 20 4
v 0 20 -6
v 0 20 -8
v 1 4 5
v 1 4 4
v 1 4 -6
v 1 4 -7
v 1 5 5
v 1 5 4
v 1 5 -6
v 1 5 -7
v 4 10 6
v 4 10 2
v 4 10 -4
v 4 10 -8
v 4 12 2
v 4 12 -4
v 4 14 4
v 4 14 2
v 4 14 -4
v 4 14 -6
v 4 16 6
v 4 16 4
v 4 16 -6
v 4 16 -8
v 6 12 2
v 6 12 -4
v 6 14 4
v 6 14 2
v 6 14 -4
v 6 14 -6
v 6 22 4
v 6 22 2
v 6 22 -4
v 6 22 -6
v 6 24 5
v 6 24 4
v 6 24 -6
v 6 24 -7
v 6 28 5
v 6 28 4
v 6 28 -6
v 6 28 -7
v 6 30 4
v 6 30 -6
v 6 32 4
v 6 32 -6
v 6 34 2
v 6 34 -4
v 6 36 2
v 6 36 -4
v 8 14 2
v 8 14 -4
v 8 22 3
v 8 22 2
v 8 22 -4
v 8 22 -5
v 8 24 4
v 8 24 3
v 8 24 2
v 8 24 -4
v 8 24 -5
v 8 24 -6
v 8 30 4
v 8 30 -6
v 8 34 5
v 8 34 2
v 8 34 -4
v 8 34 -7
v 8 36 5
v 8 36 2
v 8 36 -4
v 8 36 -7
v 12 20 5
v 12 20 3
v 12 20 -5
v 12 20 -7
v 12 24 5
v 12 24 3
v 12 24 -5
v 12 24 -7
v 13 47 5
v 13 47 -7
v 13 48 5
v 13 48 -7
v 15 46 5
v 15 46 -7
v 15 47 5
v 15 47 -7
v 16 32 5
v 16 32 -7
v 16 34 5
v 16 34 -7
v 17 44 5
v 17 44 -7
v 17 46 5
v 17 46 -7
v 18 42 5
v 18 42 -7
v 18 44 5
v 18 44 -7
v 19 36 5
v 19 36 -7
v 19 38 2
v 19 38 -0
v 19 38 -2
v 19 38 -4
v 19 40 2
v 19 40 -0
v 19 40 -2
v 19 40 -4
v 19 42 5
v 19 42 -7
v -10 8 6
v -10 20 6
v -6 7 6
v -6 8 6
v -4 6 6
v -4 7 6
v -1 4 6
v -1 5 6
v 0 4 6
v 0 5 6
v 0 6 6
v 0 10 6
v 0 16 6
v 0 20 6
v 4 10 6
v 4 16 6
v -4 32 5
v -4 46 5
v -2 42 5
v -2 44 5
v -2 46 5
v -2 48 5
v -1 5 5
v -1 6 5
v 0 4 5
v 0 5 5
v 0 6 5
v 0 42 5
v 0 44 5
v 0 46 5
v 1 4 5
v 1 5 5
v 2 22 5
v 2 28 5
v 2 38 5
v 2 42 5
v 3 39 5
v 3 41 5
v 5 39 5
v 5 41 5
v 6 24 5
v 6 28 5
v 6 38 5
v 6 42 5
v 6 44 5
v 6 46 5
v 8 34 5
v 8 36 5
v 10 20 5
v 10 22 5
v 12 20 5
v 12 24 5
v 13 47 5
v 13 48 5
v 15 46 5
v 15 47 5
v 16 32 5
v 16 34 5
v 17 44 5
v 17 46 5
v 18 42 5
v 18 44 5
v 19 36 5
v 19 42 5
v -8 20 4
v -8 27 4
v -7 27 4
v -7 29 4
v -6 29 4
v -6 30 4
v -3 30 4
v -3 32 4
v 0 16 4
v 0 20 4
v 2 22 4
v 2 28 4
v 4 14 4
v 4 16 4
v 6 14 4
v 6 22 4
v 6 24 4
v 6 28 4
v 6 30 4
v 6 32 4
v 8 24 4
v 8 30 4
v -20 16 2
v -20 18 2
v -18 14 2
v -18 16 2
v -18 18 2
v -14 12 2
v -14 14 2
v -12 10 2
v -12 12 2
v -12 14 2
v -12 16 2
v -10 10 2
v -10 14 2
v 4 12 2
v 4 14 2
v 6 12 2
v 6 14 2
v 6 22 2
v 8 14 2
v 8 22 2
v 6 34 -4
v 6 36 -4
v 8 34 -4
v 8 36 -4
v -1 4 -5
v -1 5 -5
v 0 4 -5
v 0 5 -5
v 8 22 -5
v 8 24 -5
v 10 20 -5
v 10 22 -5
v 12 20 -5
v 12 24 -5
v -1 5 -6
v -1 10 -6
v 0 4 -6
v 0 5 -6
v 0 10 -6
v 1 4 -6
v 1 5 -6
v -6 7 -7
v -6 8 -7
v -4 6 -7
v -4 7 -7
v -2 8 -7
v -2 10 -7
v -1 6 -7
v -1 10 -7
v -6 7 5
v -6 8 5
v -4 6 5
v -4 7 5
v -2 8 5
v -2 10 5
v -1 6 5
v -1 10 5
v -1 5 4
v -1 10 4
v 0 4 4
v 0 5 4
v 0 10 4
v 1 4 4
v 1 5 4
v -1 4 3
v -1 5 3
v 0 4 3
v 0 5 3
v 8 22 3
v 8 24 3
v 10 20 3
v 10 22 3
v 12 20 3
v 12 24 3
v 6 34 2
v 6 36 2
v 8 34 2
v 8 36 2
v -20 16 -4
v -20 18 -4
v -18 14 -4
v -18 16 -4
v -18 18 -4
v -14 12 -4
v -14 14 -4
v -12 10 -4
v -12 12 -4
v -12 14 -4
v -12 16 -4
v -10 10 -4
v -10 14 -4
v 4 12 -4
v 4 14 -4
v 6 12 -4
v 6 14 -4
v 6 22 -4
v 8 14 -4
v 8 22 -4
v -8 20 -6
v -8 27 -6
v -7 27 -6
v -7 29 -6
v -6 29 -6
v -6 30 -6
v -3 30 -6
v -3 32 -6
v 0 16 -6
v 0 20 -6
v 2 22 -6
v 2 28 -6
v 4 14 -6
v 4 16 -6
v 6 14 -6
v 6 22 -6
v 6 24 -6
v 6 28 -6
v 6 30 -6
v 6 32 -6
v 8 24 -6
v 8 30 -6
v -4 32 -7
v -4 46 -7
v -2 42 -7
v -2 44 -7
v -2 46 -7
v -2 48 -7
v -1 5 -7
v -1 6 -7
v 0 4 -7
v 0 5 -7
v 0 6 -7
v 0 42 -7
v 0 44 -7
v 0 46 -7
v 1 4 -7
v 1 5 -7
v 2 22 -7
v 2 28 -7
v 2 38 -7
v 2 42 -7
v 3 39 -7
v 3 41 -7
v 5 39 -7
v 5 41 -7
v 6 24 -7
v 6 28 -7
v 6 38 -7
v 6 42 -7
v 6 44 -7
v 6 46 -7
v 8 34 -7
v 8 36 -7
v 10 20 -7
v 10 22 -7
v 12 20 -7
v 12 24 -7
v 13 47 -7
v 13 48 -7
v 15 46 -7
v 15 47 -7
v 16 32 -7
v 16 34 -7
v 17 44 -7
v 17 46 -7
v 18 42 -7
v 18 44 -7
v 19 36 -7
v 19 42 -7
v -10 8 -8
v -10 20 -8
v -6 7 -8
v -6 8 -8
v -4 6 -8
v -4 7 -8
v -1 4 -8
v -1 5 -8
v 0 4 -8
v 0 5 -8
v 0 6 -8
v 0 10 -8
v 0 16 -8
v 0 20 -8
v 4 10 -8
v 4 16 -8
v -1 4 6
v 0 4 6
v 0 4 5
v 1 4 5
v 0 4 4
v 1 4 4
v -1 4 3
v 0 4 3
v -1 4 -5
v 0 4 -5
v 0 4 -6
v 1 4 -6
v 0 4 -7
v 1 4 -7
v -1 4 -8
v 0 4 -8
v -4 6 6
v 0 6 6
v -4 6 5
v -1 6 5
v 0 6 5
v -4 6 -7
v -1 6 -7
v 0 6 -7
v -4 6 -8
v 0 6 -8
v -6 7 6
v -4 7 6
v -6 7 5
v -4 7 5
v -6 7 -7
v -4 7 -7
v -6 7 -8
v -4 7 -8
v -10 8 6
v -6 8 6
v -6 8 5
v -2 8 5
v -8 8 2
v -2 8 2
v -8 8 -0
v -6 8 -0
v -8 8 -2
v -6 8 -2
v -8 8 -4
v -2 8 -4
v -6 8 -7
v -2 8 -7
v -10 8 -8
v -6 8 -8
v 0 10 6
v 4 10 6
v -2 10 5
v -1 10 5
v -1 10 4
v 0 10 4
v -12 10 2
v -10 10 2
v -2 10 2
v 4 10 2
v -12 10 -4
v -10 10 -4
v -2 10 -4
v 4 10 -4
v -1 10 -6
v 0 10 -6
v -2 10 -7
v -1 10 -7
v 0 10 -8
v 4 10 -8
v -14 12 2
v -12 12 2
v 4 12 2
v 6 12 2
v -14 12 -4
v -12 12 -4
v 4 12 -4
v 6 12 -4
v 4 14 4
v 6 14 4
v -18 14 2
v -14 14 2
v 4 14 2
v 6 14 2
v 8 14 2
v -18 14 -4
v -14 14 -4
v 4 14 -4
v 6 14 -4
v 8 14 -4
v 4 14 -6
v 6 14 -6
v -20 16 2
v -18 16 2
v -20 16 -4
v -18 16 -4
v 10 20 5
v 12 20 5
v 10 20 3
v 12 20 3
v 10 20 -5
v 12 20 -5
v 10 20 -7
v 12 20 -7
v 2 22 5
v 10 22 5
v 2 22 4
v 6 22 4
v 8 22 3
v 10 22 3
v 6 22 2
v 8 22 2
v 6 22 -4
v 8 22 -4
v 8 22 -5
v 10 22 -5
v 2 22 -6
v 6 22 -6
v 2 22 -7
v 10 22 -7
v -4 32 5
v 16 32 5
v -3 32 4
v 6 32 4
v -3 32 -6
v 6 32 -6
v -4 32 -7
v 16 32 -7
v 8 36 5
v 19 36 5
v 6 36 2
v 8 36 2
v 6 36 -4
v 8 36 -4
v 8 36 -7
v 19 36 -7
v -1 5 6
v 0 5 6
v -1 5 5
v 0 5 5
v 1 5 5
v -1 5 4
v 0 5 4
v 1 5 4
v -1 5 3
v 0 5 3
v -1 5 -5
v 0 5 -5
v -1 5 -6
v 0 5 -6
v 1 5 -6
v -1 5 -7
v 0 5 -7
v 1 5 -7
v -1 5 -8
v 0 5 -8
v -12 14 2
v -10 14 2
v -12 14 -4
v -10 14 -4
v 0 16 6
v 4 16 6
v 0 16 4
v 4 16 4
v -18 16 2
v -12 16 2
v -18 16 -4
v -12 16 -4
v 0 16 -6
v 4 16 -6
v 0 16 -8
v 4 16 -8
v -20 18 2
v -18 18 2
v -20 18 -4
v -18 18 -4
v -10 20 6
v 0 20 6
v -8 20 4
v 0 20 4
v -8 20 -6
v 0 20 -6
v -10 20 -8
v 0 20 -8
v 6 24 5
v 12 24 5
v 6 24 4
v 8 24 4
v 8 24 3
v 12 24 3
v 8 24 -5
v 12 24 -5
v 6 24 -6
v 8 24 -6
v 6 24 -7
v 12 24 -7
v -8 27 4
v -7 27 4
v -8 27 -6
v -7 27 -6
v 2 28 5
v 6 28 5
v 2 28 4
v 6 28 4
v 2 28 -6
v 6 28 -6
v 2 28 -7
v 6 28 -7
v -7 29 4
v -6 29 4
v -7 29 -6
v -6 29 -6
v -6 30 4
v -3 30 4
v 6 30 4
v 8 30 4
v -6 30 -6
v -3 30 -6
v 6 30 -6
v 8 30 -6
v 8 34 5
v 16 34 5
v 6 34 2
v 8 34 2
v 6 34 -4
v 8 34 -4
v 8 34 -7
v 16 34 -7
v 18 42 5
v 19 42 5
v 18 42 -7
v 19 42 -7
v 17 44 5
v 18 44 5
v 17 44 -7
v 18 44 -7
v -4 46 5
v -2 46 5
v 15 46 5
v 17 46 5
v -4 46 -7
v -2 46 -7
v 15 46 -7
v 17 46 -7
v 13 47 5
v 15 47 5
v 13 47 -7
v 15 47 -7
v -2 48 5
v 13 48 5
v -2 48 -7
v 13 48 -7

# faces
f 3/3/1 2/3/1 1/3/1
f 4/3/1 2/3/1 3/3/1
f 7/3/1 6/3/1 5/3/1
f 8/3/1 6/3/1 7/3/1
f 11/3/1 10/3/1 9/3/1
f 12/3/1 10/3/1 11/3/1
f 15/3/1 14/3/1 13/3/1
f 16/3/1 14/3/1 15/3/1
f 19/3/1 18/3/1 17/3/1
f 20/3/1 18/3/1 19/3/1
f 21/3/1 19/3/1 17/3/1
f 22/3/1 18/3/1 20/3/1
f 23/3/1 21/3/1 17/3/1
f 23/3/1 22/3/1 21/3/1
f 24/3/1 18/3/1 22/3/1
f 24/3/1 22/3/1 23/3/1
f 27/3/1 26/3/1 25/3/1
f 28/3/1 26/3/1 27/3/1
f 31/3/1 30/3/1 29/3/1
f 32/3/1 30/3/1 31/3/1
f 37/3/1 34/3/1 33/3/1
f 38/3/1 34/3/1 37/3/1
f 39/3/1 36/3/1 35/3/1
f 40/3/1 36/3/1 39/3/1
f 43/3/1 42/3/1 41/3/1
f 44/3/1 42/3/1 43/3/1
f 49/3/1 46/3/1 45/3/1
f 50/3/1 46/3/1 49/3/1
f 51/3/1 48/3/1 47/3/1
f 52/3/1 48/3/1 51/3/1
f 55/3/1 54/3/1 53/3/1
f 56/3/1 54/3/1 55/3/1
f 59/3/1 58/3/1 57/3/1
f 60/3/1 58/3/1 59/3/1
f 63/3/1 62/3/1 61/3/1
f 64/3/1 62/3/1 63/3/1
f 69/3/1 66/3/1 65/3/1
f 70/3/1 66/3/1 69/3/1
f 71/3/1 66/3/1 70/3/1
f 72/3/1 66/3/1 71/3/1
f 73/3/1 68/3/1 67/3/1
f 74/3/1 68/3/1 73/3/1
f 75/3/1 68/3/1 74/3/1
f 76/3/1 68/3/1 75/3/1
f 77/3/1 71/3/1 70/3/1
f 78/3/1 75/3/1 74/3/1
f 79/3/1 71/3/1 77/3/1
f 80/3/1 71/3/1 79/3/1
f 81/3/1 78/3/1 74/3/1
f 82/3/1 78/3/1 81/3/1
f 87/3/1 84/3/1 83/3/1
f 88/3/1 84/3/1 87/3/1
f 89/3/1 86/3/1 85/3/1
f 90/3/1 86/3/1 89/3/1
f 95/3/1 92/3/1 91/3/1
f 96/3/1 92/3/1 95/3/1
f 97/3/1 94/3/1 93/3/1
f 98/3/1 94/3/1 97/3/1
f 99/3/2 100/3/2 101/3/2
f 101/3/2 100/3/2 102/3/2
f 103/3/2 104/3/2 105/3/2
f 105/3/2 104/3/2 106/3/2
f 107/3/2 108/3/2 111/3/2
f 108/1/2 109/1/2 112/1/2
f 111/3/2 108/3/2 112/3/2
f 109/3/2 110/3/2 113/3/2
f 112/1/2 109/1/2 113/1/2
f 113/3/2 110/3/2 114/3/2
f 115/3/2 116/3/2 123/3/2
f 123/3/2 116/3/2 124/3/2
f 117/3/2 118/3/2 125/3/2
f 125/3/2 118/3/2 126/3/2
f 119/3/2 120/3/2 127/3/2
f 127/3/2 120/3/2 128/3/2
f 121/3/2 122/3/2 129/3/2
f 129/3/2 122/3/2 130/3/2
f 124/3/2 125/3/2 132/3/2
f 128/3/2 129/3/2 133/3/2
f 131/3/2 132/3/2 135/3/2
f 132/3/2 125/3/2 136/3/2
f 135/3/2 132/3/2 136/3/2
f 133/3/2 134/3/2 137/3/2
f 128/3/2 133/3/2 137/3/2
f 137/3/2 134/3/2 138/3/2
f 139/3/2 140/3/2 143/3/2
f 143/3/2 140/3/2 144/3/2
f 141/3/2 142/3/2 145/3/2
f 145/3/2 142/3/2 146/3/2
f 147/3/2 148/3/2 151/3/2
f 151/3/2 148/3/2 152/3/2
f 149/3/2 150/3/2 153/3/2
f 153/3/2 150/3/2 154/3/2
f 155/3/2 156/3/2 159/3/2
f 156/1/2 157/1/2 159/1/2
f 157/3/2 158/3/2 160/3/2
f 159/1/2 157/1/2 160/1/2
f 155/3/2 159/3/2 161/3/2
f 161/3/2 159/3/2 162/3/2
f 160/3/2 158/3/2 163/3/2
f 163/3/2 158/3/2 164/3/2
f 155/3/2 161/3/2 165/3/2
f 165/3/2 161/3/2 166/3/2
f 164/3/2 158/3/2 167/3/2
f 167/3/2 158/3/2 168/3/2
f 169/1/2 170/1/2 172/1/2
f 172/1/2 170/1/2 173/1/2
f 171/3/2 172/3/2 175/3/2
f 175/3/2 172/3/2 176/3/2
f 173/3/2 174/3/2 177/3/2
f 177/3/2 174/3/2 178/3/2
f 179/3/2 180/3/2 183/3/2
f 183/3/2 180/3/2 184/3/2
f 181/3/2 182/3/2 185/3/2
f 185/3/2 182/3/2 186/3/2
f 187/3/2 188/3/2 189/3/2
f 189/3/2 188/3/2 190/3/2
f 191/3/2 192/3/2 193/3/2
f 193/3/2 192/3/2 194/3/2
f 195/1/2 196/1/2 198/1/2
f 198/1/2 196/1/2 199/1/2
f 197/3/2 198/3/2 202/3/2
f 198/1/2 199/1/2 203/1/2
f 202/3/2 198/3/2 203/3/2
f 199/3/2 200/3/2 204/3/2
f 203/1/2 199/1/2 204/1/2
f 204/3/2 200/3/2 205/3/2
f 202/3/2 203/3/2 207/3/2
f 205/3/2 206/3/2 207/3/2
f 204/3/2 205/3/2 207/3/2
f 203/3/2 204/3/2 207/3/2
f 201/3/2 202/3/2 207/3/2
f 207/3/2 206/3/2 208/3/2
f 209/3/2 210/3/2 213/3/2
f 213/3/2 210/3/2 214/3/2
f 211/3/2 212/3/2 215/3/2
f 215/3/2 212/3/2 216/3/2
f 217/3/2 218/3/2 221/3/2
f 221/3/2 218/3/2 222/3/2
f 219/3/2 220/3/2 223/3/2
f 223/3/2 220/3/2 224/3/2
f 225/3/2 226/3/2 227/3/2
f 227/3/2 226/3/2 228/3/2
f 229/3/2 230/3/2 231/3/2
f 231/3/2 230/3/2 232/3/2
f 233/3/2 234/3/2 235/3/2
f 235/3/2 234/3/2 236/3/2
f 237/3/2 238/3/2 239/3/2
f 239/3/2 238/3/2 240/3/2
f 241/3/2 242/3/2 243/3/2
f 243/3/2 242/3/2 244/3/2
f 245/3/2 246/3/2 247/3/2
f 247/3/2 246/3/2 248/3/2
f 248/3/2 246/3/2 249/3/2
f 249/3/2 246/3/2 250/3/2
f 245/3/2 247/3/2 251/3/2
f 247/4/2 248/4/2 251/4/2
f 248/3/2 249/3/2 252/3/2
f 251/4/2 248/4/2 252/4/2
f 249/4/2 250/4/2 253/4/2
f 252/3/2 249/3/2 253/3/2
f 250/3/2 246/3/2 254/3/2
f 253/4/2 250/4/2 254/4/2
f 252/3/2 253/3/2 255/3/2
f 251/3/2 252/3/2 255/3/2
f 253/3/2 254/3/2 255/3/2
f 245/3/2 251/3/2 255/3/2
f 254/3/2 246/3/2 256/3/2
f 255/3/2 254/3/2 256/3/2
f 260/3/3 258/3/3 257/3/3
f 262/3/3 260/3/3 259/3/3
f 265/3/3 264/3/3 263/3/3
f 266/3/3 264/3/3 265/3/3
f 267/3/3 262/3/3 261/3/3
f 268/3/3 258/3/3 260/3/3
f 268/3/3 262/3/3 267/3/3
f 268/3/3 260/3/3 262/3/3
f 269/3/3 258/3/3 268/3/3
f 270/3/3 258/3/3 269/3/3
f 271/3/3 269/3/3 268/3/3
f 272/3/3 269/3/3 271/3/3
f 275/3/3 274/3/3 273/3/3
f 276/3/3 274/3/3 275/3/3
f 277/3/3 274/3/3 276/3/3
f 282/3/3 280/3/3 279/3/3
f 283/3/3 280/3/3 282/3/3
f 284/3/3 275/3/3 273/3/3
f 284/4/3 276/4/3 275/4/3
f 285/3/3 277/3/3 276/3/3
f 285/4/3 276/4/3 284/4/3
f 285/3/3 278/3/3 277/3/3
f 286/3/3 278/3/3 285/3/3
f 287/3/3 282/3/3 281/3/3
f 288/3/3 282/3/3 287/3/3
f 291/3/3 284/3/3 273/3/3
f 291/3/3 285/3/3 284/3/3
f 292/3/3 285/3/3 291/3/3
f 293/2/3 292/2/3 291/2/3
f 294/2/3 292/2/3 293/2/3
f 295/2/3 293/2/3 291/2/3
f 295/4/3 294/4/3 293/4/3
f 296/2/3 292/2/3 294/2/3
f 296/4/3 294/4/3 295/4/3
f 297/3/3 290/3/3 289/3/3
f 298/3/3 290/3/3 297/3/3
f 299/3/3 291/3/3 273/3/3
f 299/2/3 295/2/3 291/2/3
f 299/2/3 296/2/3 295/2/3
f 300/2/3 292/2/3 296/2/3
f 300/2/3 296/2/3 299/2/3
f 300/3/3 285/3/3 292/3/3
f 301/4/3 286/4/3 285/4/3
f 301/3/3 285/3/3 300/3/3
f 302/3/3 278/3/3 286/3/3
f 302/4/3 286/4/3 301/4/3
f 303/3/3 301/3/3 300/3/3
f 303/3/3 300/3/3 299/3/3
f 303/3/3 302/3/3 301/3/3
f 303/3/3 299/3/3 273/3/3
f 304/3/3 302/3/3 303/3/3
f 306/3/3 297/3/3 289/3/3
f 307/3/3 306/3/3 305/3/3
f 308/3/3 297/3/3 306/3/3
f 308/3/3 306/3/3 307/3/3
f 309/3/3 278/3/3 302/3/3
f 309/3/3 302/3/3 304/3/3
f 310/3/3 278/3/3 309/3/3
f 311/3/3 309/3/3 304/3/3
f 312/3/3 309/3/3 311/3/3
f 313/3/3 303/3/3 273/3/3
f 314/3/3 303/3/3 313/3/3
f 315/3/3 311/3/3 304/3/3
f 316/3/3 311/3/3 315/3/3
f 317/3/3 315/3/3 304/3/3
f 318/3/3 315/3/3 317/3/3
f 319/3/3 317/3/3 304/3/3
f 320/3/3 317/3/3 319/3/3
f 323/3/3 322/3/3 321/3/3
f 325/3/3 324/3/3 323/3/3
f 327/3/3 326/3/3 325/3/3
f 330/3/3 323/3/3 321/3/3
f 330/3/3 328/3/3 327/3/3
f 330/3/3 327/3/3 325/3/3
f 330/3/3 325/3/3 323/3/3
f 331/3/3 328/3/3 330/3/3
f 331/3/3 330/3/3 329/3/3
f 332/3/3 328/3/3 331/3/3
f 334/3/3 331/3/3 329/3/3
f 335/3/3 334/3/3 333/3/3
f 336/3/3 331/3/3 334/3/3
f 336/3/3 334/3/3 335/3/3
f 338/3/3 328/3/3 332/3/3
f 339/3/3 328/3/3 338/3/3
f 340/3/3 328/3/3 339/3/3
f 341/3/3 338/3/3 337/3/3
f 341/3/3 339/3/3 338/3/3
f 342/3/3 339/3/3 341/3/3
f 346/3/3 344/3/3 343/3/3
f 347/3/3 344/3/3 346/3/3
f 349/3/3 346/3/3 345/3/3
f 351/3/3 349/3/3 348/3/3
f 352/3/3 346/3/3 349/3/3
f 352/3/3 349/3/3 351/3/3
f 353/3/3 346/3/3 352/3/3
f 354/3/3 351/3/3 350/3/3
f 354/3/3 352/3/3 351/3/3
f 355/3/3 352/3/3 354/3/3
f 358/1/3 357/1/3 356/1/3
f 359/1/3 357/1/3 358/1/3
f 361/1/3 360/1/3 359/1/3
f 362/1/3 360/1/3 361/1/3
f 365/3/3 364/3/3 363/3/3
f 366/3/3 364/3/3 365/3/3
f 369/3/3 368/3/3 367/3/3
f 370/3/3 368/3/3 369/3/3
f 374/3/3 372/3/3 371/3/3
f 375/3/3 374/3/3 373/3/3
f 376/3/3 372/3/3 374/3/3
f 376/3/3 374/3/3 375/3/3
f 380/3/3 378/3/3 377/3/3
f 381/3/3 378/3/3 380/3/3
f 382/3/3 380/3/3 379/3/3
f 383/3/3 380/3/3 382/3/3
f 387/3/3 385/3/3 384/3/3
f 388/3/3 385/3/3 387/3/3
f 388/3/3 387/3/3 386/3/3
f 390/3/3 388/3/3 386/3/3
f 390/3/3 389/3/3 388/3/3
f 391/3/3 389/3/3 390/3/3
f 392/3/4 393/3/4 395/3/4
f 395/3/4 393/3/4 396/3/4
f 394/3/4 395/3/4 396/3/4
f 394/3/4 396/3/4 398/3/4
f 396/3/4 397/3/4 398/3/4
f 398/3/4 397/3/4 399/3/4
f 400/3/4 401/3/4 403/3/4
f 403/3/4 401/3/4 404/3/4
f 402/3/4 403/3/4 405/3/4
f 405/3/4 403/3/4 406/3/4
f 407/3/4 408/3/4 409/3/4
f 409/3/4 408/3/4 410/3/4
f 411/3/4 412/3/4 414/3/4
f 413/3/4 414/3/4 415/3/4
f 414/3/4 412/3/4 416/3/4
f 415/3/4 414/3/4 416/3/4
f 417/3/4 418/3/4 419/3/4
f 419/3/4 418/3/4 420/3/4
f 421/3/4 422/3/4 424/3/4
f 424/3/4 422/3/4 425/3/4
f 423/3/4 424/3/4 427/3/4
f 426/3/4 427/3/4 429/3/4
f 427/3/4 424/3/4 430/3/4
f 429/3/4 427/3/4 430/3/4
f 430/3/4 424/3/4 431/3/4
f 428/3/4 429/3/4 432/3/4
f 429/3/4 430/3/4 432/3/4
f 432/3/4 430/3/4 433/3/4
f 434/1/4 435/1/4 436/1/4
f 436/1/4 435/1/4 437/1/4
f 437/1/4 438/1/4 439/1/4
f 439/1/4 438/1/4 440/1/4
f 441/3/4 442/3/4 443/3/4
f 443/3/4 444/3/4 445/3/4
f 445/3/4 446/3/4 447/3/4
f 441/3/4 443/3/4 450/3/4
f 447/3/4 448/3/4 450/3/4
f 445/3/4 447/3/4 450/3/4
f 443/3/4 445/3/4 450/3/4
f 450/3/4 448/3/4 451/3/4
f 449/3/4 450/3/4 451/3/4
f 451/3/4 448/3/4 452/3/4
f 449/3/4 451/3/4 454/3/4
f 453/3/4 454/3/4 455/3/4
f 454/3/4 451/3/4 456/3/4
f 455/3/4 454/3/4 456/3/4
f 452/3/4 448/3/4 458/3/4
f 458/3/4 448/3/4 459/3/4
f 459/3/4 448/3/4 460/3/4
f 457/3/4 458/3/4 461/3/4
f 458/3/4 459/3/4 461/3/4
f 461/3/4 459/3/4 462/3/4
f 463/3/4 464/3/4 465/3/4
f 465/3/4 464/3/4 466/3/4
f 466/3/4 464/3/4 467/3/4
f 469/3/4 470/3/4 472/3/4
f 472/3/4 470/3/4 473/3/4
f 463/3/4 465/3/4 474/3/4
f 465/4/4 466/4/4 474/4/4
f 466/3/4 467/3/4 475/3/4
f 474/4/4 466/4/4 475/4/4
f 467/3/4 468/3/4 475/3/4
f 475/3/4 468/3/4 476/3/4
f 471/3/4 472/3/4 477/3/4
f 477/3/4 472/3/4 478/3/4
f 463/3/4 474/3/4 481/3/4
f 474/3/4 475/3/4 481/3/4
f 481/3/4 475/3/4 482/3/4
f 481/2/4 482/2/4 483/2/4
f 483/2/4 482/2/4 484/2/4
f 481/2/4 483/2/4 485/2/4
f 483/4/4 484/4/4 485/4/4
f 484/2/4 482/2/4 486/2/4
f 485/4/4 484/4/4 486/4/4
f 479/3/4 480/3/4 487/3/4
f 487/3/4 480/3/4 488/3/4
f 463/3/4 481/3/4 489/3/4
f 481/2/4 485/2/4 489/2/4
f 485/2/4 486/2/4 489/2/4
f 486/2/4 482/2/4 490/2/4
f 489/2/4 486/2/4 490/2/4
f 482/3/4 475/3/4 490/3/4
f 475/4/4 476/4/4 491/4/4
f 490/3/4 475/3/4 491/3/4
f 476/3/4 468/3/4 492/3/4
f 491/4/4 476/4/4 492/4/4
f 490/3/4 491/3/4 493/3/4
f 489/3/4 490/3/4 493/3/4
f 491/3/4 492/3/4 493/3/4
f 463/3/4 489/3/4 493/3/4
f 493/3/4 492/3/4 494/3/4
f 479/3/4 487/3/4 496/3/4
f 495/3/4 496/3/4 497/3/4
f 496/3/4 487/3/4 498/3/4
f 497/3/4 496/3/4 498/3/4
f 492/3/4 468/3/4 499/3/4
f 494/3/4 492/3/4 499/3/4
f 499/3/4 468/3/4 500/3/4
f 494/3/4 499/3/4 501/3/4
f 501/3/4 499/3/4 502/3/4
f 463/3/4 493/3/4 503/3/4
f 503/3/4 493/3/4 504/3/4
f 494/3/4 501/3/4 505/3/4
f 505/3/4 501/3/4 506/3/4
f 494/3/4 505/3/4 507/3/4
f 507/3/4 505/3/4 508/3/4
f 494/3/4 507/3/4 509/3/4
f 509/3/4 507/3/4 510/3/4
f 511/3/4 512/3/4 514/3/4
f 513/3/4 514/3/4 516/3/4
f 517/3/4 518/3/4 519/3/4
f 519/3/4 518/3/4 520/3/4
f 515/3/4 516/3/4 521/3/4
f 514/3/4 512/3/4 522/3/4
f 521/3/4 516/3/4 522/3/4
f 516/3/4 514/3/4 522/3/4
f 522/3/4 512/3/4 523/3/4
f 523/3/4 512/3/4 524/3/4
f 522/3/4 523/3/4 525/3/4
f 525/3/4 523/3/4 526/3/4
f 529/3/5 528/3/5 527/3/5
f 531/3/5 529/3/5 527/3/5
f 531/3/5 530/3/5 529/3/5
f 532/3/5 530/3/5 531/3/5
f 533/3/5 531/3/5 527/3/5
f 534/3/5 531/3/5 533/3/5
f 537/3/5 536/3/5 535/3/5
f 539/3/5 537/3/5 535/3/5
f 539/3/5 538/3/5 537/3/5
f 540/3/5 538/3/5 539/3/5
f 541/3/5 539/3/5 535/3/5
f 542/3/5 539/3/5 541/3/5
f 545/3/5 544/3/5 543/3/5
f 546/3/5 544/3/5 545/3/5
f 547/3/5 544/3/5 546/3/5
f 551/3/5 549/3/5 548/3/5
f 551/3/5 550/3/5 549/3/5
f 552/3/5 550/3/5 551/3/5
f 555/3/5 554/3/5 553/3/5
f 556/3/5 554/3/5 555/3/5
f 559/3/5 558/3/5 557/3/5
f 560/3/5 558/3/5 559/3/5
f 563/3/5 562/3/5 561/3/5
f 565/3/5 563/3/5 561/3/5
f 565/3/5 564/3/5 563/3/5
f 566/3/5 564/3/5 565/3/5
f 567/3/5 565/3/5 561/3/5
f 567/1/5 566/1/5 565/1/5
f 568/1/5 566/1/5 567/1/5
f 569/3/5 567/3/5 561/3/5
f 569/3/5 568/3/5 567/3/5
f 570/1/5 566/1/5 568/1/5
f 570/3/5 568/3/5 569/3/5
f 571/3/5 569/3/5 561/3/5
f 571/1/5 570/1/5 569/1/5
f 572/1/5 566/1/5 570/1/5
f 572/1/5 570/1/5 571/1/5
f 573/3/5 572/3/5 571/3/5
f 574/3/5 572/3/5 573/3/5
f 575/3/5 571/3/5 561/3/5
f 575/3/5 573/3/5 571/3/5
f 576/3/5 573/3/5 575/3/5
f 581/3/5 580/3/5 579/3/5
f 582/3/5 578/3/5 577/3/5
f 585/3/5 581/3/5 579/3/5
f 585/3/5 582/3/5 581/3/5
f 586/3/5 578/3/5 582/3/5
f 586/3/5 582/3/5 585/3/5
f 587/3/5 584/3/5 583/3/5
f 588/3/5 584/3/5 587/3/5
f 589/1/5 586/1/5 585/1/5
f 590/1/5 586/1/5 589/1/5
f 591/3/5 590/3/5 589/3/5
f 592/3/5 590/3/5 591/3/5
f 593/3/5 591/3/5 589/3/5
f 594/3/5 591/3/5 593/3/5
f 595/3/5 590/3/5 592/3/5
f 596/3/5 590/3/5 595/3/5
f 601/3/5 598/3/5 597/3/5
f 602/3/5 598/3/5 601/3/5
f 603/1/5 600/1/5 599/1/5
f 604/1/5 600/1/5 603/1/5
f 609/3/5 606/3/5 605/3/5
f 610/3/5 606/3/5 609/3/5
f 612/3/5 608/3/5 607/3/5
f 613/3/5 608/3/5 612/3/5
f 615/1/5 611/1/5 610/1/5
f 616/1/5 611/1/5 615/1/5
f 617/3/5 615/3/5 614/3/5
f 618/3/5 615/3/5 617/3/5
f 621/3/5 620/3/5 619/3/5
f 622/3/5 620/3/5 621/3/5
f 625/3/5 624/3/5 623/3/5
f 626/3/5 624/3/5 625/3/5
f 629/3/5 628/3/5 627/3/5
f 630/3/5 628/3/5 629/3/5
f 633/3/5 632/3/5 631/3/5
f 634/3/5 632/3/5 633/3/5
f 635/3/5 632/3/5 634/3/5
f 636/3/5 632/3/5 635/3/5
f 637/3/5 635/3/5 634/3/5
f 638/3/5 635/3/5 637/3/5
f 641/3/5 640/3/5 639/3/5
f 644/3/5 641/3/5 639/3/5
f 644/3/5 642/3/5 641/3/5
f 645/3/5 644/3/5 643/3/5
f 646/3/5 642/3/5 644/3/5
f 646/3/5 644/3/5 645/3/5
f 649/3/5 648/3/5 647/3/5
f 650/3/5 648/3/5 649/3/5
f 651/3/5 649/3/5 647/3/5
f 652/3/5 648/3/5 650/3/5
f 653/3/5 651/3/5 647/3/5
f 653/3/5 652/3/5 651/3/5
f 654/3/5 648/3/5 652/3/5
f 654/3/5 652/3/5 653/3/5
f 658/3/5 656/3/5 655/3/5
f 659/3/5 658/3/5 657/3/5
f 660/3/5 656/3/5 658/3/5
f 660/3/5 658/3/5 659/3/5
f 661/3/5 656/3/5 660/3/5
f 662/3/5 656/3/5 661/3/5
f 663/3/6 664/3/6 665/3/6
f 665/3/6 664/3/6 666/3/6
f 666/3/6 667/3/6 669/3/6
f 669/3/6 667/3/6 670/3/6
f 668/3/6 669/3/6 671/3/6
f 671/3/6 669/3/6 672/3/6
f 673/3/6 674/3/6 675/3/6
f 675/3/6 674/3/6 676/3/6
f 676/3/6 677/3/6 679/3/6
f 679/3/6 677/3/6 680/3/6
f 678/3/6 679/3/6 681/3/6
f 681/3/6 679/3/6 682/3/6
f 683/3/6 684/3/6 685/3/6
f 685/3/6 684/3/6 686/3/6
f 687/3/6 688/3/6 689/3/6
f 689/3/6 688/3/6 690/3/6
f 691/3/6 692/3/6 693/3/6
f 693/3/6 692/3/6 694/3/6
f 695/3/6 696/3/6 697/3/6
f 697/3/6 696/3/6 698/3/6
f 699/3/6 700/3/6 701/3/6
f 701/3/6 700/3/6 702/3/6
f 703/3/6 704/3/6 705/3/6
f 705/3/6 704/3/6 706/3/6
f 703/3/6 705/3/6 707/3/6
f 703/3/6 707/3/6 709/3/6
f 707/3/6 708/3/6 709/3/6
f 709/3/6 708/3/6 710/3/6
f 711/3/6 712/3/6 713/3/6
f 713/3/6 712/3/6 714/3/6
f 714/3/6 712/3/6 715/3/6
f 715/3/6 712/3/6 716/3/6
f 717/3/6 718/3/6 720/3/6
f 719/3/6 720/3/6 721/3/6
f 720/3/6 718/3/6 722/3/6
f 721/3/6 720/3/6 722/3/6
f 723/3/6 724/3/6 725/3/6
f 725/3/6 724/3/6 726/3/6
f 727/3/6 728/3/6 729/3/6
f 729/3/6 728/3/6 730/3/6
f 731/3/6 732/3/6 733/3/6
f 733/3/6 732/3/6 734/3/6
f 735/3/6 736/3/6 737/3/6
f 737/3/6 736/3/6 738/3/6
f 739/3/6 740/3/6 743/3/6
f 743/3/6 740/3/6 744/3/6
f 741/3/6 742/3/6 745/3/6
f 745/3/6 742/3/6 746/3/6
f 747/3/6 748/3/6 750/3/6
f 749/3/6 750/3/6 751/3/6
f 750/3/6 748/3/6 752/3/6
f 751/3/6 750/3/6 752/3/6
f 752/3/6 748/3/6 753/3/6
f 753/3/6 748/3/6 754/3/6
f 755/3/6 756/3/6 757/3/6
f 757/3/6 756/3/6 758/3/6
f 759/3/6 760/3/6 761/3/6
f 761/3/6 760/3/6 762/3/6
f 763/3/6 764/3/6 767/3/6
f 767/3/6 764/3/6 768/3/6
f 765/3/6 766/3/6 769/3/6
f 769/3/6 766/3/6 770/3/6
f 771/3/6 772/3/6 773/3/6
f 773/3/6 772/3/6 774/3/6
f 775/3/6 776/3/6 777/3/6
f 777/3/6 776/3/6 778/3/6
