# Alias OBJ Model File
# Exported from SketchUp, (c) 2000-2012 Trimble Navigation Limited
# File units = meters

mtllib silindir.mtl

g Mesh1 Model

usemtl FrontColor
v 2.8463 0 19.7964
vt -112.059 -779.387
vn 0 -1 -0
v 0.951638 0 19.9773
vt -37.4661 -786.51
v -0.951638 0 19.9773
vt 37.4661 -786.51
v -2.8463 0 19.7964
vt 112.059 -779.387
v -4.71518 0 19.4362
vt 185.637 -765.206
v -6.54136 0 18.9
vt 257.534 -744.095
v -8.3083 0 18.1926
vt 327.098 -716.246
v -10 0 17.3205
vt 393.701 -681.91
v -11.6011 0 16.2915
vt 456.738 -641.398
v -13.0972 0 15.115
vt 515.638 -595.078
v -14.4747 0 13.8016
vt 569.869 -543.369
v -15.7211 0 12.3632
vt 618.939 -486.739
v -16.8251 0 10.8128
vt 662.404 -425.701
v -17.7767 0 9.16453
vt 699.87 -360.808
v -18.5674 0 7.43325
vt 730.998 -292.648
v -19.1899 0 5.63465
vt 755.506 -221.837
v -19.6386 0 3.78502
vt 773.172 -149.017
v -19.9094 0 1.90112
vt 783.836 -74.8473
v -20 0 -2.44929e-015
vt 787.402 9.64289e-014
v -19.9094 0 -1.90112
vt 783.836 74.8473
v -19.6386 0 -3.78502
vt 773.172 149.017
v -19.1899 0 -5.63465
vt 755.506 221.837
v -18.5674 0 -7.43325
vt 730.998 292.648
v -17.7767 0 -9.16453
vt 699.87 360.808
v -16.8251 0 -10.8128
vt 662.404 425.701
v -15.7211 0 -12.3632
vt 618.939 486.739
v -14.4747 0 -13.8016
vt 569.869 543.369
v -13.0972 0 -15.115
vt 515.638 595.078
v -11.6011 0 -16.2915
vt 456.738 641.398
v -10 0 -17.3205
vt 393.701 681.91
v -8.3083 0 -18.1926
vt 327.098 716.246
v -6.54136 0 -18.9
vt 257.534 744.095
v -4.71518 0 -19.4362
vt 185.637 765.206
v -2.8463 0 -19.7964
vt 112.059 779.387
v -0.951638 0 -19.9773
vt 37.4661 786.51
v 0.951638 0 -19.9773
vt -37.4661 786.51
v 2.8463 0 -19.7964
vt -112.059 779.387
v 4.71518 0 -19.4362
vt -185.637 765.206
v 6.54136 0 -18.9
vt -257.534 744.095
v 8.3083 0 -18.1926
vt -327.098 716.246
v 10 0 -17.3205
vt -393.701 681.91
v 11.6011 0 -16.2915
vt -456.738 641.398
v 13.0972 0 -15.115
vt -515.638 595.078
v 14.4747 0 -13.8016
vt -569.869 543.369
v 15.7211 0 -12.3632
vt -618.939 486.739
v 16.8251 0 -10.8128
vt -662.404 425.701
v 17.7767 0 -9.16453
vt -699.87 360.808
v 18.5674 0 -7.43325
vt -730.998 292.648
v 19.1899 0 -5.63465
vt -755.506 221.837
v 19.6386 0 -3.78502
vt -773.172 149.017
v 19.9094 0 -1.90112
vt -783.836 74.8473
v 20 0 -0
vt -787.402 0
v 19.9094 0 1.90112
vt -783.836 -74.8473
v 19.6386 0 3.78502
vt -773.172 -149.017
v 19.1899 0 5.63465
vt -755.506 -221.837
v 18.5674 0 7.43325
vt -730.998 -292.648
v 17.7767 0 9.16453
vt -699.87 -360.808
v 16.8251 0 10.8128
vt -662.404 -425.701
v 15.7211 0 12.3632
vt -618.939 -486.739
v 14.4747 0 13.8016
vt -569.869 -543.369
v 13.0972 0 15.115
vt -515.638 -595.078
v 11.6011 0 16.2915
vt -456.738 -641.398
v 10 0 17.3205
vt -393.701 -681.91
v 8.3083 0 18.1926
vt -327.098 -716.246
v 6.54136 0 18.9
vt -257.534 -744.095
v 4.71518 0 19.4362
vt -185.637 -765.206
f 1/1/1 2/2/1 3/3/1 4/4/1 5/5/1 6/6/1 7/7/1 8/8/1 9/9/1 10/10/1 11/11/1 12/12/1 13/13/1 14/14/1 15/15/1 16/16/1 17/17/1 18/18/1 19/19/1 20/20/1 21/21/1 22/22/1 23/23/1 24/24/1 25/25/1 26/26/1 27/27/1 28/28/1 29/29/1 30/30/1 31/31/1 32/32/1 33/33/1 34/34/1 35/35/1 36/36/1 37/37/1 38/38/1 39/39/1 40/40/1 41/41/1 42/42/1 43/43/1 44/44/1 45/45/1 46/46/1 47/47/1 48/48/1 49/49/1 50/50/1 51/51/1 52/52/1 53/53/1 54/54/1 55/55/1 56/56/1 57/57/1 58/58/1 59/59/1 60/60/1 61/61/1 62/62/1 63/63/1 64/64/1 65/65/1 66/66/1 

vt -37.4661 0
vn 0.0475819 0 0.998867
vt 37.4661 0
vn 0.142315 0 0.989821
v 2.8463 60 19.7964
vt 37.4661 2362.2
v 0.951638 60 19.9773
vt -37.4661 2362.2
f 2/67/2 1/68/3 67/69/3 68/70/2 

vn 0.235759 0 0.971812
v 4.71518 60 19.4362
f 1/67/3 66/68/4 69/69/4 67/70/3 

vn 0.327068 0 0.945001
v 6.54136 60 18.9
f 66/67/4 65/68/5 70/69/5 69/70/4 

vn 0.415415 0 0.909632
v 8.3083 60 18.1926
f 65/67/5 64/68/6 71/69/6 70/70/5 

vn 0.5 0 0.866025
v 10 60 17.3205
f 64/67/6 63/68/7 72/69/7 71/70/6 

vn 0.580057 0 0.814576
v 11.6011 60 16.2915
f 63/67/7 62/68/8 73/69/8 72/70/7 

vn 0.654861 0 0.75575
v 13.0972 60 15.115
f 62/67/8 61/68/9 74/69/9 73/70/8 

vn 0.723734 0 0.690079
v 14.4747 60 13.8016
f 61/67/9 60/68/10 75/69/10 74/70/9 

vn 0.786053 0 0.618159
v 15.7211 60 12.3632
f 60/67/10 59/68/11 76/69/11 75/70/10 

vn 0.841254 0 0.540641
v 16.8251 60 10.8128
f 59/67/11 58/68/12 77/69/12 76/70/11 

vn 0.888835 0 0.458227
v 17.7767 60 9.16453
f 58/67/12 57/68/13 78/69/13 77/70/12 

vn 0.928368 0 0.371662
v 18.5674 60 7.43325
f 57/67/13 56/68/14 79/69/14 78/70/13 

vn 0.959493 0 0.281733
v 19.1899 60 5.63465
f 56/67/14 55/68/15 80/69/15 79/70/14 

vn 0.981929 0 0.189251
v 19.6386 60 3.78502
f 55/67/15 54/68/16 81/69/16 80/70/15 

vn 0.995472 0 0.095056
v 19.9094 60 1.90112
f 54/67/16 53/68/17 82/69/17 81/70/16 

vn 1 0 -1.97983e-016
v 20 60 -0
f 53/67/17 52/68/18 83/69/18 82/70/17 

vn 0.995472 0 -0.095056
v 19.9094 60 -1.90112
f 52/67/18 51/68/19 84/69/19 83/70/18 

vn 0.981929 0 -0.189251
v 19.6386 60 -3.78502
f 51/67/19 50/68/20 85/69/20 84/70/19 

vn 0.959493 0 -0.281733
v 19.1899 60 -5.63465
f 50/67/20 49/68/21 86/69/21 85/70/20 

vn 0.928368 0 -0.371662
v 18.5674 60 -7.43325
f 49/67/21 48/68/22 87/69/22 86/70/21 

vn 0.888835 0 -0.458227
v 17.7767 60 -9.16453
f 48/67/22 47/68/23 88/69/23 87/70/22 

vn 0.841254 0 -0.540641
v 16.8251 60 -10.8128
f 47/67/23 46/68/24 89/69/24 88/70/23 

vn 0.786053 0 -0.618159
v 15.7211 60 -12.3632
f 46/67/24 45/68/25 90/69/25 89/70/24 

vn 0.723734 0 -0.690079
v 14.4747 60 -13.8016
f 45/67/25 44/68/26 91/69/26 90/70/25 

vn 0.654861 0 -0.75575
v 13.0972 60 -15.115
f 44/67/26 43/68/27 92/69/27 91/70/26 

vn 0.580057 0 -0.814576
v 11.6011 60 -16.2915
f 43/67/27 42/68/28 93/69/28 92/70/27 

vn 0.5 0 -0.866025
v 10 60 -17.3205
f 42/67/28 41/68/29 94/69/29 93/70/28 

vn 0.415415 0 -0.909632
v 8.3083 60 -18.1926
f 41/67/29 40/68/30 95/69/30 94/70/29 

vn 0.327068 0 -0.945001
v 6.54136 60 -18.9
f 40/67/30 39/68/31 96/69/31 95/70/30 

vn 0.235759 0 -0.971812
v 4.71518 60 -19.4362
f 39/67/31 38/68/32 97/69/32 96/70/31 

vn 0.142315 0 -0.989821
v 2.8463 60 -19.7964
f 38/67/32 37/68/33 98/69/33 97/70/32 

vn 0.0475819 0 -0.998867
v 0.951638 60 -19.9773
f 37/67/33 36/68/34 99/69/34 98/70/33 

vn -0.0475819 0 -0.998867
v -0.951638 60 -19.9773
f 36/67/34 35/68/35 100/69/35 99/70/34 

vn -0.142315 0 -0.989821
v -2.8463 60 -19.7964
f 35/67/35 34/68/36 101/69/36 100/70/35 

vn -0.235759 0 -0.971812
v -4.71518 60 -19.4362
f 34/67/36 33/68/37 102/69/37 101/70/36 

vn -0.327068 0 -0.945001
v -6.54136 60 -18.9
f 33/67/37 32/68/38 103/69/38 102/70/37 

vn -0.415415 0 -0.909632
v -8.3083 60 -18.1926
f 32/67/38 31/68/39 104/69/39 103/70/38 

vn -0.5 0 -0.866025
v -10 60 -17.3205
f 31/67/39 30/68/40 105/69/40 104/70/39 

vn -0.580057 0 -0.814576
v -11.6011 60 -16.2915
f 30/67/40 29/68/41 106/69/41 105/70/40 

vn -0.654861 0 -0.75575
v -13.0972 60 -15.115
f 29/67/41 28/68/42 107/69/42 106/70/41 

vn -0.723734 0 -0.690079
v -14.4747 60 -13.8016
f 28/67/42 27/68/43 108/69/43 107/70/42 

vn -0.786053 0 -0.618159
v -15.7211 60 -12.3632
f 27/67/43 26/68/44 109/69/44 108/70/43 

vn -0.841254 0 -0.540641
v -16.8251 60 -10.8128
f 26/67/44 25/68/45 110/69/45 109/70/44 

vn -0.888835 0 -0.458227
v -17.7767 60 -9.16453
f 25/67/45 24/68/46 111/69/46 110/70/45 

vn -0.928368 0 -0.371662
v -18.5674 60 -7.43325
f 24/67/46 23/68/47 112/69/47 111/70/46 

vn -0.959493 0 -0.281733
v -19.1899 60 -5.63465
f 23/67/47 22/68/48 113/69/48 112/70/47 

vn -0.981929 0 -0.189251
v -19.6386 60 -3.78502
f 22/67/48 21/68/49 114/69/49 113/70/48 

vn -0.995472 0 -0.095056
v -19.9094 60 -1.90112
f 21/67/49 20/68/50 115/69/50 114/70/49 

vn -1 0 -0
v -20 60 -2.44929e-015
f 20/67/50 19/68/51 116/69/51 115/70/50 

vn -0.995472 0 0.095056
v -19.9094 60 1.90112
f 19/67/51 18/68/52 117/69/52 116/70/51 

vn -0.981929 0 0.189251
v -19.6386 60 3.78502
f 18/67/52 17/68/53 118/69/53 117/70/52 

vn -0.959493 0 0.281733
v -19.1899 60 5.63465
f 17/67/53 16/68/54 119/69/54 118/70/53 

vn -0.928368 0 0.371662
v -18.5674 60 7.43325
f 16/67/54 15/68/55 120/69/55 119/70/54 

vn -0.888835 0 0.458227
v -17.7767 60 9.16453
f 15/67/55 14/68/56 121/69/56 120/70/55 

vn -0.841254 0 0.540641
v -16.8251 60 10.8128
f 14/67/56 13/68/57 122/69/57 121/70/56 

vn -0.786053 0 0.618159
v -15.7211 60 12.3632
f 13/67/57 12/68/58 123/69/58 122/70/57 

vn -0.723734 0 0.690079
v -14.4747 60 13.8016
f 12/67/58 11/68/59 124/69/59 123/70/58 

vn -0.654861 0 0.75575
v -13.0972 60 15.115
f 11/67/59 10/68/60 125/69/60 124/70/59 

vn -0.580057 0 0.814576
v -11.6011 60 16.2915
f 10/67/60 9/68/61 126/69/61 125/70/60 

vn -0.5 0 0.866025
v -10 60 17.3205
f 9/67/61 8/68/62 127/69/62 126/70/61 

vn -0.415415 0 0.909632
v -8.3083 60 18.1926
f 8/67/62 7/68/63 128/69/63 127/70/62 

vn -0.327068 0 0.945001
v -6.54136 60 18.9
f 7/67/63 6/68/64 129/69/64 128/70/63 

vn -0.235759 0 0.971812
v -4.71518 60 19.4362
f 6/67/64 5/68/65 130/69/65 129/70/64 

vn -0.142315 0 0.989821
v -2.8463 60 19.7964
f 5/67/65 4/68/66 131/69/66 130/70/65 

vn -0.0475819 0 0.998867
v -0.951638 60 19.9773
f 4/67/66 3/68/67 132/69/67 131/70/66 

f 3/67/67 2/68/2 68/69/2 132/70/67 

vn 0 1 -0
vt 787.402 0
vt -787.402 9.64289e-014
f 68/3/68 67/4/68 69/5/68 70/6/68 71/7/68 72/8/68 73/9/68 74/10/68 75/11/68 76/12/68 77/13/68 78/14/68 79/15/68 80/16/68 81/17/68 82/18/68 83/71/68 84/20/68 85/21/68 86/22/68 87/23/68 88/24/68 89/25/68 90/26/68 91/27/68 92/28/68 93/29/68 94/30/68 95/31/68 96/32/68 97/33/68 98/34/68 99/35/68 100/36/68 101/37/68 102/38/68 103/39/68 104/40/68 105/41/68 106/42/68 107/43/68 108/44/68 109/45/68 110/46/68 111/47/68 112/48/68 113/49/68 114/50/68 115/51/68 116/72/68 117/53/68 118/54/68 119/55/68 120/56/68 121/57/68 122/58/68 123/59/68 124/60/68 125/61/68 126/62/68 127/63/68 128/64/68 129/65/68 130/66/68 131/1/68 132/2/68 

