# MagicaVoxel @ ephtracy

# material
mtllib ari.mtl
usemtl palette

# normals
vn -1 0 0
vn 1 0 0
vn 0 0 1
vn 0 0 -1
vn 0 -1 0
vn 0 1 0

# texcoords
vt 0.00195313 0.5
vt 0.0136719 0.5
vt 0.0214844 0.5
vt 0.0449219 0.5
vt 0.0605469 0.5
vt 0.744141 0.5
vt 0.841797 0.5
vt 0.955078 0.5
vt 0.994141 0.5

# verts
v -28 8 2
v -28 8 -34
v -28 10 6
v -28 10 2
v -28 12 8
v -28 12 6
v -28 16 12
v -28 16 8
v -28 20 14
v -28 20 12
v -28 22 14
v -28 22 -34
v -26 22 12
v -26 22 -34
v -26 24 12
v -26 24 -34
v -24 8 32
v -24 8 16
v -24 8 12
v -24 8 8
v -24 8 2
v -24 8 -2
v -24 8 -8
v -24 8 -12
v -24 8 -18
v -24 8 -22
v -24 8 -28
v -24 8 -32
v -24 8 -40
v -24 20 14
v -24 20 12
v -24 20 8
v -24 20 2
v -24 20 -2
v -24 20 -8
v -24 20 -12
v -24 20 -18
v -24 20 -22
v -24 20 -28
v -24 20 -32
v -24 20 -34
v -24 22 14
v -24 22 12
v -24 24 12
v -24 24 8
v -24 24 2
v -24 24 -2
v -24 24 -8
v -24 24 -12
v -24 24 -18
v -24 24 -22
v -24 24 -28
v -24 24 -32
v -24 24 -34
v -24 36 32
v -24 36 16
v -24 36 12
v -24 36 8
v -24 36 2
v -24 36 -2
v -24 36 -8
v -24 36 -12
v -24 36 -18
v -24 36 -22
v -24 36 -28
v -24 36 -32
v -24 36 -40
v -22 0 8
v -22 0 2
v -22 0 -6
v -22 0 -12
v -22 0 -22
v -22 0 -28
v -22 8 8
v -22 8 2
v -22 8 -6
v -22 8 -8
v -22 8 -12
v -22 8 -22
v -22 8 -28
v -20 22 34
v -20 22 32
v -20 28 34
v -20 28 32
v -15 36 25
v -15 36 22
v -15 53 22
v -15 53 15
v -15 56 25
v -15 56 15
v 8 22 34
v 8 22 32
v 8 28 34
v 8 28 32
v 13 36 26
v 13 36 22
v 13 53 22
v 13 53 15
v 13 56 26
v 13 56 15
v 16 0 8
v 16 0 2
v 16 0 -6
v 16 0 -12
v 16 0 -22
v 16 0 -28
v 16 8 8
v 16 8 2
v 16 8 -6
v 16 8 -8
v 16 8 -12
v 16 8 -22
v 16 8 -28
v 26 8 2
v 26 8 -34
v 26 10 6
v 26 10 2
v 26 12 8
v 26 12 6
v 26 16 12
v 26 16 8
v 26 20 12
v 26 20 -34
v -26 8 2
v -26 8 -34
v -26 10 6
v -26 10 2
v -26 12 8
v -26 12 6
v -26 16 12
v -26 16 8
v -26 20 12
v -26 20 -34
v -16 0 8
v -16 0 2
v -16 0 -6
v -16 0 -12
v -16 0 -22
v -16 0 -28
v -16 8 8
v -16 8 2
v -16 8 -6
v -16 8 -8
v -16 8 -12
v -16 8 -22
v -16 8 -28
v -11 36 25
v -11 36 22
v -11 53 22
v -11 53 15
v -11 56 25
v -11 56 15
v -8 22 34
v -8 22 32
v -8 28 34
v -8 28 32
v 17 36 26
v 17 36 22
v 17 53 22
v 17 53 15
v 17 56 26
v 17 56 15
v 20 22 34
v 20 22 32
v 20 28 34
v 20 28 32
v 22 0 8
v 22 0 2
v 22 0 -6
v 22 0 -12
v 22 0 -22
v 22 0 -28
v 22 8 8
v 22 8 2
v 22 8 -6
v 22 8 -8
v 22 8 -12
v 22 8 -22
v 22 8 -28
v 24 8 32
v 24 8 16
v 24 8 12
v 24 8 8
v 24 8 2
v 24 8 -2
v 24 8 -8
v 24 8 -12
v 24 8 -18
v 24 8 -22
v 24 8 -28
v 24 8 -32
v 24 8 -40
v 24 20 14
v 24 20 12
v 24 20 8
v 24 20 2
v 24 20 -2
v 24 20 -8
v 24 20 -12
v 24 20 -18
v 24 20 -22
v 24 20 -28
v 24 20 -32
v 24 20 -34
v 24 22 14
v 24 22 12
v 24 24 12
v 24 24 8
v 24 24 2
v 24 24 -2
v 24 24 -8
v 24 24 -12
v 24 24 -18
v 24 24 -22
v 24 24 -28
v 24 24 -32
v 24 24 -34
v 24 36 32
v 24 36 16
v 24 36 12
v 24 36 8
v 24 36 2
v 24 36 -2
v 24 36 -8
v 24 36 -12
v 24 36 -18
v 24 36 -22
v 24 36 -28
v 24 36 -32
v 24 36 -40
v 26 22 12
v 26 22 -34
v 26 24 12
v 26 24 -34
v 28 8 2
v 28 8 -34
v 28 10 6
v 28 10 2
v 28 12 8
v 28 12 6
v 28 16 12
v 28 16 8
v 28 20 14
v 28 20 12
v 28 22 14
v 28 22 -34
v -20 22 34
v -20 28 34
v -8 22 34
v -8 28 34
v 8 22 34
v 8 28 34
v 20 22 34
v 20 28 34
v -24 8 32
v -24 36 32
v -22 12 32
v -22 18 32
v -20 14 32
v -20 16 32
v -20 22 32
v -20 28 32
v -8 22 32
v -8 28 32
v 8 22 32
v 8 28 32
v 20 14 32
v 20 16 32
v 20 22 32
v 20 28 32
v 22 12 32
v 22 18 32
v 24 8 32
v 24 36 32
v 13 36 26
v 13 56 26
v 17 36 26
v 17 56 26
v -15 36 25
v -15 56 25
v -11 36 25
v -11 56 25
v -28 20 14
v -28 22 14
v -24 20 14
v -24 22 14
v 24 20 14
v 24 22 14
v 28 20 14
v 28 22 14
v -28 16 12
v -28 20 12
v -26 16 12
v -26 20 12
v -26 22 12
v -26 24 12
v -24 22 12
v -24 24 12
v 24 22 12
v 24 24 12
v 26 16 12
v 26 20 12
v 26 22 12
v 26 24 12
v 28 16 12
v 28 20 12
v -28 12 8
v -28 16 8
v -26 12 8
v -26 16 8
v -22 0 8
v -22 8 8
v -16 0 8
v -16 8 8
v 16 0 8
v 16 8 8
v 22 0 8
v 22 8 8
v 26 12 8
v 26 16 8
v 28 12 8
v 28 16 8
v -28 10 6
v -28 12 6
v -26 10 6
v -26 12 6
v 26 10 6
v 26 12 6
v 28 10 6
v 28 12 6
v -28 8 2
v -28 10 2
v -26 8 2
v -26 10 2
v 26 8 2
v 26 10 2
v 28 8 2
v 28 10 2
v -22 0 -6
v -22 8 -6
v -16 0 -6
v -16 8 -6
v 16 0 -6
v 16 8 -6
v 22 0 -6
v 22 8 -6
v -22 0 -22
v -22 8 -22
v -16 0 -22
v -16 8 -22
v 16 0 -22
v 16 8 -22
v 22 0 -22
v 22 8 -22
v -15 36 22
v -15 53 22
v -11 36 22
v -11 53 22
v 13 36 22
v 13 53 22
v 17 36 22
v 17 53 22
v -15 53 15
v -15 56 15
v -11 53 15
v -11 56 15
v 13 53 15
v 13 56 15
v 17 53 15
v 17 56 15
v -22 0 2
v -22 8 2
v -16 0 2
v -16 8 2
v 16 0 2
v 16 8 2
v 22 0 2
v 22 8 2
v -22 0 -12
v -22 8 -12
v -16 0 -12
v -16 8 -12
v 16 0 -12
v 16 8 -12
v 22 0 -12
v 22 8 -12
v -22 0 -28
v -22 8 -28
v -16 0 -28
v -16 8 -28
v 16 0 -28
v 16 8 -28
v 22 0 -28
v 22 8 -28
v -28 8 -34
v -28 22 -34
v -26 8 -34
v -26 20 -34
v -26 22 -34
v -26 24 -34
v -24 20 -34
v -24 24 -34
v 24 20 -34
v 24 24 -34
v 26 8 -34
v 26 20 -34
v 26 22 -34
v 26 24 -34
v 28 8 -34
v 28 22 -34
v -24 8 -40
v -24 36 -40
v 24 8 -40
v 24 36 -40
v -22 0 8
v -16 0 8
v 16 0 8
v 22 0 8
v -22 0 2
v -16 0 2
v 16 0 2
v 22 0 2
v -22 0 -6
v -16 0 -6
v 16 0 -6
v 22 0 -6
v -22 0 -12
v -16 0 -12
v 16 0 -12
v 22 0 -12
v -22 0 -22
v -16 0 -22
v 16 0 -22
v 22 0 -22
v -22 0 -28
v -16 0 -28
v 16 0 -28
v 22 0 -28
v -24 8 32
v 24 8 32
v -24 8 16
v 24 8 16
v -24 8 12
v 24 8 12
v -24 8 8
v -22 8 8
v -16 8 8
v 16 8 8
v 22 8 8
v 24 8 8
v -28 8 2
v -26 8 2
v -24 8 2
v -22 8 2
v -16 8 2
v 16 8 2
v 22 8 2
v 24 8 2
v 26 8 2
v 28 8 2
v -24 8 -2
v 24 8 -2
v -22 8 -6
v -16 8 -6
v 16 8 -6
v 22 8 -6
v -24 8 -8
v -22 8 -8
v -16 8 -8
v 16 8 -8
v 22 8 -8
v 24 8 -8
v -24 8 -12
v -22 8 -12
v -16 8 -12
v 16 8 -12
v 22 8 -12
v 24 8 -12
v -24 8 -18
v 24 8 -18
v -24 8 -22
v -22 8 -22
v -16 8 -22
v 16 8 -22
v 22 8 -22
v 24 8 -22
v -24 8 -28
v -22 8 -28
v -16 8 -28
v 16 8 -28
v 22 8 -28
v 24 8 -28
v -24 8 -32
v 24 8 -32
v -28 8 -34
v -26 8 -34
v 26 8 -34
v 28 8 -34
v -24 8 -40
v 24 8 -40
v -28 10 6
v -26 10 6
v 26 10 6
v 28 10 6
v -28 10 2
v -26 10 2
v 26 10 2
v 28 10 2
v -28 12 8
v -26 12 8
v 26 12 8
v 28 12 8
v -28 12 6
v -26 12 6
v 26 12 6
v 28 12 6
v -28 16 12
v -26 16 12
v 26 16 12
v 28 16 12
v -28 16 8
v -26 16 8
v 26 16 8
v 28 16 8
v -28 20 14
v -24 20 14
v 24 20 14
v 28 20 14
v -28 20 12
v -26 20 12
v -24 20 12
v 24 20 12
v 26 20 12
v 28 20 12
v -24 20 8
v 24 20 8
v -24 20 2
v 24 20 2
v -24 20 -2
v 24 20 -2
v -24 20 -8
v 24 20 -8
v -24 20 -12
v 24 20 -12
v -24 20 -18
v 24 20 -18
v -24 20 -22
v 24 20 -22
v -24 20 -28
v 24 20 -28
v -24 20 -32
v 24 20 -32
v -26 20 -34
v -24 20 -34
v 24 20 -34
v 26 20 -34
v -20 22 34
v -8 22 34
v 8 22 34
v 20 22 34
v -20 22 32
v -8 22 32
v 8 22 32
v 20 22 32
v -15 53 22
v -11 53 22
v 13 53 22
v 17 53 22
v -15 53 15
v -11 53 15
v 13 53 15
v 17 53 15
v -28 22 14
v -24 22 14
v 24 22 14
v 28 22 14
v -26 22 12
v -24 22 12
v 24 22 12
v 26 22 12
v -28 22 -34
v -26 22 -34
v 26 22 -34
v 28 22 -34
v -26 24 12
v -24 24 12
v 24 24 12
v 26 24 12
v -24 24 8
v 24 24 8
v -24 24 2
v 24 24 2
v -24 24 -2
v 24 24 -2
v -24 24 -8
v 24 24 -8
v -24 24 -12
v 24 24 -12
v -24 24 -18
v 24 24 -18
v -24 24 -22
v 24 24 -22
v -24 24 -28
v 24 24 -28
v -24 24 -32
v 24 24 -32
v -26 24 -34
v -24 24 -34
v 24 24 -34
v 26 24 -34
v -20 28 34
v -8 28 34
v 8 28 34
v 20 28 34
v -20 28 32
v -8 28 32
v 8 28 32
v 20 28 32
v -24 36 32
v 24 36 32
v 13 36 26
v 17 36 26
v -15 36 25
v -11 36 25
v -15 36 22
v -11 36 22
v 13 36 22
v 17 36 22
v -24 36 16
v 24 36 16
v -24 36 12
v 24 36 12
v -24 36 8
v 24 36 8
v -24 36 2
v 24 36 2
v -24 36 -2
v 24 36 -2
v -24 36 -8
v 24 36 -8
v -24 36 -12
v 24 36 -12
v -24 36 -18
v 24 36 -18
v -24 36 -22
v 24 36 -22
v -24 36 -28
v 24 36 -28
v -24 36 -32
v 24 36 -32
v -24 36 -40
v 24 36 -40
v 13 56 26
v 17 56 26
v -15 56 25
v -11 56 25
v -15 56 15
v -11 56 15
v 13 56 15
v 17 56 15

# faces
f 4/1/1 2/1/1 1/1/1
f 6/1/1 4/1/1 3/1/1
f 8/1/1 6/1/1 5/1/1
f 10/1/1 8/1/1 7/1/1
f 11/1/1 10/1/1 9/1/1
f 12/1/1 2/1/1 4/1/1
f 12/1/1 10/1/1 11/1/1
f 12/1/1 4/1/1 6/1/1
f 12/1/1 8/1/1 10/1/1
f 12/1/1 6/1/1 8/1/1
f 15/1/1 14/1/1 13/1/1
f 16/1/1 14/1/1 15/1/1
f 30/3/1 19/3/1 18/3/1
f 31/8/1 20/8/1 19/8/1
f 31/3/1 19/3/1 30/3/1
f 32/3/1 21/3/1 20/3/1
f 32/8/1 20/8/1 31/8/1
f 33/8/1 22/8/1 21/8/1
f 33/3/1 21/3/1 32/3/1
f 34/3/1 23/3/1 22/3/1
f 34/8/1 22/8/1 33/8/1
f 35/8/1 24/8/1 23/8/1
f 35/3/1 23/3/1 34/3/1
f 36/3/1 25/3/1 24/3/1
f 36/8/1 24/8/1 35/8/1
f 37/8/1 26/8/1 25/8/1
f 37/3/1 25/3/1 36/3/1
f 38/3/1 27/3/1 26/3/1
f 38/8/1 26/8/1 37/8/1
f 39/8/1 28/8/1 27/8/1
f 39/3/1 27/3/1 38/3/1
f 40/3/1 29/3/1 28/3/1
f 40/8/1 28/8/1 39/8/1
f 41/3/1 29/3/1 40/3/1
f 42/3/1 30/3/1 18/3/1
f 44/3/1 43/3/1 42/3/1
f 54/3/1 29/3/1 41/3/1
f 55/2/1 18/2/1 17/2/1
f 56/3/1 42/3/1 18/3/1
f 56/2/1 18/2/1 55/2/1
f 56/3/1 44/3/1 42/3/1
f 57/8/1 45/8/1 44/8/1
f 57/3/1 44/3/1 56/3/1
f 58/3/1 46/3/1 45/3/1
f 58/8/1 45/8/1 57/8/1
f 59/8/1 47/8/1 46/8/1
f 59/3/1 46/3/1 58/3/1
f 60/3/1 48/3/1 47/3/1
f 60/8/1 47/8/1 59/8/1
f 61/8/1 49/8/1 48/8/1
f 61/3/1 48/3/1 60/3/1
f 62/3/1 50/3/1 49/3/1
f 62/8/1 49/8/1 61/8/1
f 63/8/1 51/8/1 50/8/1
f 63/3/1 50/3/1 62/3/1
f 64/3/1 52/3/1 51/3/1
f 64/8/1 51/8/1 63/8/1
f 65/8/1 53/8/1 52/8/1
f 65/3/1 52/3/1 64/3/1
f 66/3/1 54/3/1 53/3/1
f 66/8/1 53/8/1 65/8/1
f 67/3/1 29/3/1 54/3/1
f 67/3/1 54/3/1 66/3/1
f 74/9/1 69/9/1 68/9/1
f 75/9/1 69/9/1 74/9/1
f 76/9/1 71/9/1 70/9/1
f 77/9/1 71/9/1 76/9/1
f 78/9/1 71/9/1 77/9/1
f 79/9/1 73/9/1 72/9/1
f 80/9/1 73/9/1 79/9/1
f 83/9/1 82/9/1 81/9/1
f 84/9/1 82/9/1 83/9/1
f 87/9/1 86/9/1 85/9/1
f 89/9/1 87/9/1 85/9/1
f 89/9/1 88/9/1 87/9/1
f 90/9/1 88/9/1 89/9/1
f 93/9/1 92/9/1 91/9/1
f 94/9/1 92/9/1 93/9/1
f 97/9/1 96/9/1 95/9/1
f 99/9/1 97/9/1 95/9/1
f 99/9/1 98/9/1 97/9/1
f 100/9/1 98/9/1 99/9/1
f 107/9/1 102/9/1 101/9/1
f 108/9/1 102/9/1 107/9/1
f 109/9/1 104/9/1 103/9/1
f 110/9/1 104/9/1 109/9/1
f 111/9/1 104/9/1 110/9/1
f 112/9/1 106/9/1 105/9/1
f 113/9/1 106/9/1 112/9/1
f 117/1/1 115/1/1 114/1/1
f 119/1/1 117/1/1 116/1/1
f 121/1/1 119/1/1 118/1/1
f 122/1/1 121/1/1 120/1/1
f 123/1/1 115/1/1 117/1/1
f 123/1/1 121/1/1 122/1/1
f 123/1/1 117/1/1 119/1/1
f 123/1/1 119/1/1 121/1/1
f 124/1/2 125/1/2 127/1/2
f 126/1/2 127/1/2 129/1/2
f 128/1/2 129/1/2 131/1/2
f 130/1/2 131/1/2 132/1/2
f 127/1/2 125/1/2 133/1/2
f 132/1/2 131/1/2 133/1/2
f 129/1/2 127/1/2 133/1/2
f 131/1/2 129/1/2 133/1/2
f 134/9/2 135/9/2 140/9/2
f 140/9/2 135/9/2 141/9/2
f 136/9/2 137/9/2 142/9/2
f 142/9/2 137/9/2 143/9/2
f 143/9/2 137/9/2 144/9/2
f 138/9/2 139/9/2 145/9/2
f 145/9/2 139/9/2 146/9/2
f 147/9/2 148/9/2 149/9/2
f 147/9/2 149/9/2 151/9/2
f 149/9/2 150/9/2 151/9/2
f 151/9/2 150/9/2 152/9/2
f 153/9/2 154/9/2 155/9/2
f 155/9/2 154/9/2 156/9/2
f 157/9/2 158/9/2 159/9/2
f 157/9/2 159/9/2 161/9/2
f 159/9/2 160/9/2 161/9/2
f 161/9/2 160/9/2 162/9/2
f 163/9/2 164/9/2 165/9/2
f 165/9/2 164/9/2 166/9/2
f 167/9/2 168/9/2 173/9/2
f 173/9/2 168/9/2 174/9/2
f 169/9/2 170/9/2 175/9/2
f 175/9/2 170/9/2 176/9/2
f 176/9/2 170/9/2 177/9/2
f 171/9/2 172/9/2 178/9/2
f 178/9/2 172/9/2 179/9/2
f 181/3/2 182/3/2 193/3/2
f 182/8/2 183/8/2 194/8/2
f 193/3/2 182/3/2 194/3/2
f 183/3/2 184/3/2 195/3/2
f 194/8/2 183/8/2 195/8/2
f 184/8/2 185/8/2 196/8/2
f 195/3/2 184/3/2 196/3/2
f 185/3/2 186/3/2 197/3/2
f 196/8/2 185/8/2 197/8/2
f 186/8/2 187/8/2 198/8/2
f 197/3/2 186/3/2 198/3/2
f 187/3/2 188/3/2 199/3/2
f 198/8/2 187/8/2 199/8/2
f 188/8/2 189/8/2 200/8/2
f 199/3/2 188/3/2 200/3/2
f 189/3/2 190/3/2 201/3/2
f 200/8/2 189/8/2 201/8/2
f 190/8/2 191/8/2 202/8/2
f 201/3/2 190/3/2 202/3/2
f 191/3/2 192/3/2 203/3/2
f 202/8/2 191/8/2 203/8/2
f 203/3/2 192/3/2 204/3/2
f 181/3/2 193/3/2 205/3/2
f 205/3/2 206/3/2 207/3/2
f 204/3/2 192/3/2 217/3/2
f 180/2/2 181/2/2 218/2/2
f 181/3/2 205/3/2 219/3/2
f 218/2/2 181/2/2 219/2/2
f 205/3/2 207/3/2 219/3/2
f 207/8/2 208/8/2 220/8/2
f 219/3/2 207/3/2 220/3/2
f 208/3/2 209/3/2 221/3/2
f 220/8/2 208/8/2 221/8/2
f 209/8/2 210/8/2 222/8/2
f 221/3/2 209/3/2 222/3/2
f 210/3/2 211/3/2 223/3/2
f 222/8/2 210/8/2 223/8/2
f 211/8/2 212/8/2 224/8/2
f 223/3/2 211/3/2 224/3/2
f 212/3/2 213/3/2 225/3/2
f 224/8/2 212/8/2 225/8/2
f 213/8/2 214/8/2 226/8/2
f 225/3/2 213/3/2 226/3/2
f 214/3/2 215/3/2 227/3/2
f 226/8/2 214/8/2 227/8/2
f 215/8/2 216/8/2 228/8/2
f 227/3/2 215/3/2 228/3/2
f 216/3/2 217/3/2 229/3/2
f 228/8/2 216/8/2 229/8/2
f 217/3/2 192/3/2 230/3/2
f 229/3/2 217/3/2 230/3/2
f 231/1/2 232/1/2 233/1/2
f 233/1/2 232/1/2 234/1/2
f 235/1/2 236/1/2 238/1/2
f 237/1/2 238/1/2 240/1/2
f 239/1/2 240/1/2 242/1/2
f 241/1/2 242/1/2 244/1/2
f 243/1/2 244/1/2 245/1/2
f 238/1/2 236/1/2 246/1/2
f 245/1/2 244/1/2 246/1/2
f 240/1/2 238/1/2 246/1/2
f 244/1/2 242/1/2 246/1/2
f 242/1/2 240/1/2 246/1/2
f 249/9/3 248/9/3 247/9/3
f 250/9/3 248/9/3 249/9/3
f 253/9/3 252/9/3 251/9/3
f 254/9/3 252/9/3 253/9/3
f 257/2/3 256/2/3 255/2/3
f 258/2/3 256/2/3 257/2/3
f 259/4/3 258/4/3 257/4/3
f 260/4/3 258/4/3 259/4/3
f 261/2/3 256/2/3 258/2/3
f 262/2/3 256/2/3 261/2/3
f 263/2/3 261/2/3 258/2/3
f 264/2/3 256/2/3 262/2/3
f 265/2/3 263/2/3 258/2/3
f 265/2/3 264/2/3 263/2/3
f 266/2/3 256/2/3 264/2/3
f 266/2/3 264/2/3 265/2/3
f 267/4/3 259/4/3 257/4/3
f 267/7/3 260/7/3 259/7/3
f 268/4/3 258/4/3 260/4/3
f 268/7/3 260/7/3 267/7/3
f 269/2/3 265/2/3 258/2/3
f 270/2/3 256/2/3 266/2/3
f 271/2/3 257/2/3 255/2/3
f 271/4/3 267/4/3 257/4/3
f 271/4/3 268/4/3 267/4/3
f 272/2/3 270/2/3 269/2/3
f 272/4/3 268/4/3 271/4/3
f 272/2/3 269/2/3 258/2/3
f 272/4/3 258/4/3 268/4/3
f 273/2/3 271/2/3 255/2/3
f 273/2/3 272/2/3 271/2/3
f 274/2/3 270/2/3 272/2/3
f 274/2/3 272/2/3 273/2/3
f 274/2/3 256/2/3 270/2/3
f 277/9/3 276/9/3 275/9/3
f 278/9/3 276/9/3 277/9/3
f 281/9/3 280/9/3 279/9/3
f 282/9/3 280/9/3 281/9/3
f 285/1/3 284/1/3 283/1/3
f 286/1/3 284/1/3 285/1/3
f 289/1/3 288/1/3 287/1/3
f 290/1/3 288/1/3 289/1/3
f 293/1/3 292/1/3 291/1/3
f 294/1/3 292/1/3 293/1/3
f 297/1/3 296/1/3 295/1/3
f 298/1/3 296/1/3 297/1/3
f 303/1/3 300/1/3 299/1/3
f 304/1/3 300/1/3 303/1/3
f 305/1/3 302/1/3 301/1/3
f 306/1/3 302/1/3 305/1/3
f 309/1/3 308/1/3 307/1/3
f 310/1/3 308/1/3 309/1/3
f 313/9/3 312/9/3 311/9/3
f 314/9/3 312/9/3 313/9/3
f 317/9/3 316/9/3 315/9/3
f 318/9/3 316/9/3 317/9/3
f 321/1/3 320/1/3 319/1/3
f 322/1/3 320/1/3 321/1/3
f 325/1/3 324/1/3 323/1/3
f 326/1/3 324/1/3 325/1/3
f 329/1/3 328/1/3 327/1/3
f 330/1/3 328/1/3 329/1/3
f 333/1/3 332/1/3 331/1/3
f 334/1/3 332/1/3 333/1/3
f 337/1/3 336/1/3 335/1/3
f 338/1/3 336/1/3 337/1/3
f 341/9/3 340/9/3 339/9/3
f 342/9/3 340/9/3 341/9/3
f 345/9/3 344/9/3 343/9/3
f 346/9/3 344/9/3 345/9/3
f 349/9/3 348/9/3 347/9/3
f 350/9/3 348/9/3 349/9/3
f 353/9/3 352/9/3 351/9/3
f 354/9/3 352/9/3 353/9/3
f 355/9/4 356/9/4 357/9/4
f 357/9/4 356/9/4 358/9/4
f 359/9/4 360/9/4 361/9/4
f 361/9/4 360/9/4 362/9/4
f 363/9/4 364/9/4 365/9/4
f 365/9/4 364/9/4 366/9/4
f 367/9/4 368/9/4 369/9/4
f 369/9/4 368/9/4 370/9/4
f 371/9/4 372/9/4 373/9/4
f 373/9/4 372/9/4 374/9/4
f 375/9/4 376/9/4 377/9/4
f 377/9/4 376/9/4 378/9/4
f 379/9/4 380/9/4 381/9/4
f 381/9/4 380/9/4 382/9/4
f 383/9/4 384/9/4 385/9/4
f 385/9/4 384/9/4 386/9/4
f 387/9/4 388/9/4 389/9/4
f 389/9/4 388/9/4 390/9/4
f 391/9/4 392/9/4 393/9/4
f 393/9/4 392/9/4 394/9/4
f 395/1/4 396/1/4 397/1/4
f 397/1/4 396/1/4 398/1/4
f 398/1/4 396/1/4 399/1/4
f 399/1/4 400/1/4 401/1/4
f 398/1/4 399/1/4 401/1/4
f 401/1/4 400/1/4 402/1/4
f 403/1/4 404/1/4 406/1/4
f 406/1/4 404/1/4 407/1/4
f 407/1/4 404/1/4 408/1/4
f 405/1/4 406/1/4 409/1/4
f 406/1/4 407/1/4 409/1/4
f 409/1/4 407/1/4 410/1/4
f 411/3/4 412/3/4 413/3/4
f 413/3/4 412/3/4 414/3/4
f 419/9/5 416/9/5 415/9/5
f 420/9/5 416/9/5 419/9/5
f 421/9/5 418/9/5 417/9/5
f 422/9/5 418/9/5 421/9/5
f 427/9/5 424/9/5 423/9/5
f 428/9/5 424/9/5 427/9/5
f 429/9/5 426/9/5 425/9/5
f 430/9/5 426/9/5 429/9/5
f 435/9/5 432/9/5 431/9/5
f 436/9/5 432/9/5 435/9/5
f 437/9/5 434/9/5 433/9/5
f 438/9/5 434/9/5 437/9/5
f 441/2/5 440/2/5 439/2/5
f 442/2/5 440/2/5 441/2/5
f 443/3/5 442/3/5 441/3/5
f 444/3/5 442/3/5 443/3/5
f 445/8/5 444/8/5 443/8/5
f 446/8/5 444/8/5 445/8/5
f 447/8/5 444/8/5 446/8/5
f 448/8/5 444/8/5 447/8/5
f 449/8/5 444/8/5 448/8/5
f 450/8/5 444/8/5 449/8/5
f 453/3/5 446/3/5 445/3/5
f 454/3/5 446/3/5 453/3/5
f 455/3/5 448/3/5 447/3/5
f 456/3/5 448/3/5 455/3/5
f 457/3/5 450/3/5 449/3/5
f 458/3/5 450/3/5 457/3/5
f 461/8/5 458/8/5 457/8/5
f 461/8/5 457/8/5 456/8/5
f 461/8/5 455/8/5 454/8/5
f 461/8/5 454/8/5 453/8/5
f 461/8/5 456/8/5 455/8/5
f 462/8/5 458/8/5 461/8/5
f 463/3/5 462/3/5 461/3/5
f 464/3/5 462/3/5 463/3/5
f 465/3/5 462/3/5 464/3/5
f 466/3/5 462/3/5 465/3/5
f 467/3/5 463/3/5 461/3/5
f 468/3/5 463/3/5 467/3/5
f 469/3/5 465/3/5 464/3/5
f 470/3/5 465/3/5 469/3/5
f 471/3/5 462/3/5 466/3/5
f 472/3/5 462/3/5 471/3/5
f 473/8/5 468/8/5 467/8/5
f 474/8/5 468/8/5 473/8/5
f 475/8/5 470/8/5 469/8/5
f 476/8/5 470/8/5 475/8/5
f 477/8/5 472/8/5 471/8/5
f 478/8/5 472/8/5 477/8/5
f 479/3/5 474/3/5 473/3/5
f 479/3/5 476/3/5 475/3/5
f 479/3/5 478/3/5 477/3/5
f 479/3/5 477/3/5 476/3/5
f 479/3/5 475/3/5 474/3/5
f 480/3/5 478/3/5 479/3/5
f 481/8/5 480/8/5 479/8/5
f 482/8/5 480/8/5 481/8/5
f 483/8/5 480/8/5 482/8/5
f 484/8/5 480/8/5 483/8/5
f 485/8/5 480/8/5 484/8/5
f 486/8/5 480/8/5 485/8/5
f 487/3/5 482/3/5 481/3/5
f 488/3/5 482/3/5 487/3/5
f 489/3/5 484/3/5 483/3/5
f 490/3/5 484/3/5 489/3/5
f 491/3/5 486/3/5 485/3/5
f 492/3/5 486/3/5 491/3/5
f 493/8/5 490/8/5 489/8/5
f 493/8/5 488/8/5 487/8/5
f 493/8/5 492/8/5 491/8/5
f 493/8/5 491/8/5 490/8/5
f 493/8/5 489/8/5 488/8/5
f 494/8/5 492/8/5 493/8/5
f 495/1/5 452/1/5 451/1/5
f 496/1/5 452/1/5 495/1/5
f 497/1/5 460/1/5 459/1/5
f 498/1/5 460/1/5 497/1/5
f 499/3/5 494/3/5 493/3/5
f 500/3/5 494/3/5 499/3/5
f 505/1/5 502/1/5 501/1/5
f 506/1/5 502/1/5 505/1/5
f 507/1/5 504/1/5 503/1/5
f 508/1/5 504/1/5 507/1/5
f 513/1/5 510/1/5 509/1/5
f 514/1/5 510/1/5 513/1/5
f 515/1/5 512/1/5 511/1/5
f 516/1/5 512/1/5 515/1/5
f 521/1/5 518/1/5 517/1/5
f 522/1/5 518/1/5 521/1/5
f 523/1/5 520/1/5 519/1/5
f 524/1/5 520/1/5 523/1/5
f 529/1/5 526/1/5 525/1/5
f 530/1/5 526/1/5 529/1/5
f 531/1/5 526/1/5 530/1/5
f 532/1/5 528/1/5 527/1/5
f 533/1/5 528/1/5 532/1/5
f 534/1/5 528/1/5 533/1/5
f 535/1/5 531/1/5 530/1/5
f 536/1/5 533/1/5 532/1/5
f 537/1/5 535/1/5 530/1/5
f 538/1/5 533/1/5 536/1/5
f 539/1/5 537/1/5 530/1/5
f 540/1/5 533/1/5 538/1/5
f 541/1/5 539/1/5 530/1/5
f 542/1/5 533/1/5 540/1/5
f 543/1/5 541/1/5 530/1/5
f 544/1/5 533/1/5 542/1/5
f 545/1/5 543/1/5 530/1/5
f 546/1/5 533/1/5 544/1/5
f 547/1/5 545/1/5 530/1/5
f 548/1/5 533/1/5 546/1/5
f 549/1/5 547/1/5 530/1/5
f 550/1/5 533/1/5 548/1/5
f 551/1/5 549/1/5 530/1/5
f 552/1/5 533/1/5 550/1/5
f 553/1/5 551/1/5 530/1/5
f 554/1/5 551/1/5 553/1/5
f 555/1/5 533/1/5 552/1/5
f 556/1/5 533/1/5 555/1/5
f 561/9/5 558/9/5 557/9/5
f 562/9/5 558/9/5 561/9/5
f 563/9/5 560/9/5 559/9/5
f 564/9/5 560/9/5 563/9/5
f 569/9/5 566/9/5 565/9/5
f 570/9/5 566/9/5 569/9/5
f 571/9/5 568/9/5 567/9/5
f 572/9/5 568/9/5 571/9/5
f 573/1/6 574/1/6 577/1/6
f 577/1/6 574/1/6 578/1/6
f 575/1/6 576/1/6 579/1/6
f 579/1/6 576/1/6 580/1/6
f 573/1/6 577/1/6 581/1/6
f 581/1/6 577/1/6 582/1/6
f 580/1/6 576/1/6 583/1/6
f 583/1/6 576/1/6 584/1/6
f 585/1/6 586/1/6 589/1/6
f 587/1/6 588/1/6 590/1/6
f 585/1/6 589/1/6 591/1/6
f 590/1/6 588/1/6 592/1/6
f 585/1/6 591/1/6 593/1/6
f 592/1/6 588/1/6 594/1/6
f 585/1/6 593/1/6 595/1/6
f 594/1/6 588/1/6 596/1/6
f 585/1/6 595/1/6 597/1/6
f 596/1/6 588/1/6 598/1/6
f 585/1/6 597/1/6 599/1/6
f 598/1/6 588/1/6 600/1/6
f 585/1/6 599/1/6 601/1/6
f 600/1/6 588/1/6 602/1/6
f 585/1/6 601/1/6 603/1/6
f 602/1/6 588/1/6 604/1/6
f 585/1/6 603/1/6 605/1/6
f 604/1/6 588/1/6 606/1/6
f 585/1/6 605/1/6 607/1/6
f 607/1/6 605/1/6 608/1/6
f 606/1/6 588/1/6 609/1/6
f 609/1/6 588/1/6 610/1/6
f 611/9/6 612/9/6 615/9/6
f 615/9/6 612/9/6 616/9/6
f 613/9/6 614/9/6 617/9/6
f 617/9/6 614/9/6 618/9/6
f 619/2/6 620/2/6 621/2/6
f 621/2/6 620/2/6 622/2/6
f 619/2/6 621/2/6 623/2/6
f 623/2/6 621/2/6 624/2/6
f 619/2/6 623/2/6 625/2/6
f 624/2/6 621/2/6 626/2/6
f 626/2/6 621/2/6 627/2/6
f 622/2/6 620/2/6 628/2/6
f 626/2/6 627/2/6 629/2/6
f 627/2/6 628/2/6 629/2/6
f 619/2/6 625/2/6 629/2/6
f 625/2/6 626/2/6 629/2/6
f 628/2/6 620/2/6 630/2/6
f 629/2/6 628/2/6 630/2/6
f 629/3/6 630/3/6 631/3/6
f 631/3/6 630/3/6 632/3/6
f 631/8/6 632/8/6 633/8/6
f 633/8/6 632/8/6 634/8/6
f 633/3/6 634/3/6 635/3/6
f 635/3/6 634/3/6 636/3/6
f 635/8/6 636/8/6 637/8/6
f 637/8/6 636/8/6 638/8/6
f 637/3/6 638/3/6 639/3/6
f 639/3/6 638/3/6 640/3/6
f 639/8/6 640/8/6 641/8/6
f 641/8/6 640/8/6 642/8/6
f 641/3/6 642/3/6 643/3/6
f 643/3/6 642/3/6 644/3/6
f 643/8/6 644/8/6 645/8/6
f 645/8/6 644/8/6 646/8/6
f 645/3/6 646/3/6 647/3/6
f 647/3/6 646/3/6 648/3/6
f 647/8/6 648/8/6 649/8/6
f 649/8/6 648/8/6 650/8/6
f 649/3/6 650/3/6 651/3/6
f 651/3/6 650/3/6 652/3/6
f 655/9/6 656/9/6 657/9/6
f 657/9/6 656/9/6 658/9/6
f 653/9/6 654/9/6 659/9/6
f 659/9/6 654/9/6 660/9/6
