# MagicaVoxel @ ephtracy

# material
mtllib civciv.mtl
usemtl palette

# normals
vn -1 0 0
vn 1 0 0
vn 0 0 1
vn 0 0 -1
vn 0 -1 0
vn 0 1 0

# texcoords
vt 0.0449219 0.5
vt 0.0917969 0.5
vt 0.955078 0.5
vt 0.958984 0.5

# verts
v -10 10 -1
v -10 10 -9
v -10 12 1
v -10 12 -1
v -10 12 -7
v -10 12 -9
v -10 14 -5
v -10 14 -7
v -10 16 1
v -10 16 -5
v -8 2 3
v -8 2 1
v -8 4 3
v -8 4 1
v -8 8 1
v -8 8 -9
v -8 10 3
v -8 10 1
v -8 10 -1
v -8 10 -9
v -8 12 5
v -8 12 3
v -8 12 1
v -8 12 -1
v -8 12 -7
v -8 12 -9
v -8 14 -5
v -8 14 -7
v -8 16 1
v -8 16 -5
v -8 20 1
v -8 20 -3
v -8 22 2
v -8 22 1
v -8 22 -0
v -8 22 -2
v -8 22 -3
v -8 22 -4
v -8 26 2
v -8 26 1
v -8 26 -0
v -8 26 -2
v -8 26 -3
v -8 26 -4
v -8 28 1
v -8 28 -3
v -8 30 5
v -8 30 -9
v -6 2 1
v -6 2 -5
v -6 4 1
v -6 4 -1
v -6 4 -3
v -6 4 -5
v -6 8 -1
v -6 8 -3
v -6 10 -9
v -6 10 -11
v -6 16 -9
v -6 16 -11
v -6 22 7
v -6 22 5
v -6 26 7
v -6 26 5
v -6 30 3
v -6 30 -5
v -6 32 3
v -6 32 -5
v -5 22 8
v -5 22 7
v -5 26 8
v -5 26 7
v -4 2 3
v -4 2 1
v -4 4 3
v -4 4 1
v -4 10 -1
v -4 10 -3
v -4 12 1
v -4 12 -1
v -4 12 -11
v -4 12 -13
v -4 14 1
v -4 14 -3
v -4 14 -11
v -4 14 -13
v -4 20 7
v -4 20 5
v -4 21 8
v -4 21 7
v -4 22 9
v -4 22 8
v -4 22 5
v -4 26 9
v -4 26 8
v -4 26 5
v -4 27 8
v -4 27 7
v -4 28 7
v -4 28 5
v -4 32 1
v -4 32 -3
v -4 34 1
v -4 34 -3
v -3 23 10
v -3 23 9
v -3 25 10
v -3 25 9
v -2 34 -1
v -2 34 -3
v -2 36 -1
v -2 36 -3
v -2 36 -7
v -2 38 -3
v -2 38 -7
v 0 2 3
v 0 2 1
v 0 4 3
v 0 4 1
v 2 2 1
v 2 2 -5
v 2 4 1
v 2 4 -1
v 2 4 -3
v 2 4 -5
v 2 8 -1
v 2 8 -3
v 4 2 3
v 4 2 1
v 4 4 3
v 4 4 1
v -6 2 3
v -6 2 1
v -6 4 3
v -6 4 1
v -6 10 -1
v -6 10 -3
v -6 12 1
v -6 12 -1
v -6 14 1
v -6 14 -3
v -4 2 1
v -4 2 -5
v -4 4 1
v -4 4 -1
v -4 4 -3
v -4 4 -5
v -4 8 -1
v -4 8 -3
v -2 2 3
v -2 2 1
v -2 4 3
v -2 4 1
v 0 34 -1
v 0 34 -3
v 0 36 -1
v 0 36 -3
v 0 36 -7
v 0 38 -3
v 0 38 -7
v 1 23 10
v 1 23 9
v 1 25 10
v 1 25 9
v 2 2 3
v 2 2 1
v 2 4 3
v 2 4 1
v 2 12 -11
v 2 12 -13
v 2 14 -11
v 2 14 -13
v 2 20 7
v 2 20 5
v 2 21 8
v 2 21 7
v 2 22 9
v 2 22 8
v 2 22 5
v 2 26 9
v 2 26 8
v 2 26 5
v 2 27 8
v 2 27 7
v 2 28 7
v 2 28 5
v 2 32 1
v 2 32 -3
v 2 34 1
v 2 34 -3
v 3 22 8
v 3 22 7
v 3 26 8
v 3 26 7
v 4 2 1
v 4 2 -5
v 4 4 1
v 4 4 -1
v 4 4 -3
v 4 4 -5
v 4 8 -1
v 4 8 -3
v 4 10 -9
v 4 10 -11
v 4 16 -9
v 4 16 -11
v 4 22 7
v 4 22 5
v 4 26 7
v 4 26 5
v 4 30 3
v 4 30 -5
v 4 32 3
v 4 32 -5
v 6 2 3
v 6 2 1
v 6 4 3
v 6 4 1
v 6 8 1
v 6 8 -9
v 6 10 3
v 6 10 1
v 6 10 -1
v 6 10 -9
v 6 12 5
v 6 12 3
v 6 12 1
v 6 12 -1
v 6 12 -7
v 6 12 -9
v 6 14 -5
v 6 14 -7
v 6 16 1
v 6 16 -5
v 6 20 1
v 6 20 -3
v 6 22 2
v 6 22 1
v 6 22 -0
v 6 22 -2
v 6 22 -3
v 6 22 -4
v 6 26 2
v 6 26 1
v 6 26 -0
v 6 26 -2
v 6 26 -3
v 6 26 -4
v 6 28 1
v 6 28 -3
v 6 30 5
v 6 30 -9
v 8 10 -1
v 8 10 -9
v 8 12 1
v 8 12 -1
v 8 12 -7
v 8 12 -9
v 8 14 -5
v 8 14 -7
v 8 16 1
v 8 16 -5
v -3 23 10
v -3 25 10
v 1 23 10
v 1 25 10
v -4 22 9
v -4 26 9
v -3 23 9
v -3 25 9
v 1 23 9
v 1 25 9
v 2 22 9
v 2 26 9
v -5 22 8
v -5 26 8
v -4 21 8
v -4 22 8
v -4 26 8
v -4 27 8
v 2 21 8
v 2 22 8
v 2 26 8
v 2 27 8
v 3 22 8
v 3 26 8
v -6 22 7
v -6 26 7
v -5 22 7
v -5 26 7
v -4 20 7
v -4 21 7
v -4 27 7
v -4 28 7
v 2 20 7
v 2 21 7
v 2 27 7
v 2 28 7
v 3 22 7
v 3 26 7
v 4 22 7
v 4 26 7
v -8 12 5
v -8 30 5
v -6 22 5
v -6 26 5
v -4 20 5
v -4 22 5
v -4 26 5
v -4 28 5
v 2 20 5
v 2 22 5
v 2 26 5
v 2 28 5
v 4 22 5
v 4 26 5
v 6 12 5
v 6 30 5
v -8 2 3
v -8 4 3
v -8 10 3
v -8 12 3
v -6 2 3
v -6 4 3
v -6 30 3
v -6 32 3
v -4 2 3
v -4 4 3
v -2 2 3
v -2 4 3
v 0 2 3
v 0 4 3
v 2 2 3
v 2 4 3
v 4 2 3
v 4 4 3
v 4 30 3
v 4 32 3
v 6 2 3
v 6 4 3
v 6 10 3
v 6 12 3
v -10 12 1
v -10 16 1
v -8 8 1
v -8 10 1
v -8 12 1
v -8 16 1
v -6 2 1
v -6 4 1
v -4 2 1
v -4 4 1
v -4 32 1
v -4 34 1
v 2 2 1
v 2 4 1
v 2 32 1
v 2 34 1
v 4 2 1
v 4 4 1
v 6 8 1
v 6 10 1
v 6 12 1
v 6 16 1
v 8 12 1
v 8 16 1
v -10 10 -1
v -10 12 -1
v -8 10 -1
v -8 12 -1
v -6 4 -1
v -6 8 -1
v -4 4 -1
v -4 8 -1
v -2 34 -1
v -2 36 -1
v 0 34 -1
v 0 36 -1
v 2 4 -1
v 2 8 -1
v 4 4 -1
v 4 8 -1
v 6 10 -1
v 6 12 -1
v 8 10 -1
v 8 12 -1
v -6 10 -3
v -6 14 -3
v -4 10 -3
v -4 14 -3
v -2 36 -3
v -2 38 -3
v 0 36 -3
v 0 38 -3
v -8 2 1
v -8 4 1
v -6 2 1
v -6 4 1
v -6 12 1
v -6 14 1
v -4 2 1
v -4 4 1
v -4 12 1
v -4 14 1
v -2 2 1
v -2 4 1
v 0 2 1
v 0 4 1
v 2 2 1
v 2 4 1
v 4 2 1
v 4 4 1
v 6 2 1
v 6 4 1
v -6 10 -1
v -6 12 -1
v -4 10 -1
v -4 12 -1
v -6 4 -3
v -6 8 -3
v -4 4 -3
v -4 8 -3
v -4 32 -3
v -4 34 -3
v -2 34 -3
v -2 36 -3
v 0 34 -3
v 0 36 -3
v 2 4 -3
v 2 8 -3
v 2 32 -3
v 2 34 -3
v 4 4 -3
v 4 8 -3
v -10 14 -5
v -10 16 -5
v -8 14 -5
v -8 16 -5
v -6 2 -5
v -6 4 -5
v -6 30 -5
v -6 32 -5
v -4 2 -5
v -4 4 -5
v 2 2 -5
v 2 4 -5
v 4 2 -5
v 4 4 -5
v 4 30 -5
v 4 32 -5
v 6 14 -5
v 6 16 -5
v 8 14 -5
v 8 16 -5
v -10 12 -7
v -10 14 -7
v -8 12 -7
v -8 14 -7
v -2 36 -7
v -2 38 -7
v 0 36 -7
v 0 38 -7
v 6 12 -7
v 6 14 -7
v 8 12 -7
v 8 14 -7
v -10 10 -9
v -10 12 -9
v -8 8 -9
v -8 10 -9
v -8 12 -9
v -8 30 -9
v -6 10 -9
v -6 16 -9
v 4 10 -9
v 4 16 -9
v 6 8 -9
v 6 10 -9
v 6 12 -9
v 6 30 -9
v 8 10 -9
v 8 12 -9
v -6 10 -11
v -6 16 -11
v -4 12 -11
v -4 14 -11
v 2 12 -11
v 2 14 -11
v 4 10 -11
v 4 16 -11
v -4 12 -13
v -4 14 -13
v 2 12 -13
v 2 14 -13
v -8 2 3
v -6 2 3
v -4 2 3
v -2 2 3
v 0 2 3
v 2 2 3
v 4 2 3
v 6 2 3
v -8 2 1
v -6 2 1
v -4 2 1
v -2 2 1
v 0 2 1
v 2 2 1
v 4 2 1
v 6 2 1
v -6 2 -5
v -4 2 -5
v 2 2 -5
v 4 2 -5
v -8 8 1
v 6 8 1
v -6 8 -1
v -4 8 -1
v 2 8 -1
v 4 8 -1
v -6 8 -3
v -4 8 -3
v 2 8 -3
v 4 8 -3
v -8 8 -9
v 6 8 -9
v -8 10 3
v 6 10 3
v -8 10 1
v 6 10 1
v -10 10 -1
v -8 10 -1
v 6 10 -1
v 8 10 -1
v -10 10 -9
v -8 10 -9
v -6 10 -9
v 4 10 -9
v 6 10 -9
v 8 10 -9
v -6 10 -11
v 4 10 -11
v -8 12 5
v 6 12 5
v -8 12 3
v 6 12 3
v -10 12 1
v -8 12 1
v 6 12 1
v 8 12 1
v -10 12 -1
v -8 12 -1
v 6 12 -1
v 8 12 -1
v -4 12 -11
v 2 12 -11
v -4 12 -13
v 2 12 -13
v -6 14 1
v -4 14 1
v -6 14 -3
v -4 14 -3
v -4 20 7
v 2 20 7
v -4 20 5
v 2 20 5
v -4 21 8
v 2 21 8
v -4 21 7
v 2 21 7
v -4 22 9
v 2 22 9
v -5 22 8
v -4 22 8
v 2 22 8
v 3 22 8
v -6 22 7
v -5 22 7
v 3 22 7
v 4 22 7
v -6 22 5
v -4 22 5
v 2 22 5
v 4 22 5
v -3 23 10
v 1 23 10
v -3 23 9
v 1 23 9
v -2 36 -3
v 0 36 -3
v -2 36 -7
v 0 36 -7
v -8 4 3
v -6 4 3
v -4 4 3
v -2 4 3
v 0 4 3
v 2 4 3
v 4 4 3
v 6 4 3
v -8 4 1
v -6 4 1
v -4 4 1
v -2 4 1
v 0 4 1
v 2 4 1
v 4 4 1
v 6 4 1
v -6 4 -1
v -4 4 -1
v 2 4 -1
v 4 4 -1
v -6 4 -3
v -4 4 -3
v 2 4 -3
v 4 4 -3
v -6 4 -5
v -4 4 -5
v 2 4 -5
v 4 4 -5
v -6 10 -1
v -4 10 -1
v -6 10 -3
v -4 10 -3
v -6 12 1
v -4 12 1
v -6 12 -1
v -4 12 -1
v -10 12 -7
v -8 12 -7
v 6 12 -7
v 8 12 -7
v -10 12 -9
v -8 12 -9
v 6 12 -9
v 8 12 -9
v -10 14 -5
v -8 14 -5
v 6 14 -5
v 8 14 -5
v -10 14 -7
v -8 14 -7
v 6 14 -7
v 8 14 -7
v -4 14 -11
v 2 14 -11
v -4 14 -13
v 2 14 -13
v -10 16 1
v -8 16 1
v 6 16 1
v 8 16 1
v -10 16 -5
v -8 16 -5
v 6 16 -5
v 8 16 -5
v -6 16 -9
v 4 16 -9
v -6 16 -11
v 4 16 -11
v -3 25 10
v 1 25 10
v -3 25 9
v 1 25 9
v -4 26 9
v 2 26 9
v -5 26 8
v -4 26 8
v 2 26 8
v 3 26 8
v -6 26 7
v -5 26 7
v 3 26 7
v 4 26 7
v -6 26 5
v -4 26 5
v 2 26 5
v 4 26 5
v -4 27 8
v 2 27 8
v -4 27 7
v 2 27 7
v -4 28 7
v 2 28 7
v -4 28 5
v 2 28 5
v -8 30 5
v 6 30 5
v -6 30 3
v 4 30 3
v -6 30 -5
v 4 30 -5
v -8 30 -9
v 6 30 -9
v -6 32 3
v 4 32 3
v -4 32 1
v 2 32 1
v -4 32 -3
v 2 32 -3
v -6 32 -5
v 4 32 -5
v -4 34 1
v 2 34 1
v -2 34 -1
v 0 34 -1
v -4 34 -3
v -2 34 -3
v 0 34 -3
v 2 34 -3
v -2 36 -1
v 0 36 -1
v -2 36 -3
v 0 36 -3
v -2 38 -3
v 0 38 -3
v -2 38 -7
v 0 38 -7

# faces
f 4/1/1 2/1/1 1/1/1
f 5/1/1 2/1/1 4/1/1
f 6/1/1 2/1/1 5/1/1
f 7/1/1 4/1/1 3/1/1
f 7/1/1 5/1/1 4/1/1
f 8/1/1 5/1/1 7/1/1
f 9/1/1 7/1/1 3/1/1
f 10/1/1 7/1/1 9/1/1
f 13/2/1 12/2/1 11/2/1
f 14/2/1 12/2/1 13/2/1
f 18/1/1 16/1/1 15/1/1
f 19/1/1 16/1/1 18/1/1
f 20/1/1 16/1/1 19/1/1
f 22/1/1 18/1/1 17/1/1
f 22/1/1 19/1/1 18/1/1
f 23/1/1 19/1/1 22/1/1
f 24/1/1 19/1/1 23/1/1
f 28/1/1 26/1/1 25/1/1
f 29/1/1 22/1/1 21/1/1
f 29/1/1 23/1/1 22/1/1
f 30/1/1 28/1/1 27/1/1
f 31/1/1 29/1/1 21/1/1
f 31/1/1 30/1/1 29/1/1
f 32/1/1 30/1/1 31/1/1
f 33/1/1 31/1/1 21/1/1
f 34/4/1 32/4/1 31/4/1
f 34/1/1 31/1/1 33/1/1
f 35/4/1 32/4/1 34/4/1
f 36/4/1 32/4/1 35/4/1
f 37/1/1 30/1/1 32/1/1
f 37/4/1 32/4/1 36/4/1
f 38/1/1 30/1/1 37/1/1
f 39/1/1 33/1/1 21/1/1
f 39/4/1 34/4/1 33/4/1
f 39/4/1 35/4/1 34/4/1
f 40/4/1 35/4/1 39/4/1
f 41/3/1 36/3/1 35/3/1
f 41/4/1 35/4/1 40/4/1
f 42/4/1 38/4/1 37/4/1
f 42/3/1 36/3/1 41/3/1
f 42/4/1 37/4/1 36/4/1
f 43/4/1 38/4/1 42/4/1
f 44/1/1 30/1/1 38/1/1
f 44/4/1 38/4/1 43/4/1
f 45/1/1 40/1/1 39/1/1
f 45/4/1 43/4/1 42/4/1
f 45/4/1 41/4/1 40/4/1
f 45/4/1 42/4/1 41/4/1
f 46/1/1 44/1/1 43/1/1
f 46/4/1 43/4/1 45/4/1
f 47/1/1 45/1/1 39/1/1
f 47/1/1 39/1/1 21/1/1
f 47/1/1 46/1/1 45/1/1
f 48/1/1 28/1/1 30/1/1
f 48/1/1 46/1/1 47/1/1
f 48/1/1 26/1/1 28/1/1
f 48/1/1 44/1/1 46/1/1
f 48/1/1 30/1/1 44/1/1
f 51/2/1 50/2/1 49/2/1
f 52/2/1 50/2/1 51/2/1
f 53/2/1 50/2/1 52/2/1
f 54/2/1 50/2/1 53/2/1
f 55/2/1 53/2/1 52/2/1
f 56/2/1 53/2/1 55/2/1
f 59/1/1 58/1/1 57/1/1
f 60/1/1 58/1/1 59/1/1
f 63/2/1 62/2/1 61/2/1
f 64/2/1 62/2/1 63/2/1
f 67/1/1 66/1/1 65/1/1
f 68/1/1 66/1/1 67/1/1
f 71/2/1 70/2/1 69/2/1
f 72/2/1 70/2/1 71/2/1
f 75/2/1 74/2/1 73/2/1
f 76/2/1 74/2/1 75/2/1
f 80/1/1 78/1/1 77/1/1
f 83/1/1 80/1/1 79/1/1
f 84/1/1 78/1/1 80/1/1
f 84/1/1 80/1/1 83/1/1
f 85/1/1 82/1/1 81/1/1
f 86/1/1 82/1/1 85/1/1
f 90/2/1 88/2/1 87/2/1
f 92/2/1 90/2/1 89/2/1
f 93/2/1 88/2/1 90/2/1
f 93/2/1 90/2/1 92/2/1
f 94/2/1 92/2/1 91/2/1
f 95/2/1 92/2/1 94/2/1
f 97/2/1 96/2/1 95/2/1
f 98/2/1 96/2/1 97/2/1
f 99/2/1 96/2/1 98/2/1
f 100/2/1 96/2/1 99/2/1
f 103/1/1 102/1/1 101/1/1
f 104/1/1 102/1/1 103/1/1
f 107/2/1 106/2/1 105/2/1
f 108/2/1 106/2/1 107/2/1
f 111/1/1 110/1/1 109/1/1
f 112/1/1 110/1/1 111/1/1
f 114/1/1 113/1/1 112/1/1
f 115/1/1 113/1/1 114/1/1
f 118/2/1 117/2/1 116/2/1
f 119/2/1 117/2/1 118/2/1
f 122/2/1 121/2/1 120/2/1
f 123/2/1 121/2/1 122/2/1
f 124/2/1 121/2/1 123/2/1
f 125/2/1 121/2/1 124/2/1
f 126/2/1 124/2/1 123/2/1
f 127/2/1 124/2/1 126/2/1
f 130/2/1 129/2/1 128/2/1
f 131/2/1 129/2/1 130/2/1
f 132/2/2 133/2/2 134/2/2
f 134/2/2 133/2/2 135/2/2
f 136/1/2 137/1/2 139/1/2
f 138/1/2 139/1/2 140/1/2
f 139/1/2 137/1/2 141/1/2
f 140/1/2 139/1/2 141/1/2
f 142/2/2 143/2/2 144/2/2
f 144/2/2 143/2/2 145/2/2
f 145/2/2 143/2/2 146/2/2
f 146/2/2 143/2/2 147/2/2
f 145/2/2 146/2/2 148/2/2
f 148/2/2 146/2/2 149/2/2
f 150/2/2 151/2/2 152/2/2
f 152/2/2 151/2/2 153/2/2
f 154/1/2 155/1/2 156/1/2
f 156/1/2 155/1/2 157/1/2
f 157/1/2 158/1/2 159/1/2
f 159/1/2 158/1/2 160/1/2
f 161/2/2 162/2/2 163/2/2
f 163/2/2 162/2/2 164/2/2
f 165/2/2 166/2/2 167/2/2
f 167/2/2 166/2/2 168/2/2
f 169/1/2 170/1/2 171/1/2
f 171/1/2 170/1/2 172/1/2
f 173/2/2 174/2/2 176/2/2
f 175/2/2 176/2/2 178/2/2
f 176/2/2 174/2/2 179/2/2
f 178/2/2 176/2/2 179/2/2
f 177/2/2 178/2/2 180/2/2
f 180/2/2 178/2/2 181/2/2
f 181/2/2 182/2/2 183/2/2
f 183/2/2 182/2/2 184/2/2
f 184/2/2 182/2/2 185/2/2
f 185/2/2 182/2/2 186/2/2
f 187/1/2 188/1/2 189/1/2
f 189/1/2 188/1/2 190/1/2
f 191/2/2 192/2/2 193/2/2
f 193/2/2 192/2/2 194/2/2
f 195/2/2 196/2/2 197/2/2
f 197/2/2 196/2/2 198/2/2
f 198/2/2 196/2/2 199/2/2
f 199/2/2 196/2/2 200/2/2
f 198/2/2 199/2/2 201/2/2
f 201/2/2 199/2/2 202/2/2
f 203/1/2 204/1/2 205/1/2
f 205/1/2 204/1/2 206/1/2
f 207/2/2 208/2/2 209/2/2
f 209/2/2 208/2/2 210/2/2
f 211/1/2 212/1/2 213/1/2
f 213/1/2 212/1/2 214/1/2
f 215/2/2 216/2/2 217/2/2
f 217/2/2 216/2/2 218/2/2
f 219/1/2 220/1/2 222/1/2
f 222/1/2 220/1/2 223/1/2
f 223/1/2 220/1/2 224/1/2
f 221/1/2 222/1/2 226/1/2
f 222/1/2 223/1/2 226/1/2
f 226/1/2 223/1/2 227/1/2
f 227/1/2 223/1/2 228/1/2
f 229/1/2 230/1/2 232/1/2
f 225/1/2 226/1/2 233/1/2
f 226/1/2 227/1/2 233/1/2
f 231/1/2 232/1/2 234/1/2
f 225/1/2 233/1/2 235/1/2
f 233/1/2 234/1/2 235/1/2
f 235/1/2 234/1/2 236/1/2
f 225/1/2 235/1/2 237/1/2
f 235/4/2 236/4/2 238/4/2
f 237/1/2 235/1/2 238/1/2
f 238/4/2 236/4/2 239/4/2
f 239/4/2 236/4/2 240/4/2
f 236/1/2 234/1/2 241/1/2
f 240/4/2 236/4/2 241/4/2
f 241/1/2 234/1/2 242/1/2
f 225/1/2 237/1/2 243/1/2
f 237/4/2 238/4/2 243/4/2
f 238/4/2 239/4/2 243/4/2
f 243/4/2 239/4/2 244/4/2
f 239/3/2 240/3/2 245/3/2
f 244/4/2 239/4/2 245/4/2
f 241/4/2 242/4/2 246/4/2
f 245/3/2 240/3/2 246/3/2
f 240/4/2 241/4/2 246/4/2
f 246/4/2 242/4/2 247/4/2
f 242/1/2 234/1/2 248/1/2
f 247/4/2 242/4/2 248/4/2
f 243/1/2 244/1/2 249/1/2
f 246/4/2 247/4/2 249/4/2
f 244/4/2 245/4/2 249/4/2
f 245/4/2 246/4/2 249/4/2
f 247/1/2 248/1/2 250/1/2
f 249/4/2 247/4/2 250/4/2
f 243/1/2 249/1/2 251/1/2
f 225/1/2 243/1/2 251/1/2
f 249/1/2 250/1/2 251/1/2
f 234/1/2 232/1/2 252/1/2
f 251/1/2 250/1/2 252/1/2
f 232/1/2 230/1/2 252/1/2
f 250/1/2 248/1/2 252/1/2
f 248/1/2 234/1/2 252/1/2
f 253/1/2 254/1/2 256/1/2
f 256/1/2 254/1/2 257/1/2
f 257/1/2 254/1/2 258/1/2
f 255/1/2 256/1/2 259/1/2
f 256/1/2 257/1/2 259/1/2
f 259/1/2 257/1/2 260/1/2
f 255/1/2 259/1/2 261/1/2
f 261/1/2 259/1/2 262/1/2
f 265/2/3 264/2/3 263/2/3
f 266/2/3 264/2/3 265/2/3
f 269/2/3 268/2/3 267/2/3
f 270/2/3 268/2/3 269/2/3
f 271/2/3 269/2/3 267/2/3
f 272/2/3 268/2/3 270/2/3
f 273/2/3 271/2/3 267/2/3
f 273/2/3 272/2/3 271/2/3
f 274/2/3 268/2/3 272/2/3
f 274/2/3 272/2/3 273/2/3
f 278/2/3 276/2/3 275/2/3
f 279/2/3 276/2/3 278/2/3
f 281/2/3 278/2/3 277/2/3
f 282/2/3 278/2/3 281/2/3
f 283/2/3 280/2/3 279/2/3
f 284/2/3 280/2/3 283/2/3
f 285/2/3 283/2/3 282/2/3
f 286/2/3 283/2/3 285/2/3
f 289/2/3 288/2/3 287/2/3
f 290/2/3 288/2/3 289/2/3
f 295/2/3 292/2/3 291/2/3
f 296/2/3 292/2/3 295/2/3
f 297/2/3 294/2/3 293/2/3
f 298/2/3 294/2/3 297/2/3
f 301/2/3 300/2/3 299/2/3
f 302/2/3 300/2/3 301/2/3
f 305/1/3 304/1/3 303/1/3
f 306/1/3 304/1/3 305/1/3
f 307/1/3 305/1/3 303/1/3
f 308/1/3 305/1/3 307/1/3
f 309/1/3 304/1/3 306/1/3
f 310/1/3 304/1/3 309/1/3
f 311/1/3 307/1/3 303/1/3
f 314/1/3 304/1/3 310/1/3
f 315/1/3 312/1/3 311/1/3
f 316/1/3 314/1/3 313/1/3
f 317/1/3 315/1/3 311/1/3
f 317/1/3 316/1/3 315/1/3
f 317/1/3 311/1/3 303/1/3
f 318/1/3 314/1/3 316/1/3
f 318/1/3 316/1/3 317/1/3
f 318/1/3 304/1/3 314/1/3
f 323/2/3 320/2/3 319/2/3
f 324/2/3 320/2/3 323/2/3
f 329/2/3 328/2/3 327/2/3
f 330/2/3 328/2/3 329/2/3
f 333/2/3 332/2/3 331/2/3
f 334/2/3 332/2/3 333/2/3
f 337/1/3 326/1/3 325/1/3
f 338/1/3 326/1/3 337/1/3
f 339/2/3 336/2/3 335/2/3
f 340/2/3 336/2/3 339/2/3
f 341/1/3 322/1/3 321/1/3
f 342/1/3 322/1/3 341/1/3
f 347/1/3 344/1/3 343/1/3
f 348/1/3 344/1/3 347/1/3
f 351/2/3 350/2/3 349/2/3
f 352/2/3 350/2/3 351/2/3
f 357/1/3 354/1/3 353/1/3
f 358/1/3 354/1/3 357/1/3
f 359/2/3 356/2/3 355/2/3
f 360/2/3 356/2/3 359/2/3
f 361/1/3 346/1/3 345/1/3
f 362/1/3 346/1/3 361/1/3
f 365/1/3 364/1/3 363/1/3
f 366/1/3 364/1/3 365/1/3
f 369/1/3 368/1/3 367/1/3
f 370/1/3 368/1/3 369/1/3
f 373/2/3 372/2/3 371/2/3
f 374/2/3 372/2/3 373/2/3
f 377/1/3 376/1/3 375/1/3
f 378/1/3 376/1/3 377/1/3
f 381/2/3 380/2/3 379/2/3
f 382/2/3 380/2/3 381/2/3
f 385/1/3 384/1/3 383/1/3
f 386/1/3 384/1/3 385/1/3
f 389/1/3 388/1/3 387/1/3
f 390/1/3 388/1/3 389/1/3
f 393/1/3 392/1/3 391/1/3
f 394/1/3 392/1/3 393/1/3
f 395/2/4 396/2/4 397/2/4
f 397/2/4 396/2/4 398/2/4
f 399/1/4 400/1/4 403/1/4
f 403/1/4 400/1/4 404/1/4
f 401/2/4 402/2/4 405/2/4
f 405/2/4 402/2/4 406/2/4
f 407/2/4 408/2/4 409/2/4
f 409/2/4 408/2/4 410/2/4
f 411/2/4 412/2/4 413/2/4
f 413/2/4 412/2/4 414/2/4
f 415/1/4 416/1/4 417/1/4
f 417/1/4 416/1/4 418/1/4
f 419/2/4 420/2/4 421/2/4
f 421/2/4 420/2/4 422/2/4
f 423/1/4 424/1/4 425/1/4
f 423/1/4 425/1/4 427/1/4
f 425/1/4 426/1/4 427/1/4
f 427/1/4 426/1/4 428/1/4
f 423/1/4 427/1/4 431/1/4
f 431/1/4 427/1/4 432/1/4
f 429/2/4 430/2/4 433/2/4
f 433/2/4 430/2/4 434/2/4
f 435/1/4 436/1/4 437/1/4
f 437/1/4 436/1/4 438/1/4
f 439/2/4 440/2/4 443/2/4
f 443/2/4 440/2/4 444/2/4
f 445/2/4 446/2/4 447/2/4
f 447/2/4 446/2/4 448/2/4
f 441/1/4 442/1/4 449/1/4
f 449/1/4 442/1/4 450/1/4
f 451/1/4 452/1/4 453/1/4
f 453/1/4 452/1/4 454/1/4
f 455/1/4 456/1/4 457/1/4
f 457/1/4 456/1/4 458/1/4
f 459/1/4 460/1/4 461/1/4
f 461/1/4 460/1/4 462/1/4
f 463/1/4 464/1/4 465/1/4
f 465/1/4 464/1/4 466/1/4
f 467/1/4 468/1/4 470/1/4
f 470/1/4 468/1/4 471/1/4
f 469/1/4 470/1/4 473/1/4
f 471/1/4 472/1/4 473/1/4
f 470/1/4 471/1/4 473/1/4
f 473/1/4 472/1/4 474/1/4
f 469/1/4 473/1/4 475/1/4
f 474/1/4 472/1/4 476/1/4
f 469/1/4 475/1/4 477/1/4
f 475/1/4 476/1/4 477/1/4
f 477/1/4 476/1/4 478/1/4
f 478/1/4 476/1/4 479/1/4
f 476/1/4 472/1/4 480/1/4
f 479/1/4 476/1/4 480/1/4
f 478/1/4 479/1/4 481/1/4
f 481/1/4 479/1/4 482/1/4
f 483/1/4 484/1/4 485/1/4
f 485/1/4 484/1/4 486/1/4
f 483/1/4 485/1/4 487/1/4
f 486/1/4 484/1/4 488/1/4
f 483/1/4 487/1/4 489/1/4
f 487/1/4 488/1/4 489/1/4
f 488/1/4 484/1/4 490/1/4
f 489/1/4 488/1/4 490/1/4
f 491/1/4 492/1/4 493/1/4
f 493/1/4 492/1/4 494/1/4
f 503/2/5 496/2/5 495/2/5
f 504/2/5 496/2/5 503/2/5
f 505/2/5 498/2/5 497/2/5
f 506/2/5 498/2/5 505/2/5
f 507/2/5 500/2/5 499/2/5
f 508/2/5 500/2/5 507/2/5
f 509/2/5 502/2/5 501/2/5
f 510/2/5 502/2/5 509/2/5
f 511/2/5 505/2/5 504/2/5
f 512/2/5 505/2/5 511/2/5
f 513/2/5 509/2/5 508/2/5
f 514/2/5 509/2/5 513/2/5
f 517/1/5 516/1/5 515/1/5
f 518/1/5 516/1/5 517/1/5
f 519/1/5 516/1/5 518/1/5
f 520/1/5 516/1/5 519/1/5
f 521/1/5 517/1/5 515/1/5
f 522/1/5 519/1/5 518/1/5
f 523/1/5 519/1/5 522/1/5
f 524/1/5 516/1/5 520/1/5
f 525/1/5 523/1/5 522/1/5
f 525/1/5 524/1/5 523/1/5
f 525/1/5 521/1/5 515/1/5
f 525/1/5 522/1/5 521/1/5
f 526/1/5 516/1/5 524/1/5
f 526/1/5 524/1/5 525/1/5
f 529/1/5 528/1/5 527/1/5
f 530/1/5 528/1/5 529/1/5
f 535/1/5 532/1/5 531/1/5
f 536/1/5 532/1/5 535/1/5
f 539/1/5 534/1/5 533/1/5
f 540/1/5 534/1/5 539/1/5
f 541/1/5 538/1/5 537/1/5
f 542/1/5 538/1/5 541/1/5
f 545/1/5 544/1/5 543/1/5
f 546/1/5 544/1/5 545/1/5
f 551/1/5 548/1/5 547/1/5
f 552/1/5 548/1/5 551/1/5
f 553/1/5 550/1/5 549/1/5
f 554/1/5 550/1/5 553/1/5
f 557/1/5 556/1/5 555/1/5
f 558/1/5 556/1/5 557/1/5
f 561/1/5 560/1/5 559/1/5
f 562/1/5 560/1/5 561/1/5
f 565/2/5 564/2/5 563/2/5
f 566/2/5 564/2/5 565/2/5
f 569/2/5 568/2/5 567/2/5
f 570/2/5 568/2/5 569/2/5
f 574/2/5 572/2/5 571/2/5
f 575/2/5 572/2/5 574/2/5
f 578/2/5 574/2/5 573/2/5
f 579/2/5 576/2/5 575/2/5
f 581/2/5 578/2/5 577/2/5
f 582/2/5 574/2/5 578/2/5
f 582/2/5 578/2/5 581/2/5
f 583/2/5 580/2/5 579/2/5
f 583/2/5 579/2/5 575/2/5
f 584/2/5 580/2/5 583/2/5
f 587/2/5 586/2/5 585/2/5
f 588/2/5 586/2/5 587/2/5
f 591/1/5 590/1/5 589/1/5
f 592/1/5 590/1/5 591/1/5
f 593/2/6 594/2/6 601/2/6
f 601/2/6 594/2/6 602/2/6
f 595/2/6 596/2/6 603/2/6
f 603/2/6 596/2/6 604/2/6
f 597/2/6 598/2/6 605/2/6
f 605/2/6 598/2/6 606/2/6
f 599/2/6 600/2/6 607/2/6
f 607/2/6 600/2/6 608/2/6
f 602/2/6 603/2/6 609/2/6
f 609/2/6 603/2/6 610/2/6
f 606/2/6 607/2/6 611/2/6
f 611/2/6 607/2/6 612/2/6
f 613/2/6 614/2/6 617/2/6
f 617/2/6 614/2/6 618/2/6
f 615/2/6 616/2/6 619/2/6
f 619/2/6 616/2/6 620/2/6
f 621/1/6 622/1/6 623/1/6
f 623/1/6 622/1/6 624/1/6
f 625/1/6 626/1/6 627/1/6
f 627/1/6 626/1/6 628/1/6
f 629/1/6 630/1/6 633/1/6
f 633/1/6 630/1/6 634/1/6
f 631/1/6 632/1/6 635/1/6
f 635/1/6 632/1/6 636/1/6
f 637/1/6 638/1/6 641/1/6
f 641/1/6 638/1/6 642/1/6
f 639/1/6 640/1/6 643/1/6
f 643/1/6 640/1/6 644/1/6
f 645/1/6 646/1/6 647/1/6
f 647/1/6 646/1/6 648/1/6
f 649/1/6 650/1/6 653/1/6
f 653/1/6 650/1/6 654/1/6
f 651/1/6 652/1/6 655/1/6
f 655/1/6 652/1/6 656/1/6
f 657/1/6 658/1/6 659/1/6
f 659/1/6 658/1/6 660/1/6
f 661/2/6 662/2/6 663/2/6
f 663/2/6 662/2/6 664/2/6
f 665/2/6 666/2/6 668/2/6
f 668/2/6 666/2/6 669/2/6
f 667/2/6 668/2/6 672/2/6
f 669/2/6 670/2/6 673/2/6
f 671/2/6 672/2/6 675/2/6
f 672/2/6 668/2/6 676/2/6
f 675/2/6 672/2/6 676/2/6
f 673/2/6 674/2/6 677/2/6
f 669/2/6 673/2/6 677/2/6
f 677/2/6 674/2/6 678/2/6
f 679/2/6 680/2/6 681/2/6
f 681/2/6 680/2/6 682/2/6
f 683/2/6 684/2/6 685/2/6
f 685/2/6 684/2/6 686/2/6
f 687/1/6 688/1/6 689/1/6
f 689/1/6 688/1/6 690/1/6
f 687/1/6 689/1/6 691/1/6
f 690/1/6 688/1/6 692/1/6
f 687/1/6 691/1/6 693/1/6
f 691/1/6 692/1/6 693/1/6
f 692/1/6 688/1/6 694/1/6
f 693/1/6 692/1/6 694/1/6
f 695/1/6 696/1/6 697/1/6
f 697/1/6 696/1/6 698/1/6
f 695/1/6 697/1/6 699/1/6
f 698/1/6 696/1/6 700/1/6
f 695/1/6 699/1/6 701/1/6
f 699/1/6 700/1/6 701/1/6
f 700/1/6 696/1/6 702/1/6
f 701/1/6 700/1/6 702/1/6
f 703/1/6 704/1/6 705/1/6
f 705/1/6 704/1/6 706/1/6
f 703/1/6 705/1/6 707/1/6
f 707/1/6 705/1/6 708/1/6
f 706/1/6 704/1/6 709/1/6
f 709/1/6 704/1/6 710/1/6
f 711/1/6 712/1/6 713/1/6
f 713/1/6 712/1/6 714/1/6
f 715/1/6 716/1/6 717/1/6
f 717/1/6 716/1/6 718/1/6
