# MagicaVoxel @ ephtracy

# material
mtllib kaplumbaga.mtl
usemtl palette

# normals
vn -1 0 0
vn 1 0 0
vn 0 0 1
vn 0 0 -1
vn 0 -1 0
vn 0 1 0

# texcoords
vt 0.0332031 0.5
vt 0.0605469 0.5
vt 0.744141 0.5
vt 0.904297 0.5
vt 0.908203 0.5
vt 0.955078 0.5
vt 0.958984 0.5

# verts
v -14 4 10
v -14 4 -22
v -14 8 10
v -14 8 -22
v -12 0 12
v -12 0 -0
v -12 0 -8
v -12 0 -20
v -12 4 12
v -12 4 10
v -12 4 -0
v -12 4 -8
v -12 4 -20
v -12 8 8
v -12 8 -20
v -12 16 8
v -12 16 -20
v -8 14 18
v -8 14 12
v -8 16 16
v -8 16 14
v -8 18 16
v -8 18 14
v -8 20 18
v -8 20 12
v -6 8 18
v -6 8 10
v -6 8 8
v -6 14 18
v -6 14 12
v -6 16 8
v -6 16 4
v -6 20 12
v -6 20 4
v 4 0 12
v 4 0 -0
v 4 0 -8
v 4 0 -20
v 4 4 12
v 4 4 10
v 4 4 8
v 4 4 -0
v 4 4 -8
v 4 4 -20
v -4 0 12
v -4 0 -0
v -4 0 -8
v -4 0 -20
v -4 4 12
v -4 4 10
v -4 4 8
v -4 4 -0
v -4 4 -8
v -4 4 -20
v 6 8 18
v 6 8 10
v 6 8 8
v 6 14 18
v 6 14 12
v 6 16 8
v 6 16 4
v 6 20 12
v 6 20 4
v 8 14 18
v 8 14 12
v 8 16 16
v 8 16 14
v 8 18 16
v 8 18 14
v 8 20 18
v 8 20 12
v 12 0 12
v 12 0 -0
v 12 0 -8
v 12 0 -20
v 12 4 12
v 12 4 10
v 12 4 -0
v 12 4 -8
v 12 4 -20
v 12 8 8
v 12 8 -20
v 12 16 8
v 12 16 -20
v 14 4 10
v 14 4 -22
v 14 8 10
v 14 8 -22
v -8 14 18
v -8 20 18
v -6 8 18
v -6 14 18
v -6 20 18
v -5 10 18
v -5 13 18
v -4 11 18
v -4 12 18
v 4 11 18
v 4 12 18
v 5 10 18
v 5 13 18
v 6 8 18
v 6 14 18
v 6 20 18
v 8 14 18
v 8 20 18
v -12 0 12
v -12 4 12
v -4 0 12
v -4 4 12
v 4 0 12
v 4 4 12
v 12 0 12
v 12 4 12
v -14 4 10
v -14 8 10
v -12 4 10
v -6 8 10
v -4 4 10
v 4 4 10
v 6 8 10
v 12 4 10
v 14 4 10
v 14 8 10
v -12 8 8
v -12 16 8
v -6 8 8
v -6 16 8
v 6 8 8
v 6 16 8
v 12 8 8
v 12 16 8
v -12 0 -8
v -12 4 -8
v -4 0 -8
v -4 4 -8
v 4 0 -8
v 4 4 -8
v 12 0 -8
v 12 4 -8
v -8 14 12
v -8 20 12
v -6 14 12
v -6 20 12
v 6 14 12
v 6 20 12
v 8 14 12
v 8 20 12
v -6 16 4
v -6 20 4
v 6 16 4
v 6 20 4
v -12 0 -0
v -12 4 -0
v -4 0 -0
v -4 4 -0
v 4 0 -0
v 4 4 -0
v 12 0 -0
v 12 4 -0
v -12 0 -20
v -12 4 -20
v -12 8 -20
v -12 16 -20
v -4 0 -20
v -4 4 -20
v 4 0 -20
v 4 4 -20
v 12 0 -20
v 12 4 -20
v 12 8 -20
v 12 16 -20
v -14 4 -22
v -14 8 -22
v 14 4 -22
v 14 8 -22
v -12 0 12
v -4 0 12
v 4 0 12
v 12 0 12
v -12 0 -0
v -4 0 -0
v 4 0 -0
v 12 0 -0
v -12 0 -8
v -4 0 -8
v 4 0 -8
v 12 0 -8
v -12 0 -20
v -4 0 -20
v 4 0 -20
v 12 0 -20
v -14 4 10
v -12 4 10
v -4 4 10
v 4 4 10
v 12 4 10
v 14 4 10
v -4 4 8
v 4 4 8
v -12 4 -0
v -4 4 -0
v 4 4 -0
v 12 4 -0
v -12 4 -8
v -4 4 -8
v 4 4 -8
v 12 4 -8
v -12 4 -20
v -4 4 -20
v 4 4 -20
v 12 4 -20
v -14 4 -22
v 14 4 -22
v -6 8 18
v 6 8 18
v -6 8 10
v 6 8 10
v -8 14 18
v -6 14 18
v 6 14 18
v 8 14 18
v -8 14 12
v -6 14 12
v 6 14 12
v 8 14 12
v -12 4 12
v -4 4 12
v 4 4 12
v 12 4 12
v -12 4 10
v -4 4 10
v 4 4 10
v 12 4 10
v -14 8 10
v -6 8 10
v 6 8 10
v 14 8 10
v -12 8 8
v -6 8 8
v 6 8 8
v 12 8 8
v -12 8 -20
v 12 8 -20
v -14 8 -22
v 14 8 -22
v -12 16 8
v -6 16 8
v 6 16 8
v 12 16 8
v -6 16 4
v 6 16 4
v -12 16 -20
v 12 16 -20
v -8 20 18
v -6 20 18
v 6 20 18
v 8 20 18
v -8 20 12
v -6 20 12
v 6 20 12
v 8 20 12
v -6 20 4
v 6 20 4

# faces
f 3/1/1 2/1/1 1/1/1
f 4/1/1 2/1/1 3/1/1
f 9/3/1 6/3/1 5/3/1
f 10/3/1 6/3/1 9/3/1
f 11/3/1 6/3/1 10/3/1
f 12/3/1 8/3/1 7/3/1
f 13/3/1 8/3/1 12/3/1
f 16/2/1 15/2/1 14/2/1
f 17/2/1 15/2/1 16/2/1
f 20/7/1 19/7/1 18/7/1
f 21/7/1 19/7/1 20/7/1
f 22/7/1 20/7/1 18/7/1
f 22/6/1 21/6/1 20/6/1
f 23/7/1 19/7/1 21/7/1
f 23/6/1 21/6/1 22/6/1
f 24/7/1 22/7/1 18/7/1
f 24/7/1 23/7/1 22/7/1
f 25/7/1 19/7/1 23/7/1
f 25/7/1 23/7/1 24/7/1
f 29/3/1 27/3/1 26/3/1
f 29/3/1 28/3/1 27/3/1
f 30/3/1 28/3/1 29/3/1
f 31/3/1 28/3/1 30/3/1
f 33/3/1 31/3/1 30/3/1
f 33/3/1 32/3/1 31/3/1
f 34/3/1 32/3/1 33/3/1
f 39/3/1 36/3/1 35/3/1
f 40/3/1 36/3/1 39/3/1
f 41/3/1 36/3/1 40/3/1
f 42/3/1 36/3/1 41/3/1
f 43/3/1 38/3/1 37/3/1
f 44/3/1 38/3/1 43/3/1
f 45/3/2 46/3/2 49/3/2
f 49/3/2 46/3/2 50/3/2
f 50/3/2 46/3/2 51/3/2
f 51/3/2 46/3/2 52/3/2
f 47/3/2 48/3/2 53/3/2
f 53/3/2 48/3/2 54/3/2
f 55/3/2 56/3/2 58/3/2
f 56/3/2 57/3/2 58/3/2
f 58/3/2 57/3/2 59/3/2
f 59/3/2 57/3/2 60/3/2
f 59/3/2 60/3/2 62/3/2
f 60/3/2 61/3/2 62/3/2
f 62/3/2 61/3/2 63/3/2
f 64/7/2 65/7/2 66/7/2
f 66/7/2 65/7/2 67/7/2
f 64/7/2 66/7/2 68/7/2
f 66/6/2 67/6/2 68/6/2
f 67/7/2 65/7/2 69/7/2
f 68/6/2 67/6/2 69/6/2
f 64/7/2 68/7/2 70/7/2
f 68/7/2 69/7/2 70/7/2
f 69/7/2 65/7/2 71/7/2
f 70/7/2 69/7/2 71/7/2
f 72/3/2 73/3/2 76/3/2
f 76/3/2 73/3/2 77/3/2
f 77/3/2 73/3/2 78/3/2
f 74/3/2 75/3/2 79/3/2
f 79/3/2 75/3/2 80/3/2
f 81/2/2 82/2/2 83/2/2
f 83/2/2 82/2/2 84/2/2
f 85/1/2 86/1/2 87/1/2
f 87/1/2 86/1/2 88/1/2
f 92/7/3 90/7/3 89/7/3
f 93/7/3 90/7/3 92/7/3
f 94/3/3 92/3/3 91/3/3
f 94/3/3 93/3/3 92/3/3
f 95/3/3 93/3/3 94/3/3
f 96/5/3 95/5/3 94/5/3
f 97/5/3 95/5/3 96/5/3
f 98/5/3 96/5/3 94/5/3
f 98/4/3 97/4/3 96/4/3
f 99/5/3 95/5/3 97/5/3
f 99/4/3 97/4/3 98/4/3
f 100/3/3 94/3/3 91/3/3
f 100/5/3 98/5/3 94/5/3
f 100/5/3 99/5/3 98/5/3
f 101/5/3 95/5/3 99/5/3
f 101/5/3 99/5/3 100/5/3
f 101/3/3 93/3/3 95/3/3
f 102/3/3 100/3/3 91/3/3
f 102/3/3 101/3/3 100/3/3
f 103/3/3 93/3/3 101/3/3
f 103/3/3 101/3/3 102/3/3
f 104/3/3 93/3/3 103/3/3
f 105/7/3 104/7/3 103/7/3
f 106/7/3 104/7/3 105/7/3
f 109/3/3 108/3/3 107/3/3
f 110/3/3 108/3/3 109/3/3
f 113/3/3 112/3/3 111/3/3
f 114/3/3 112/3/3 113/3/3
f 117/1/3 116/1/3 115/1/3
f 118/1/3 116/1/3 117/1/3
f 119/1/3 118/1/3 117/1/3
f 120/1/3 118/1/3 119/1/3
f 121/1/3 118/1/3 120/1/3
f 122/1/3 121/1/3 120/1/3
f 123/1/3 121/1/3 122/1/3
f 124/1/3 121/1/3 123/1/3
f 127/2/3 126/2/3 125/2/3
f 128/2/3 126/2/3 127/2/3
f 131/2/3 130/2/3 129/2/3
f 132/2/3 130/2/3 131/2/3
f 135/3/3 134/3/3 133/3/3
f 136/3/3 134/3/3 135/3/3
f 139/3/3 138/3/3 137/3/3
f 140/3/3 138/3/3 139/3/3
f 141/7/4 142/7/4 143/7/4
f 143/7/4 142/7/4 144/7/4
f 145/7/4 146/7/4 147/7/4
f 147/7/4 146/7/4 148/7/4
f 149/3/4 150/3/4 151/3/4
f 151/3/4 150/3/4 152/3/4
f 153/3/4 154/3/4 155/3/4
f 155/3/4 154/3/4 156/3/4
f 157/3/4 158/3/4 159/3/4
f 159/3/4 158/3/4 160/3/4
f 161/3/4 162/3/4 165/3/4
f 165/3/4 162/3/4 166/3/4
f 167/3/4 168/3/4 169/3/4
f 169/3/4 168/3/4 170/3/4
f 163/2/4 164/2/4 171/2/4
f 171/2/4 164/2/4 172/2/4
f 173/1/4 174/1/4 175/1/4
f 175/1/4 174/1/4 176/1/4
f 181/3/5 178/3/5 177/3/5
f 182/3/5 178/3/5 181/3/5
f 183/3/5 180/3/5 179/3/5
f 184/3/5 180/3/5 183/3/5
f 189/3/5 186/3/5 185/3/5
f 190/3/5 186/3/5 189/3/5
f 191/3/5 188/3/5 187/3/5
f 192/3/5 188/3/5 191/3/5
f 199/1/5 196/1/5 195/1/5
f 200/1/5 196/1/5 199/1/5
f 201/1/5 194/1/5 193/1/5
f 202/3/5 200/3/5 199/3/5
f 203/3/5 200/3/5 202/3/5
f 204/1/5 198/1/5 197/1/5
f 205/3/5 203/3/5 202/3/5
f 205/3/5 204/3/5 203/3/5
f 205/3/5 202/3/5 201/3/5
f 205/1/5 201/1/5 193/1/5
f 206/3/5 204/3/5 205/3/5
f 207/3/5 204/3/5 206/3/5
f 208/1/5 198/1/5 204/1/5
f 208/3/5 204/3/5 207/3/5
f 209/1/5 205/1/5 193/1/5
f 210/3/5 207/3/5 206/3/5
f 211/3/5 207/3/5 210/3/5
f 212/1/5 198/1/5 208/1/5
f 213/1/5 209/1/5 193/1/5
f 213/1/5 212/1/5 211/1/5
f 213/1/5 211/1/5 210/1/5
f 213/1/5 210/1/5 209/1/5
f 214/1/5 198/1/5 212/1/5
f 214/1/5 212/1/5 213/1/5
f 217/3/5 216/3/5 215/3/5
f 218/3/5 216/3/5 217/3/5
f 223/7/5 220/7/5 219/7/5
f 224/7/5 220/7/5 223/7/5
f 225/7/5 222/7/5 221/7/5
f 226/7/5 222/7/5 225/7/5
f 227/3/6 228/3/6 231/3/6
f 231/3/6 228/3/6 232/3/6
f 229/3/6 230/3/6 233/3/6
f 233/3/6 230/3/6 234/3/6
f 235/1/6 236/1/6 239/1/6
f 239/1/6 236/1/6 240/1/6
f 237/1/6 238/1/6 241/1/6
f 241/1/6 238/1/6 242/1/6
f 235/1/6 239/1/6 243/1/6
f 242/1/6 238/1/6 244/1/6
f 235/1/6 243/1/6 245/1/6
f 243/1/6 244/1/6 245/1/6
f 244/1/6 238/1/6 246/1/6
f 245/1/6 244/1/6 246/1/6
f 247/2/6 248/2/6 251/2/6
f 249/2/6 250/2/6 252/2/6
f 247/2/6 251/2/6 253/2/6
f 251/2/6 252/2/6 253/2/6
f 252/2/6 250/2/6 254/2/6
f 253/2/6 252/2/6 254/2/6
f 255/7/6 256/7/6 259/7/6
f 256/3/6 257/3/6 260/3/6
f 259/7/6 256/7/6 260/7/6
f 257/7/6 258/7/6 261/7/6
f 260/3/6 257/3/6 261/3/6
f 261/7/6 258/7/6 262/7/6
f 260/3/6 261/3/6 263/3/6
f 263/3/6 261/3/6 264/3/6
