# MagicaVoxel @ ephtracy

# material
mtllib robot.mtl
usemtl palette

# normals
vn -1 0 0
vn 1 0 0
vn 0 0 1
vn 0 0 -1
vn 0 -1 0
vn 0 1 0

# texcoords
vt 0.841797 0.5
vt 0.853516 0.5
vt 0.982422 0.5
vt 0.986328 0.5
vt 0.990234 0.5

# verts
v -14 16 1
v -14 16 -2
v -14 25 1
v -14 25 -2
v -12 10 5
v -12 10 -7
v -12 11 3
v -12 11 2
v -12 12 4
v -12 12 3
v -12 12 2
v -12 12 1
v -12 13 4
v -12 13 3
v -12 13 2
v -12 13 1
v -12 14 3
v -12 14 2
v -12 16 1
v -12 16 -2
v -12 22 -4
v -12 22 -5
v -12 23 -3
v -12 23 -4
v -12 23 -5
v -12 23 -6
v -12 24 -3
v -12 24 -4
v -12 24 -5
v -12 24 -6
v -12 25 1
v -12 25 -2
v -12 25 -4
v -12 25 -5
v -12 26 5
v -12 26 -7
v -12 34 -1
v -12 34 -3
v -12 40 -1
v -12 40 -3
v -10 6 1
v -10 6 -3
v -10 10 1
v -10 10 -3
v -10 26 3
v -10 26 -6
v -10 28 3
v -10 28 -1
v -10 30 3
v -10 30 2
v -10 31 2
v -10 31 1
v -10 32 1
v -10 32 -1
v -10 34 -1
v -10 34 -3
v -10 38 3
v -10 38 -1
v -10 38 -3
v -10 38 -6
v -8 32 4
v -8 32 3
v -8 36 4
v -8 36 3
v -2 32 4
v -2 32 3
v -2 36 4
v -2 36 3
v 0 6 1
v 0 6 -3
v 0 10 1
v 0 10 -3
v 4 38 -1
v 4 38 -3
v 4 40 -1
v 4 40 -3
v -10 38 -1
v -10 38 -3
v -10 40 -1
v -10 40 -3
v -6 6 1
v -6 6 -3
v -6 10 1
v -6 10 -3
v -4 32 4
v -4 32 3
v -4 36 4
v -4 36 3
v 2 32 4
v 2 32 3
v 2 36 4
v 2 36 3
v 4 6 1
v 4 6 -3
v 4 10 1
v 4 10 -3
v 4 26 3
v 4 26 -6
v 4 28 3
v 4 28 -1
v 4 30 3
v 4 30 2
v 4 31 2
v 4 31 1
v 4 32 1
v 4 32 -1
v 4 34 -1
v 4 34 -3
v 4 38 3
v 4 38 -1
v 4 38 -3
v 4 38 -6
v 6 10 5
v 6 10 -7
v 6 11 -4
v 6 11 -5
v 6 12 -3
v 6 12 -4
v 6 12 -5
v 6 12 -6
v 6 13 -3
v 6 13 -4
v 6 13 -5
v 6 13 -6
v 6 14 -4
v 6 14 -5
v 6 15 1
v 6 15 -2
v 6 22 3
v 6 22 2
v 6 23 4
v 6 23 3
v 6 23 2
v 6 23 1
v 6 24 4
v 6 24 3
v 6 24 2
v 6 24 1
v 6 25 3
v 6 25 2
v 6 25 1
v 6 25 -2
v 6 26 5
v 6 26 -7
v 6 34 -1
v 6 34 -3
v 6 40 -1
v 6 40 -3
v 8 15 1
v 8 15 -2
v 8 25 1
v 8 25 -2
v -12 10 5
v -12 26 5
v -10 12 5
v -10 13 5
v -10 23 5
v -10 24 5
v -9 11 5
v -9 12 5
v -9 13 5
v -9 14 5
v -9 22 5
v -9 23 5
v -9 24 5
v -9 25 5
v -8 11 5
v -8 12 5
v -8 13 5
v -8 14 5
v -8 22 5
v -8 23 5
v -8 24 5
v -8 25 5
v -7 12 5
v -7 13 5
v -7 23 5
v -7 24 5
v 2 12 5
v 2 13 5
v 2 23 5
v 2 24 5
v 3 11 5
v 3 12 5
v 3 13 5
v 3 14 5
v 3 22 5
v 3 23 5
v 3 24 5
v 3 25 5
v 4 11 5
v 4 12 5
v 4 13 5
v 4 14 5
v 4 22 5
v 4 23 5
v 4 24 5
v 4 25 5
v 5 12 5
v 5 13 5
v 5 23 5
v 5 24 5
v 6 10 5
v 6 26 5
v -8 32 4
v -8 36 4
v -4 32 4
v -4 36 4
v -2 32 4
v -2 36 4
v 2 32 4
v 2 36 4
v -10 26 3
v -10 28 3
v -10 30 3
v -10 38 3
v -8 32 3
v -8 36 3
v -4 32 3
v -4 36 3
v -2 32 3
v -2 36 3
v 2 32 3
v 2 36 3
v 4 26 3
v 4 28 3
v 4 30 3
v 4 38 3
v -14 16 1
v -14 25 1
v -12 16 1
v -12 25 1
v -10 6 1
v -10 10 1
v -6 6 1
v -6 10 1
v 0 6 1
v 0 10 1
v 4 6 1
v 4 10 1
v 6 15 1
v 6 23 1
v 6 24 1
v 6 25 1
v 8 15 1
v 8 25 1
v -12 34 -1
v -12 40 -1
v -10 34 -1
v -10 38 -1
v -10 40 -1
v 4 34 -1
v 4 38 -1
v 4 40 -1
v 6 34 -1
v 6 40 -1
v -14 16 -2
v -14 25 -2
v -12 16 -2
v -12 25 -2
v 6 15 -2
v 6 25 -2
v 8 15 -2
v 8 25 -2
v -12 34 -3
v -12 40 -3
v -10 6 -3
v -10 10 -3
v -10 34 -3
v -10 38 -3
v -10 40 -3
v -6 6 -3
v -6 10 -3
v 0 6 -3
v 0 10 -3
v 4 6 -3
v 4 10 -3
v 4 34 -3
v 4 38 -3
v 4 40 -3
v 6 34 -3
v 6 40 -3
v -10 26 -6
v -10 38 -6
v 4 26 -6
v 4 38 -6
v -12 10 -7
v -12 26 -7
v -11 12 -7
v -11 13 -7
v -11 23 -7
v -11 24 -7
v -10 11 -7
v -10 12 -7
v -10 13 -7
v -10 14 -7
v -10 22 -7
v -10 23 -7
v -10 24 -7
v -10 25 -7
v -9 11 -7
v -9 12 -7
v -9 13 -7
v -9 14 -7
v -9 22 -7
v -9 23 -7
v -9 24 -7
v -9 25 -7
v -8 12 -7
v -8 13 -7
v -8 23 -7
v -8 24 -7
v 2 12 -7
v 2 13 -7
v 2 23 -7
v 2 24 -7
v 3 11 -7
v 3 12 -7
v 3 13 -7
v 3 14 -7
v 3 22 -7
v 3 23 -7
v 3 24 -7
v 3 25 -7
v 4 11 -7
v 4 12 -7
v 4 13 -7
v 4 14 -7
v 4 22 -7
v 4 23 -7
v 4 24 -7
v 4 25 -7
v 5 12 -7
v 5 13 -7
v 5 23 -7
v 5 24 -7
v 6 10 -7
v 6 26 -7
v -10 6 1
v -6 6 1
v 0 6 1
v 4 6 1
v -10 6 -3
v -6 6 -3
v 0 6 -3
v 4 6 -3
v -12 10 5
v 6 10 5
v -10 10 1
v -6 10 1
v 0 10 1
v 4 10 1
v -10 10 -3
v -6 10 -3
v 0 10 -3
v 4 10 -3
v -12 10 -7
v 6 10 -7
v 6 15 1
v 8 15 1
v 6 15 -2
v 8 15 -2
v -14 16 1
v -12 16 1
v -14 16 -2
v -12 16 -2
v -8 32 4
v -4 32 4
v -2 32 4
v 2 32 4
v -8 32 3
v -4 32 3
v -2 32 3
v 2 32 3
v -12 34 -1
v -10 34 -1
v 4 34 -1
v 6 34 -1
v -12 34 -3
v -10 34 -3
v 4 34 -3
v 6 34 -3
v -14 25 1
v -12 25 1
v 6 25 1
v 8 25 1
v -14 25 -2
v -12 25 -2
v 6 25 -2
v 8 25 -2
v -12 26 5
v 6 26 5
v -10 26 3
v 4 26 3
v -10 26 -6
v 4 26 -6
v -12 26 -7
v 6 26 -7
v -8 36 4
v -4 36 4
v -2 36 4
v 2 36 4
v -8 36 3
v -4 36 3
v -2 36 3
v 2 36 3
v -10 38 3
v 4 38 3
v -10 38 -1
v 4 38 -1
v -10 38 -3
v 4 38 -3
v -10 38 -6
v 4 38 -6
v -12 40 -1
v -10 40 -1
v 4 40 -1
v 6 40 -1
v -12 40 -3
v -10 40 -3
v 4 40 -3
v 6 40 -3

# faces
f 3/5/1 2/5/1 1/5/1
f 4/5/1 2/5/1 3/5/1
f 7/3/1 6/3/1 5/3/1
f 8/3/1 6/3/1 7/3/1
f 9/3/1 7/3/1 5/3/1
f 10/5/1 8/5/1 7/5/1
f 10/3/1 7/3/1 9/3/1
f 11/3/1 6/3/1 8/3/1
f 11/5/1 8/5/1 10/5/1
f 12/3/1 6/3/1 11/3/1
f 13/5/1 10/5/1 9/5/1
f 13/3/1 9/3/1 5/3/1
f 13/5/1 12/5/1 11/5/1
f 13/5/1 11/5/1 10/5/1
f 14/5/1 12/5/1 13/5/1
f 15/5/1 12/5/1 14/5/1
f 16/3/1 6/3/1 12/3/1
f 16/5/1 12/5/1 15/5/1
f 17/5/1 15/5/1 14/5/1
f 17/3/1 14/3/1 13/3/1
f 18/3/1 16/3/1 15/3/1
f 18/5/1 15/5/1 17/5/1
f 19/3/1 6/3/1 16/3/1
f 19/3/1 16/3/1 18/3/1
f 19/3/1 18/3/1 17/3/1
f 20/3/1 6/3/1 19/3/1
f 21/3/1 6/3/1 20/3/1
f 22/3/1 6/3/1 21/3/1
f 23/3/1 21/3/1 20/3/1
f 24/5/1 22/5/1 21/5/1
f 24/3/1 21/3/1 23/3/1
f 25/3/1 6/3/1 22/3/1
f 25/5/1 22/5/1 24/5/1
f 26/3/1 6/3/1 25/3/1
f 27/5/1 24/5/1 23/5/1
f 27/3/1 23/3/1 20/3/1
f 27/5/1 26/5/1 25/5/1
f 27/5/1 25/5/1 24/5/1
f 28/5/1 26/5/1 27/5/1
f 29/5/1 26/5/1 28/5/1
f 30/3/1 6/3/1 26/3/1
f 30/5/1 26/5/1 29/5/1
f 31/3/1 19/3/1 17/3/1
f 32/3/1 27/3/1 20/3/1
f 32/3/1 28/3/1 27/3/1
f 33/5/1 29/5/1 28/5/1
f 33/3/1 28/3/1 32/3/1
f 34/3/1 30/3/1 29/3/1
f 34/5/1 29/5/1 33/5/1
f 35/3/1 17/3/1 13/3/1
f 35/3/1 13/3/1 5/3/1
f 35/3/1 34/3/1 33/3/1
f 35/3/1 32/3/1 31/3/1
f 35/3/1 33/3/1 32/3/1
f 35/3/1 31/3/1 17/3/1
f 36/3/1 30/3/1 34/3/1
f 36/3/1 34/3/1 35/3/1
f 36/3/1 6/3/1 30/3/1
f 39/4/1 38/4/1 37/4/1
f 40/4/1 38/4/1 39/4/1
f 43/3/1 42/3/1 41/3/1
f 44/3/1 42/3/1 43/3/1
f 47/3/1 46/3/1 45/3/1
f 48/3/1 46/3/1 47/3/1
f 49/5/1 48/5/1 47/5/1
f 50/5/1 48/5/1 49/5/1
f 51/3/1 50/3/1 49/3/1
f 51/5/1 48/5/1 50/5/1
f 52/5/1 48/5/1 51/5/1
f 53/3/1 52/3/1 51/3/1
f 53/5/1 48/5/1 52/5/1
f 54/3/1 46/3/1 48/3/1
f 54/5/1 48/5/1 53/5/1
f 55/3/1 54/3/1 53/3/1
f 55/3/1 46/3/1 54/3/1
f 56/3/1 46/3/1 55/3/1
f 57/3/1 53/3/1 51/3/1
f 57/3/1 51/3/1 49/3/1
f 57/3/1 55/3/1 53/3/1
f 58/3/1 55/3/1 57/3/1
f 59/3/1 46/3/1 56/3/1
f 60/3/1 46/3/1 59/3/1
f 63/1/1 62/1/1 61/1/1
f 64/1/1 62/1/1 63/1/1
f 67/1/1 66/1/1 65/1/1
f 68/1/1 66/1/1 67/1/1
f 71/3/1 70/3/1 69/3/1
f 72/3/1 70/3/1 71/3/1
f 75/4/1 74/4/1 73/4/1
f 76/4/1 74/4/1 75/4/1
f 77/4/2 78/4/2 79/4/2
f 79/4/2 78/4/2 80/4/2
f 81/3/2 82/3/2 83/3/2
f 83/3/2 82/3/2 84/3/2
f 85/1/2 86/1/2 87/1/2
f 87/1/2 86/1/2 88/1/2
f 89/1/2 90/1/2 91/1/2
f 91/1/2 90/1/2 92/1/2
f 93/3/2 94/3/2 95/3/2
f 95/3/2 94/3/2 96/3/2
f 97/3/2 98/3/2 99/3/2
f 99/3/2 98/3/2 100/3/2
f 99/5/2 100/5/2 101/5/2
f 101/5/2 100/5/2 102/5/2
f 101/3/2 102/3/2 103/3/2
f 102/5/2 100/5/2 103/5/2
f 103/5/2 100/5/2 104/5/2
f 103/3/2 104/3/2 105/3/2
f 104/5/2 100/5/2 105/5/2
f 100/3/2 98/3/2 106/3/2
f 105/5/2 100/5/2 106/5/2
f 105/3/2 106/3/2 107/3/2
f 106/3/2 98/3/2 107/3/2
f 107/3/2 98/3/2 108/3/2
f 103/3/2 105/3/2 109/3/2
f 101/3/2 103/3/2 109/3/2
f 105/3/2 107/3/2 109/3/2
f 109/3/2 107/3/2 110/3/2
f 108/3/2 98/3/2 111/3/2
f 111/3/2 98/3/2 112/3/2
f 113/3/2 114/3/2 115/3/2
f 115/3/2 114/3/2 116/3/2
f 113/3/2 115/3/2 117/3/2
f 115/5/2 116/5/2 118/5/2
f 117/3/2 115/3/2 118/3/2
f 116/3/2 114/3/2 119/3/2
f 118/5/2 116/5/2 119/5/2
f 119/3/2 114/3/2 120/3/2
f 117/5/2 118/5/2 121/5/2
f 113/3/2 117/3/2 121/3/2
f 119/5/2 120/5/2 121/5/2
f 118/5/2 119/5/2 121/5/2
f 121/5/2 120/5/2 122/5/2
f 122/5/2 120/5/2 123/5/2
f 120/3/2 114/3/2 124/3/2
f 123/5/2 120/5/2 124/5/2
f 122/5/2 123/5/2 125/5/2
f 121/3/2 122/3/2 125/3/2
f 123/3/2 124/3/2 126/3/2
f 125/5/2 123/5/2 126/5/2
f 113/3/2 121/3/2 127/3/2
f 121/3/2 125/3/2 127/3/2
f 125/3/2 126/3/2 127/3/2
f 127/3/2 126/3/2 128/3/2
f 113/3/2 127/3/2 129/3/2
f 129/3/2 127/3/2 130/3/2
f 113/3/2 129/3/2 131/3/2
f 129/5/2 130/5/2 132/5/2
f 131/3/2 129/3/2 132/3/2
f 130/3/2 127/3/2 133/3/2
f 132/5/2 130/5/2 133/5/2
f 133/3/2 127/3/2 134/3/2
f 131/5/2 132/5/2 135/5/2
f 113/3/2 131/3/2 135/3/2
f 133/5/2 134/5/2 135/5/2
f 132/5/2 133/5/2 135/5/2
f 135/5/2 134/5/2 136/5/2
f 136/5/2 134/5/2 137/5/2
f 137/5/2 134/5/2 138/5/2
f 135/3/2 136/3/2 139/3/2
f 136/5/2 137/5/2 139/5/2
f 137/3/2 138/3/2 140/3/2
f 139/5/2 137/5/2 140/5/2
f 140/3/2 138/3/2 141/3/2
f 128/3/2 126/3/2 142/3/2
f 140/3/2 141/3/2 143/3/2
f 141/3/2 142/3/2 143/3/2
f 139/3/2 140/3/2 143/3/2
f 113/3/2 135/3/2 143/3/2
f 135/3/2 139/3/2 143/3/2
f 124/3/2 114/3/2 144/3/2
f 143/3/2 142/3/2 144/3/2
f 126/3/2 124/3/2 144/3/2
f 142/3/2 126/3/2 144/3/2
f 145/4/2 146/4/2 147/4/2
f 147/4/2 146/4/2 148/4/2
f 149/5/2 150/5/2 151/5/2
f 151/5/2 150/5/2 152/5/2
f 155/3/3 154/3/3 153/3/3
f 156/3/3 154/3/3 155/3/3
f 157/3/3 154/3/3 156/3/3
f 158/3/3 154/3/3 157/3/3
f 159/3/3 155/3/3 153/3/3
f 160/5/3 156/5/3 155/5/3
f 160/3/3 155/3/3 159/3/3
f 161/3/3 157/3/3 156/3/3
f 161/5/3 156/5/3 160/5/3
f 162/3/3 157/3/3 161/3/3
f 163/3/3 157/3/3 162/3/3
f 164/5/3 158/5/3 157/5/3
f 164/3/3 157/3/3 163/3/3
f 165/3/3 154/3/3 158/3/3
f 165/5/3 158/5/3 164/5/3
f 166/3/3 154/3/3 165/3/3
f 167/3/3 159/3/3 153/3/3
f 167/5/3 160/5/3 159/5/3
f 167/5/3 161/5/3 160/5/3
f 167/5/3 162/5/3 161/5/3
f 168/5/3 162/5/3 167/5/3
f 169/5/3 162/5/3 168/5/3
f 170/3/3 163/3/3 162/3/3
f 170/5/3 162/5/3 169/5/3
f 171/5/3 164/5/3 163/5/3
f 171/3/3 163/3/3 170/3/3
f 171/5/3 166/5/3 165/5/3
f 171/5/3 165/5/3 164/5/3
f 172/5/3 166/5/3 171/5/3
f 173/5/3 166/5/3 172/5/3
f 174/3/3 154/3/3 166/3/3
f 174/5/3 166/5/3 173/5/3
f 175/3/3 168/3/3 167/3/3
f 175/5/3 169/5/3 168/5/3
f 176/3/3 170/3/3 169/3/3
f 176/5/3 169/5/3 175/5/3
f 176/3/3 171/3/3 170/3/3
f 176/3/3 172/3/3 171/3/3
f 177/5/3 173/5/3 172/5/3
f 177/3/3 172/3/3 176/3/3
f 178/3/3 174/3/3 173/3/3
f 178/5/3 173/5/3 177/5/3
f 179/3/3 175/3/3 167/3/3
f 179/3/3 176/3/3 175/3/3
f 179/3/3 178/3/3 177/3/3
f 179/3/3 177/3/3 176/3/3
f 180/3/3 178/3/3 179/3/3
f 181/3/3 178/3/3 180/3/3
f 182/3/3 174/3/3 178/3/3
f 182/3/3 178/3/3 181/3/3
f 183/3/3 167/3/3 153/3/3
f 183/3/3 179/3/3 167/3/3
f 184/5/3 180/5/3 179/5/3
f 184/3/3 179/3/3 183/3/3
f 185/3/3 181/3/3 180/3/3
f 185/5/3 180/5/3 184/5/3
f 186/3/3 181/3/3 185/3/3
f 187/3/3 181/3/3 186/3/3
f 188/5/3 182/5/3 181/5/3
f 188/3/3 181/3/3 187/3/3
f 189/3/3 174/3/3 182/3/3
f 189/5/3 182/5/3 188/5/3
f 190/3/3 154/3/3 174/3/3
f 190/3/3 174/3/3 189/3/3
f 191/5/3 184/5/3 183/5/3
f 191/3/3 183/3/3 153/3/3
f 191/5/3 185/5/3 184/5/3
f 191/5/3 186/5/3 185/5/3
f 192/5/3 186/5/3 191/5/3
f 193/5/3 186/5/3 192/5/3
f 194/3/3 187/3/3 186/3/3
f 194/5/3 186/5/3 193/5/3
f 195/5/3 188/5/3 187/5/3
f 195/3/3 187/3/3 194/3/3
f 195/5/3 189/5/3 188/5/3
f 195/5/3 190/5/3 189/5/3
f 196/5/3 190/5/3 195/5/3
f 197/5/3 190/5/3 196/5/3
f 198/3/3 154/3/3 190/3/3
f 198/5/3 190/5/3 197/5/3
f 199/3/3 192/3/3 191/3/3
f 199/5/3 193/5/3 192/5/3
f 200/3/3 194/3/3 193/3/3
f 200/5/3 193/5/3 199/5/3
f 200/3/3 195/3/3 194/3/3
f 200/3/3 196/3/3 195/3/3
f 201/5/3 197/5/3 196/5/3
f 201/3/3 196/3/3 200/3/3
f 202/3/3 198/3/3 197/3/3
f 202/5/3 197/5/3 201/5/3
f 203/3/3 200/3/3 199/3/3
f 203/3/3 199/3/3 191/3/3
f 203/3/3 202/3/3 201/3/3
f 203/3/3 191/3/3 153/3/3
f 203/3/3 201/3/3 200/3/3
f 204/3/3 198/3/3 202/3/3
f 204/3/3 202/3/3 203/3/3
f 204/3/3 154/3/3 198/3/3
f 207/1/3 206/1/3 205/1/3
f 208/1/3 206/1/3 207/1/3
f 211/1/3 210/1/3 209/1/3
f 212/1/3 210/1/3 211/1/3
f 217/3/3 216/3/3 215/3/3
f 218/3/3 216/3/3 217/3/3
f 219/3/3 217/3/3 215/3/3
f 220/3/3 216/3/3 218/3/3
f 221/3/3 219/3/3 215/3/3
f 221/3/3 220/3/3 219/3/3
f 222/3/3 216/3/3 220/3/3
f 222/3/3 220/3/3 221/3/3
f 223/3/3 221/3/3 215/3/3
f 224/3/3 216/3/3 222/3/3
f 225/3/3 214/3/3 213/3/3
f 226/5/3 215/5/3 214/5/3
f 226/3/3 214/3/3 225/3/3
f 227/3/3 224/3/3 223/3/3
f 227/5/3 215/5/3 226/5/3
f 227/3/3 223/3/3 215/3/3
f 228/3/3 216/3/3 224/3/3
f 228/3/3 224/3/3 227/3/3
f 231/5/3 230/5/3 229/5/3
f 232/5/3 230/5/3 231/5/3
f 235/3/3 234/3/3 233/3/3
f 236/3/3 234/3/3 235/3/3
f 239/3/3 238/3/3 237/3/3
f 240/3/3 238/3/3 239/3/3
f 245/5/3 242/5/3 241/5/3
f 245/5/3 244/5/3 243/5/3
f 245/5/3 243/5/3 242/5/3
f 246/5/3 244/5/3 245/5/3
f 249/4/3 248/4/3 247/4/3
f 250/4/3 248/4/3 249/4/3
f 251/4/3 248/4/3 250/4/3
f 255/4/3 253/4/3 252/4/3
f 255/4/3 254/4/3 253/4/3
f 256/4/3 254/4/3 255/4/3
f 257/5/4 258/5/4 259/5/4
f 259/5/4 258/5/4 260/5/4
f 261/5/4 262/5/4 263/5/4
f 263/5/4 262/5/4 264/5/4
f 265/4/4 266/4/4 269/4/4
f 269/4/4 266/4/4 270/4/4
f 270/4/4 266/4/4 271/4/4
f 267/3/4 268/3/4 272/3/4
f 272/3/4 268/3/4 273/3/4
f 274/3/4 275/3/4 276/3/4
f 276/3/4 275/3/4 277/3/4
f 279/4/4 280/4/4 281/4/4
f 278/4/4 279/4/4 281/4/4
f 281/4/4 280/4/4 282/4/4
f 283/3/4 284/3/4 285/3/4
f 285/3/4 284/3/4 286/3/4
f 287/3/4 288/3/4 289/3/4
f 289/3/4 288/3/4 290/3/4
f 290/3/4 288/3/4 291/3/4
f 291/3/4 288/3/4 292/3/4
f 287/3/4 289/3/4 293/3/4
f 289/5/4 290/5/4 294/5/4
f 293/3/4 289/3/4 294/3/4
f 290/3/4 291/3/4 295/3/4
f 294/5/4 290/5/4 295/5/4
f 295/3/4 291/3/4 296/3/4
f 296/3/4 291/3/4 297/3/4
f 291/5/4 292/5/4 298/5/4
f 297/3/4 291/3/4 298/3/4
f 292/3/4 288/3/4 299/3/4
f 298/5/4 292/5/4 299/5/4
f 299/3/4 288/3/4 300/3/4
f 287/3/4 293/3/4 301/3/4
f 293/5/4 294/5/4 301/5/4
f 294/5/4 295/5/4 301/5/4
f 295/5/4 296/5/4 301/5/4
f 301/5/4 296/5/4 302/5/4
f 302/5/4 296/5/4 303/5/4
f 296/3/4 297/3/4 304/3/4
f 303/5/4 296/5/4 304/5/4
f 297/5/4 298/5/4 305/5/4
f 304/3/4 297/3/4 305/3/4
f 299/5/4 300/5/4 305/5/4
f 298/5/4 299/5/4 305/5/4
f 305/5/4 300/5/4 306/5/4
f 306/5/4 300/5/4 307/5/4
f 300/3/4 288/3/4 308/3/4
f 307/5/4 300/5/4 308/5/4
f 301/3/4 302/3/4 309/3/4
f 302/5/4 303/5/4 309/5/4
f 303/3/4 304/3/4 310/3/4
f 309/5/4 303/5/4 310/5/4
f 304/3/4 305/3/4 310/3/4
f 305/3/4 306/3/4 310/3/4
f 306/5/4 307/5/4 311/5/4
f 310/3/4 306/3/4 311/3/4
f 307/3/4 308/3/4 312/3/4
f 311/5/4 307/5/4 312/5/4
f 301/3/4 309/3/4 313/3/4
f 309/3/4 310/3/4 313/3/4
f 311/3/4 312/3/4 313/3/4
f 310/3/4 311/3/4 313/3/4
f 313/3/4 312/3/4 314/3/4
f 314/3/4 312/3/4 315/3/4
f 312/3/4 308/3/4 316/3/4
f 315/3/4 312/3/4 316/3/4
f 287/3/4 301/3/4 317/3/4
f 301/3/4 313/3/4 317/3/4
f 313/5/4 314/5/4 318/5/4
f 317/3/4 313/3/4 318/3/4
f 314/3/4 315/3/4 319/3/4
f 318/5/4 314/5/4 319/5/4
f 319/3/4 315/3/4 320/3/4
f 320/3/4 315/3/4 321/3/4
f 315/5/4 316/5/4 322/5/4
f 321/3/4 315/3/4 322/3/4
f 316/3/4 308/3/4 323/3/4
f 322/5/4 316/5/4 323/5/4
f 308/3/4 288/3/4 324/3/4
f 323/3/4 308/3/4 324/3/4
f 317/5/4 318/5/4 325/5/4
f 287/3/4 317/3/4 325/3/4
f 318/5/4 319/5/4 325/5/4
f 319/5/4 320/5/4 325/5/4
f 325/5/4 320/5/4 326/5/4
f 326/5/4 320/5/4 327/5/4
f 320/3/4 321/3/4 328/3/4
f 327/5/4 320/5/4 328/5/4
f 321/5/4 322/5/4 329/5/4
f 328/3/4 321/3/4 329/3/4
f 322/5/4 323/5/4 329/5/4
f 323/5/4 324/5/4 329/5/4
f 329/5/4 324/5/4 330/5/4
f 330/5/4 324/5/4 331/5/4
f 324/3/4 288/3/4 332/3/4
f 331/5/4 324/5/4 332/5/4
f 325/3/4 326/3/4 333/3/4
f 326/5/4 327/5/4 333/5/4
f 327/3/4 328/3/4 334/3/4
f 333/5/4 327/5/4 334/5/4
f 328/3/4 329/3/4 334/3/4
f 329/3/4 330/3/4 334/3/4
f 330/5/4 331/5/4 335/5/4
f 334/3/4 330/3/4 335/3/4
f 331/3/4 332/3/4 336/3/4
f 335/5/4 331/5/4 336/5/4
f 333/3/4 334/3/4 337/3/4
f 325/3/4 333/3/4 337/3/4
f 335/3/4 336/3/4 337/3/4
f 287/3/4 325/3/4 337/3/4
f 334/3/4 335/3/4 337/3/4
f 336/3/4 332/3/4 338/3/4
f 337/3/4 336/3/4 338/3/4
f 332/3/4 288/3/4 338/3/4
f 343/3/5 340/3/5 339/3/5
f 344/3/5 340/3/5 343/3/5
f 345/3/5 342/3/5 341/3/5
f 346/3/5 342/3/5 345/3/5
f 349/3/5 348/3/5 347/3/5
f 350/3/5 348/3/5 349/3/5
f 351/3/5 348/3/5 350/3/5
f 352/3/5 348/3/5 351/3/5
f 353/3/5 349/3/5 347/3/5
f 354/3/5 351/3/5 350/3/5
f 355/3/5 351/3/5 354/3/5
f 356/3/5 348/3/5 352/3/5
f 357/3/5 355/3/5 354/3/5
f 357/3/5 356/3/5 355/3/5
f 357/3/5 353/3/5 347/3/5
f 357/3/5 354/3/5 353/3/5
f 358/3/5 348/3/5 356/3/5
f 358/3/5 356/3/5 357/3/5
f 361/5/5 360/5/5 359/5/5
f 362/5/5 360/5/5 361/5/5
f 365/5/5 364/5/5 363/5/5
f 366/5/5 364/5/5 365/5/5
f 371/1/5 368/1/5 367/1/5
f 372/1/5 368/1/5 371/1/5
f 373/1/5 370/1/5 369/1/5
f 374/1/5 370/1/5 373/1/5
f 379/4/5 376/4/5 375/4/5
f 380/4/5 376/4/5 379/4/5
f 381/4/5 378/4/5 377/4/5
f 382/4/5 378/4/5 381/4/5
f 383/5/6 384/5/6 387/5/6
f 387/5/6 384/5/6 388/5/6
f 385/5/6 386/5/6 389/5/6
f 389/5/6 386/5/6 390/5/6
f 391/3/6 392/3/6 393/3/6
f 393/3/6 392/3/6 394/3/6
f 391/3/6 393/3/6 395/3/6
f 394/3/6 392/3/6 396/3/6
f 391/3/6 395/3/6 397/3/6
f 395/3/6 396/3/6 397/3/6
f 396/3/6 392/3/6 398/3/6
f 397/3/6 396/3/6 398/3/6
f 399/1/6 400/1/6 403/1/6
f 403/1/6 400/1/6 404/1/6
f 401/1/6 402/1/6 405/1/6
f 405/1/6 402/1/6 406/1/6
f 407/3/6 408/3/6 409/3/6
f 409/3/6 408/3/6 410/3/6
f 409/3/6 410/3/6 411/3/6
f 411/3/6 410/3/6 412/3/6
f 411/3/6 412/3/6 413/3/6
f 413/3/6 412/3/6 414/3/6
f 415/4/6 416/4/6 419/4/6
f 419/4/6 416/4/6 420/4/6
f 417/4/6 418/4/6 421/4/6
f 421/4/6 418/4/6 422/4/6
